<svg xmlns="http://www.w3.org/2000/svg" viewBox="0 0 168.73 232.96"><title>Asset 1</title><g id="Layer_2" data-name="Layer 2"><g id="Objects"><path d="M1,216.68H150a1.05,1.05,0,0,0,0-2.1H1a1.05,1.05,0,0,0,0,2.1Z"/><path d="M10.52,219.36c8.14,0,16.27.57,24.41.62a1.05,1.05,0,0,0,0-2.1c-8.14,0-16.27-.58-24.41-.62a1.05,1.05,0,0,0,0,2.1Z"/><path d="M54.08,220.91h3.4a1.06,1.06,0,0,0,0-2.11h-3.4a1.06,1.06,0,0,0,0,2.11Z"/><path d="M64.59,221.52a9.2,9.2,0,0,1,2.81.28,1.05,1.05,0,0,0,.55-2,11.18,11.18,0,0,0-3.36-.35,1.05,1.05,0,0,0,0,2.1Z"/><path d="M37.09,219.36c12.56,0,25.13.29,37.69.31a1.05,1.05,0,0,0,0-2.1c-12.56,0-25.13-.29-37.69-.31a1.05,1.05,0,0,0,0,2.1Z"/><path d="M97,220h1.54a1.05,1.05,0,0,0,0-2.1H97a1.05,1.05,0,0,0,0,2.1Z"/><path d="M103.49,219.63a24.28,24.28,0,0,1,4.35-.27,1.05,1.05,0,0,0,0-2.1,26.06,26.06,0,0,0-4.91.35c-1.34.24-.77,2.27.56,2Z"/><path d="M81.58,218.13a24.44,24.44,0,0,1,4.66.58c1.33.26,1.89-1.77.56-2a29.58,29.58,0,0,0-5.22-.66,1.06,1.06,0,0,0,0,2.11Z"/><path d="M119,220a77.07,77.07,0,0,0,8,.31,1.05,1.05,0,0,0,0-2.1,79.92,79.92,0,0,1-8-.31c-1.34-.14-1.33,2,0,2.1Z"/><path d="M28.75,224c9.9,0,19.8.5,29.63-1,1.33-.2.76-2.22-.56-2-9.64,1.44-19.37.93-29.07.89a1.06,1.06,0,0,0,0,2.11Z"/><path d="M67.37,223.07a93.13,93.13,0,0,0,13.25-.66c1.34-.19.77-2.21-.56-2a91.17,91.17,0,0,1-12.69.58,1.05,1.05,0,0,0,0,2.1Z"/><path d="M88.07,222.45c7.1-.26,14.21,0,21.32,0a1.05,1.05,0,0,0,0-2.1c-7.11,0-14.22-.26-21.32,0-1.35.05-1.36,2.15,0,2.1Z"/><path d="M76.94,226.47a63.64,63.64,0,0,1,7.42-.62,1.05,1.05,0,0,0,0-2.1,65.88,65.88,0,0,0-7.42.61c-1.32.17-1.34,2.27,0,2.11Z"/><path d="M49.14,228h4a1.05,1.05,0,0,0,0-2.1h-4a1.05,1.05,0,0,0,0,2.1Z"/><path d="M67,227.05a16.12,16.12,0,0,1,5,0c1.33.2,1.9-1.82.56-2a19.63,19.63,0,0,0-6.12,0c-1.34.21-.77,2.23.56,2Z"/><path d="M98.57,229.56h.62a1.06,1.06,0,0,0,0-2.11h-.62a1.06,1.06,0,0,0,0,2.11Z"/><path d="M68.6,233h1.55a1.06,1.06,0,0,0,0-2.11H68.6a1.06,1.06,0,0,0,0,2.11Z"/><path d="M114.93,40.07c2.42,0,4.83-.19,7.25-.22,4.2,0,4,2.5,4.66,5.82,1.16,6.2,2,12.66.26,18.82a1.05,1.05,0,0,0,2,.56c2.45-8.57.19-17.59-1.44-26.1a1,1,0,0,0-.74-.73c-4-.71-8-.33-12-.25a1.05,1.05,0,0,0,0,2.1Z"/><path d="M127.5,65c-4.2,0-8.38-.23-12.57-.53-1.35-.09-1.34,2,0,2.1,4.19.3,8.37.52,12.57.53a1.05,1.05,0,0,0,0-2.1Z"/><path d="M113.06,39.43V63.12a1.05,1.05,0,0,0,2.1,0V39.43a1.05,1.05,0,0,0-2.1,0Z"/><path d="M117.22,65.52c-1.48,6.08-3.84,11.83-6.07,17.67-2.35,6.16-3.73,12.72-6.7,18.63-.61,1.2,1.2,2.27,1.81,1.06,2.43-4.83,3.77-10,5.47-15.15,2.4-7.28,5.69-14.18,7.51-21.65.32-1.32-1.7-1.88-2-.56Z"/><path d="M121.34,65.93c-4.41,14.92-8.3,30-13.7,44.58-.47,1.28,1.56,1.82,2,.56,5.4-14.61,9.29-29.66,13.69-44.58a1,1,0,0,0-2-.56Z"/><path d="M118.82,65.26c-2.08-1.94-4.42-3.61-4.64-6.67-.25.34-.51.68-.77,1a2.65,2.65,0,0,0,.93-.58h-1.49c1.28,1.49,2.11,3.29,3.24,4.89.77,1.1,2.59.05,1.81-1.06a63.82,63.82,0,0,0-3.56-5.31,1.06,1.06,0,0,0-1.49,0v0a1.07,1.07,0,0,0-.77,1c.27,3.74,2.67,5.75,5.25,8.16,1,.92,2.48-.56,1.49-1.49Z"/><path d="M117.37,63a2.47,2.47,0,0,0,2.4,2c1.36.06,1.35-2,0-2.11-.29,0-.31-.18-.37-.46-.31-1.32-2.34-.76-2,.56Z"/><path d="M119.76,63.62c-2.8-6.48,2.56-14.94,8.42-17.72,1.23-.58.16-2.39-1.06-1.81-7,3.34-12.42,13.06-9.18,20.59.53,1.24,2.35.17,1.82-1.06Z"/><path d="M127.12,46.21c1.94,1.33.12,4.29-.17,6.07-.22,1.33,1.81,1.9,2,.56.49-3.05,2.44-6.22-.8-8.44-1.12-.77-2.17,1.05-1.06,1.81Z"/><path d="M128.15,49A14.65,14.65,0,0,0,125.4,54c-.5,1.26,1.54,1.81,2,.57a12,12,0,0,1,2.2-4c.94-1-.55-2.47-1.48-1.49Z"/><path d="M126.91,51.64c.18,1.51.64,3,.75,4.49.15,2.17-1.65,4.09-2.77,5.79-.75,1.14,1.08,2.19,1.82,1.06a20.63,20.63,0,0,0,2.88-5.19c.62-2-.35-4.18-.58-6.15-.15-1.33-2.26-1.35-2.1,0Z"/><path d="M127.68,58.9c.16,3.61-3.31,5.61-6.49,6.09-1.33.2-.76,2.23.56,2,4.11-.62,8.22-3.61,8-8.12-.06-1.35-2.16-1.36-2.11,0Z"/><path d="M117.12,39c-.11-3.7,4.71-5.35,7.75-5.28a1.05,1.05,0,0,0,0-2.1c-4.22-.09-10,2.46-9.85,7.38,0,1.35,2.14,1.36,2.1,0Z"/><path d="M124.74,33.17c1,1.32.54,3.59.82,5.15.23,1.34,2.26.77,2-.56-.31-1.82.15-4.08-1-5.65-.8-1.07-2.63,0-1.81,1.06Z"/><path d="M128,44.5h14.21a1.05,1.05,0,0,0,0-2.1H128a1.05,1.05,0,0,0,0,2.1Z"/><path d="M129.35,65.36h2.32a1.06,1.06,0,0,0,0-2.11h-2.32a1.06,1.06,0,0,0,0,2.11Z"/><path d="M130,65.36h13.75a1.06,1.06,0,0,0,0-2.11H130a1.06,1.06,0,0,0,0,2.11Z"/><path d="M142.71,44.5A29.47,29.47,0,0,1,144.41,60c-.25,1.32,1.77,1.89,2,.56a31.48,31.48,0,0,0-1.7-16.63c-.46-1.26-2.49-.71-2,.56Z"/><path d="M144.06,61.68V62a1.05,1.05,0,0,0,2.1,0v-.31a1.05,1.05,0,0,0-2.1,0Z"/><path d="M143.7,43.52a2.56,2.56,0,0,1,1-1.17c1.19-.66.13-2.48-1.06-1.82a4.56,4.56,0,0,0-1.76,1.93c-.63,1.2,1.18,2.26,1.81,1.06Z"/><path d="M146,41.72h.61a1.05,1.05,0,0,0,0-2.1H146a1.05,1.05,0,0,0,0,2.1Z"/><path d="M149,41.72c4.28,0,8.55-.14,12.82-.15a1.06,1.06,0,0,0,0-2.11c-4.27,0-8.54.15-12.82.16a1.05,1.05,0,0,0,0,2.1Z"/><path d="M162.5,41.89c6.23,4.64,4.88,19.41-.52,24-1,.88.46,2.36,1.48,1.49,6.61-5.6,7.41-21.85.1-27.3-1.09-.81-2.13,1-1.06,1.82Z"/><path d="M162.26,65.93c-2.47.2-4.93.17-7.4.23s-5,.5-7.46.12c-1.33-.2-1.9,1.82-.56,2a32.41,32.41,0,0,0,7.1,0c2.77-.18,5.55-.06,8.32-.27,1.34-.11,1.35-2.21,0-2.11Z"/><path d="M146.5,65.26a1.67,1.67,0,0,1-1.56-1,1.06,1.06,0,0,0-1.44-.38,1.08,1.08,0,0,0-.38,1.44,3.74,3.74,0,0,0,3.38,2.06c1.36,0,1.35-2.06,0-2.1Z"/><path d="M112.74,67.11c-4,11.39-7.7,22.9-12.15,34.12-.5,1.27,1.54,1.81,2,.56,4.45-11.22,8.15-22.73,12.14-34.12.45-1.28-1.58-1.83-2-.56Z"/><path d="M102.25,37.26c.38,10.43,3.83,19.39,9.41,28.13.72,1.14,2.54.08,1.81-1.06-5.37-8.42-8.75-17-9.12-27.07,0-1.35-2.15-1.36-2.1,0Z"/><path d="M112.57,64.43h-7.83a1.05,1.05,0,0,0,0,2.1h7.83a1.05,1.05,0,0,0,0-2.1Z"/><path d="M103.31,65.4c-2.43,12.26-9.12,24.69-20.83,30.17-1.23.57-.16,2.38,1.06,1.81C95.7,91.69,102.81,78.7,105.34,66c.26-1.32-1.76-1.89-2-.56Z"/><path d="M96.22,73.53c-2.86,1-6.69-2.24-6.5-5.17.09-1.35-2-1.34-2.1,0-.28,4.25,5.06,8.59,9.16,7.19,1.27-.43.73-2.46-.56-2Z"/><path d="M97,44.79c.16.27.26.56.42.83l.62-1.55a6.73,6.73,0,0,1-5.57-1.34c-1.13-.75-2.18,1.07-1.06,1.82a8.79,8.79,0,0,0,7.19,1.55,1.06,1.06,0,0,0,.63-1.54c-.16-.27-.25-.56-.41-.83A1.05,1.05,0,0,0,97,44.79Z"/><path d="M96.58,45.83a6.33,6.33,0,0,0,4.66,2,1.05,1.05,0,0,0,0-2.1,4.19,4.19,0,0,1-3.17-1.34c-.89-1-2.37.47-1.49,1.49Z"/><path d="M95.65,45.7A3.91,3.91,0,0,0,98,49.49c1.2.63,2.26-1.18,1.06-1.81-.82-.43-1.46-1-1.33-2a1.06,1.06,0,0,0-1.05-1.05,1.09,1.09,0,0,0-1.06,1.05Z"/><path d="M93.8,45.29v1.44a1.05,1.05,0,0,0,2.1,0V45.29a1.05,1.05,0,0,0-2.1,0Z"/><path d="M93.2,46.14a1.06,1.06,0,0,0,0-2.11,1.06,1.06,0,0,0,0,2.11Z"/><path d="M101.87,30.12c3,10.18-13.34,10.41-19.73,12.91-5.45,2.12-9.53,5.94-11,11.66a1.05,1.05,0,0,0,2,.56c2.5-10,13.46-11.72,22.09-13.57,6.26-1.35,10.49-5.6,8.6-12.12a1.05,1.05,0,0,0-2,.56Z"/><path d="M103.73,27.37C103.37,15.48,88.82,8.84,78.48,9.18c-13.56.45-21.09,12.89-21.14,25.19a1.06,1.06,0,0,0,2.11,0c0-10.82,5.3-20,16.25-22.7,9.65-2.41,25.59,4.51,25.93,15.7,0,1.35,2.14,1.36,2.1,0Z"/><path d="M61.6,20.49a15.42,15.42,0,0,0-5.19-2c-1.33-.19-1.9,1.83-.56,2a13.46,13.46,0,0,1,4.69,1.75c1.18.66,2.24-1.16,1.06-1.82Z"/><path d="M54.77,18.8c-1.41,1.55-1.18,3.35-.93,5.28.17,1.32,2.28,1.34,2.1,0s-.61-2.78.31-3.79-.57-2.49-1.48-1.49Z"/><path d="M54.61,25.3a7.68,7.68,0,0,1,3.46,1.33,1.06,1.06,0,0,0,1.44-.37,1.08,1.08,0,0,0-.38-1.44,9,9,0,0,0-4-1.55c-1.32-.23-1.89,1.79-.56,2Z"/><path d="M57.76,18.85c-1.84-13.25-30-30.14-31.25-8.43-.46,8,3.45,14.76,4.33,22.5.5,4.35-.34,9-1.39,13.2-1.53,6.18-5.79,12.28-12,6.34-2.73-2.61-4.54-6.38-5.84-9.86a18.06,18.06,0,0,1-1-5.14,6.62,6.62,0,0,1,1.37-4.08,10.93,10.93,0,0,1,5-4.07,1,1,0,0,0,1.81,1.06c.16-.26.31-.52.46-.78a1.07,1.07,0,0,0-.37-1.43c-3.62-2.63-7.85,2.77-9.44,5.38-2.57,4.2.24,10.28,2.16,14.14,4.08,8.22,13.23,14,18.33,3.59C35.38,40,32,29.49,29.18,18.14c-1.24-5.06-1.4-13.65,4.46-16,3.07-1.25,6.89.53,9.55,2C48.7,7,54.84,13,55.73,19.41c.19,1.34,2.21.77,2-.56Z"/><path d="M18.56,28.07C12.43,21.87,7.42,35.54,6.7,39.68,5.1,48.89,10.68,58.1,19,61.9,25,64.66,33.89,65,38,59.1c2.43-3.46,2.57-8.61,3-12.65A66.41,66.41,0,0,0,41.31,36c-.13-2.94-2.2-9,2.33-10.08,1.32-.3.76-2.32-.56-2-3.88.88-4.63,4.16-4.27,7.81.79,8.08.86,16.65-1.69,24.45-3,9.09-16.51,5.35-21.89,1-4-3.21-6.11-8.32-6.62-13.27-.18-1.71,3.3-19.54,8.46-14.32a1.05,1.05,0,0,0,1.49-1.49Z"/><path d="M54.15,24c-4.39,4.49-9.26-3.56-14.41-.37-1.15.71-.1,2.53,1.06,1.81,2.68-1.66,5.47.74,8,1.77s5,.21,6.87-1.72c.94-1-.54-2.46-1.49-1.49Z"/><path d="M81.76,43.87c-3.24,1.58-4.77,5.18-4.85,8.63a1.05,1.05,0,0,0,2.1,0c.06-2.76,1.23-5.55,3.81-6.82,1.22-.59.15-2.4-1.06-1.81Z"/><path d="M77.34,52.07A3.11,3.11,0,0,1,76,51.9l.52.91V51.26a1.05,1.05,0,0,0-2.1,0v1.55a1,1,0,0,0,.52.91,5.7,5.7,0,0,0,2.38.45,1.05,1.05,0,0,0,0-2.1Z"/><path d="M71.25,54.08c-.88-4.81-1-11.13,2.82-14.74,1-.93-.5-2.41-1.49-1.49C68.16,42,68.2,49.09,69.22,54.63c.25,1.33,2.28.77,2-.55Z"/><path d="M57.76,34.27a48,48,0,0,0,.6,12.09,58.47,58.47,0,0,1,.71,8.76,17.05,17.05,0,0,1-.71,4.77Q48.88,66.52,50.55,58c.19-1.32-1.83-1.89-2-.56-.69,4.86,3.6,13.81,9.18,7.51,7.29-8.23,1.16-21.07,2.16-30.71.14-1.35-2-1.33-2.1,0Z"/><path d="M57.14,65.48c-.17,4.14-5.11,9.33-9,5.74-1-.91-2.49.57-1.49,1.49C52,77.6,59,71.53,59.24,65.48c0-1.36-2.05-1.35-2.1,0Z"/><path d="M53.55,76.17H51.7a1.05,1.05,0,0,0,0,2.1h1.85a1.05,1.05,0,0,0,0-2.1Z"/><path d="M66.1,68c0,7.5.31,16.27-6.59,21-1.11.76-.06,2.58,1.06,1.81C68.2,85.53,68.21,76.36,68.2,68a1.05,1.05,0,0,0-2.1,0Z"/><path d="M57.59,79.2c-1,2.33-3.94,2.11-5.92,1.54a1,1,0,0,0-.56,2c3.28.95,7.08.49,8.5-3,.52-1.25-1.52-1.79-2-.56Z"/><path d="M70.26,56.3c-2,3.18-2.34,6.94-3.92,10.29-.57,1.22,1.24,2.29,1.82,1.07,1.57-3.34,2-7.15,3.91-10.3.72-1.16-1.1-2.21-1.81-1.06Z"/><path d="M104.81,101.13C94.71,99,84.55,97,74.74,93.71c-1.29-.43-1.84,1.6-.56,2,9.82,3.29,20,5.24,30.07,7.41,1.33.29,1.89-1.74.56-2Z"/><path d="M108.65,109.74a150.51,150.51,0,0,1-43.8-4.08c-1.31-.33-1.87,1.7-.56,2a152.26,152.26,0,0,0,44.36,4.16c1.35-.07,1.36-2.17,0-2.1Z"/><path d="M58.78,90.07c-8.31,10.48-14.8,21.2-18.39,34.15-3.17,11.42-5.27,24.61-2.45,36.29.32,1.31,2.34.75,2-.56-2.64-11-.57-22.86,2-33.62,3.22-13.22,9.88-24.2,18.26-34.78.83-1-.64-2.54-1.49-1.48Z"/><path d="M74.18,120.69c-5.52.76-9.48,7.91-11.9,12.24-3.8,6.81-5.64,17.08-4.15,24.69.26,1.33,2.29.77,2-.56-1.31-6.64.46-15.67,3.32-21.87,2-4.28,6.14-11.77,11.26-12.47,1.34-.18.77-2.21-.56-2Z"/><path d="M58.78,158.14c-4.39,4.27-16,3-20.76.35-1.19-.65-2.25,1.16-1.06,1.82,5.8,3.21,18.1,4.38,23.31-.68,1-.95-.51-2.43-1.49-1.49Z"/><path d="M57.14,165.71c14.11,11.12,23.36,29.48,29.08,46.18.43,1.28,2.46.73,2-.55-5.84-17.07-15.19-35.74-29.62-47.12-1-.83-2.55.65-1.48,1.49Z"/><path d="M87.23,211.18c-22.6.26-45.28-1.06-66.77-8.61-1.28-.45-1.82,1.58-.55,2,21.66,7.6,44.54,8.94,67.32,8.69a1.06,1.06,0,0,0,0-2.11Z"/><path d="M18.83,203.89a13.14,13.14,0,0,0,2.77,7.74c.79,1.08,2.62,0,1.81-1.06a11.41,11.41,0,0,1-2.48-6.68,1.05,1.05,0,0,0-2.1,0Z"/><path d="M22.22,212.11c2.9,1.15,6.13,1.69,8.87,3.19,1.19.66,2.25-1.16,1.06-1.81-2.91-1.59-6.3-2.19-9.37-3.4-1.26-.5-1.8,1.53-.56,2Z"/><path d="M31.31,214c-5.86.57-11.73.62-17.61.62a1.05,1.05,0,0,0,0,2.1c5.88,0,11.75-.05,17.61-.61,1.33-.13,1.35-2.24,0-2.11Z"/><path d="M13.52,215.29c1.66-6.52-3.51-13-6.64-18.25a1,1,0,0,0-1.81,1.06c2.79,4.68,7.9,10.84,6.43,16.64a1,1,0,0,0,2,.55Z"/><path d="M7,197.15c1.91-2.45,4.41-4.2,6.82-6.11,1.07-.84-.43-2.32-1.48-1.49-2.42,1.91-4.91,3.66-6.83,6.11-.82,1.06.66,2.56,1.49,1.49Z"/><path d="M37.09,161.22c3.51,18.88,17.68,32.95,33.91,42,1.18.66,2.24-1.16,1.06-1.82-15.79-8.84-29.53-22.39-32.94-40.77-.25-1.33-2.27-.77-2,.55Z"/><path d="M68.08,200.37c-17.95-.71-39.38,1.17-54.26-10.82-1-.84-2.54.64-1.48,1.49,15.41,12.42,37.13,10.7,55.74,11.43,1.35.05,1.35-2.05,0-2.1Z"/><path d="M13.3,191c-1.23,5.24,2.32,11.76,7.53,13.34a1.05,1.05,0,0,0,.56-2c-4.08-1.23-7-6.64-6.06-10.76.31-1.31-1.72-1.87-2-.55Z"/><path d="M59.53,160.42c8.27-1.1,16.5-2.12,24.82-2.8,7.76-.63,16.23-1.2,23.49,2.11,1.23.55,2.3-1.26,1.07-1.82-6.65-3-13.92-3-21.08-2.63-9.49.48-18.89,1.78-28.3,3-1.33.17-1.34,2.28,0,2.1Z"/><path d="M107.32,158.82c0,6.77-.53,13.52-.51,20.29s-1.54,13.48-1.21,20.32c.07,1.34,2.17,1.35,2.1,0-.33-6.82,1.07-13.52,1.21-20.32s.54-13.53.52-20.29a1.06,1.06,0,0,0-2.11,0Z"/><path d="M67.15,174.18a126.94,126.94,0,0,0,28-2.83c1.32-.28.76-2.31-.56-2a124.87,124.87,0,0,1-27.47,2.75,1.05,1.05,0,0,0,0,2.1Z"/><path d="M94.07,170.94c4.66,7.73,4.62,19.56,3,28.21-.25,1.32,1.77,1.88,2,.55,1.73-9.18,1.77-21.56-3.2-29.82a1.05,1.05,0,0,0-1.82,1.06Z"/><path d="M105.82,200.11c-1.25,1.65-5.47,2.25-6.84.46-.81-1.06-2.64,0-1.81,1.06,2.4,3.15,8.19,2.56,10.46-.46.82-1.08-1-2.13-1.81-1.06Z"/><path d="M105.51,202.41c4,5.71,11.07,9.2,17.9,10.1,1.34.17,1.32-1.93,0-2.11-6-.78-12.53-4-16.09-9.06-.77-1.09-2.6,0-1.81,1.07Z"/><path d="M122.72,211.94c.17.46,0,.17.23-.1.1-.12-.23,0-.27,0-1.32.3-.76,2.32.56,2a1.84,1.84,0,0,0,1.51-2.53c-.46-1.27-2.49-.72-2,.56Z"/><path d="M122.48,212.56H96a1.05,1.05,0,0,0,0,2.1h26.44a1.05,1.05,0,0,0,0-2.1Z"/><path d="M96.09,202c-.16,3.62-.44,7.24-.46,10.86a1.05,1.05,0,0,0,2.1,0c0-3.62.3-7.24.47-10.86.06-1.35-2-1.35-2.11,0Z"/><path d="M74.59,110.71c1.29,1.66,3,9.46-.34,9.79-1.33.14-1.34,2.24,0,2.1,5.79-.58,4.31-10.18,1.83-13.38-.83-1.06-2.31.43-1.49,1.49Z"/><path d="M116,76.79a2.13,2.13,0,0,1,1.64,1.37,1.06,1.06,0,0,0,1.44.38,1.09,1.09,0,0,0,.38-1.44,4.08,4.08,0,0,0-2.9-2.34c-1.32-.3-1.88,1.73-.56,2Z"/><path d="M56.36,85.74c-2.34,2-6.37,1.87-7.92-1-.65-1.19-2.46-.13-1.82,1.06,2.23,4.14,7.9,4.34,11.23,1.45,1-.89-.47-2.37-1.49-1.49Z"/><path d="M65.62,86.88a12.29,12.29,0,0,1-6,4.62c-1.27.46-.72,2.49.56,2a14.68,14.68,0,0,0,7.27-5.58c.79-1.1-1-2.15-1.82-1.06Z"/><path d="M70.52,92c-2.67-.89-5.66-1.88-8.44-.93-1.27.44-.73,2.47.56,2,2.41-.82,5,.16,7.32.93,1.29.43,1.84-1.6.56-2Z"/></g></g></svg>