<svg xmlns="http://www.w3.org/2000/svg" viewBox="0 0 117.25 115.97"><defs><style>.cls-1{fill:#231f20;opacity:0.15;}.cls-2{fill:#00aff0;}.cls-3{fill:#fff;}</style></defs><title>Skype</title><g id="Слой_2" data-name="Слой 2"><g id="Design"><path class="cls-1" d="M61.5,91.94v24c30.64-.14,55.28-5.46,55.28-12s-24.64-11.88-55.28-12Z"/><path class="cls-2" d="M113.46,44c-1.13-1.73-2.28-5.88-3.48-6.47-6.69-14.15-19-25.94-34-31,6.53.39,9.32,4.16,13,6.33,10.61,5.71,18.65,15.62,23.18,25.61a56.56,56.56,0,0,0-6.82-11.26A44.75,44.75,0,0,1,113.46,44Zm1.71,12.75a40,40,0,0,1,.27,4.62c-.09-1.58-.18-3.11-.27-4.62ZM66,9.32a54.65,54.65,0,0,0-20.71,1c7.41-2,15.91-3.06,23.43-.94L66,9.32Zm9.48,3.23A39.31,39.31,0,0,1,92.37,23,43.68,43.68,0,0,0,75.46,12.55ZM22.35,16c.8-.66,1.6-1.28,2.4-1.87-.81.61-1.61,1.24-2.4,1.87Zm83.93,67.9a7.78,7.78,0,0,0-1.57,2.61c1.41-1.6,3.64-5.14,4.65-6.05l-.19,2c4.06-4.42,6.65-15.09,8.07-21.08-2.53,14.5-9.68,30.28-22.91,41.32-13,11.09-32.17,15.93-48.64,11.5A62.44,62.44,0,0,1,3.61,81.5C2,78.48.21,70.37.27,64.54A65.46,65.46,0,0,1,5,34C14.13,13.41,35.88.25,59.6,0c4.86.15,10.79,2.62-.41,2.82a72.44,72.44,0,0,0-21.31,5.4A57.06,57.06,0,0,1,52.46,4.38c-2.14.44-4.3.82-6.17,1.26A63.07,63.07,0,0,1,75.91,7.2a62.43,62.43,0,0,0-41.56,5.31C21.52,19.09,11.44,31,7.67,44.31,11,37.42,15.12,27.8,21,24A55.82,55.82,0,0,0,5.57,57.49c0-1-.09-1.89,0-2.83-1.85,7.88-.36,16.65,2.1,24.23a55.82,55.82,0,0,1-2-21.41c0,3.25.06,6.66.41,10.75.19-2.25.17-5.43.51-8.57a48.13,48.13,0,0,1,2-12.17,41.29,41.29,0,0,0-.73,18C7.56,57.13,9,48.44,12.56,40.88A51.33,51.33,0,0,0,9.13,54.1a50.66,50.66,0,0,0,1.26,23l-.29-.85A14.5,14.5,0,0,0,10.68,78a53.55,53.55,0,0,0,3.6,8.55A30.57,30.57,0,0,0,19.4,93L20.23,94c-.67-.56-1.14-.73-.17.64,4.2,6,11.06,10.09,18.14,14.3a25.55,25.55,0,0,0,7.8,2.74,2.73,2.73,0,0,0,1.69.33c.67.11,1.34.29,2,.36,1.66.22,3.32.48,5,.54-1.61-.19-3.28-.38-5-.54-.63-.08-1.22-.27-1.84-.39a4.46,4.46,0,0,1,1.84,0A54,54,0,0,1,20.23,94c.62.41,1.43,1,1.8,1.26A23.73,23.73,0,0,1,19.4,93a53.76,53.76,0,0,1-6.24-9.68,16.74,16.74,0,0,0,1.89,2.56A53.92,53.92,0,0,1,9.13,54.1,50.7,50.7,0,0,1,22.76,27.35a40,40,0,0,0-10.2,13.53c5.92-14.47,19.16-26.11,34.55-29.15a36.23,36.23,0,0,0-5.66,3.57,26.71,26.71,0,0,1,4.63-1.84l.84-.2a48.46,48.46,0,0,0-5.57,2.12,6.82,6.82,0,0,0-1.22,1.26c.26.29,4.78-1.06,2.3.13-8.56,4.86-14.49,9-15.16,13.74,0,.07.12.07.33,0A44.51,44.51,0,0,1,106.36,59a45.81,45.81,0,0,1-.39,5.82c.27-.7.54-1.37.82-2.21.26,8.34-3.8,16.94-7,24.21,6.39-7.3,8.67-20.65,10.7-22,2.92-1.29-1.32,14.1-5.58,20.76l1.34-1.67ZM32.79,10.61l0,.08c.75-.42,1.5-.8,2.26-1.17-.74.36-1.48.71-2.21,1.09.66-1.06,4.76-2.74,6.57-3.81a48.25,48.25,0,0,0-14.6,7.33A58.63,58.63,0,0,1,32.2,9.28,57.62,57.62,0,0,0,8.26,33.59c-1.89,4-5.86,6.94-5.85,13.76A62,62,0,0,1,32.79,10.61ZM27.45,87.69l.17-.22c-.52-.63-1-1.27-1.52-1.92a11.12,11.12,0,0,1,.6,1.79,16.74,16.74,0,0,1,1.89,1.39,5.78,5.78,0,0,0-1.14-1Zm23.35,14.45.28.19.43,0-.71-.16Zm6.85,1.18,2,.42a3,3,0,0,0,.53-.26c-.83,0-1.67-.08-2.49-.16ZM69.07,13a48.36,48.36,0,0,1,12.52,3.92A39.59,39.59,0,0,1,94.16,27.28,50,50,0,0,0,69.07,13Z"/><path class="cls-3" d="M82.14,69a26.65,26.65,0,0,0,.6-5.59A26.11,26.11,0,0,0,52.21,37.75,15.11,15.11,0,0,0,31.13,58.2,26.11,26.11,0,0,0,56.68,89.51a27.1,27.1,0,0,0,4.77-.44,15,15,0,0,0,7.15,1.81A15.13,15.13,0,0,0,82.14,69ZM70,75.9a11.89,11.89,0,0,1-5.3,4,21.09,21.09,0,0,1-8.14,1.43,20.06,20.06,0,0,1-9.33-1.94A12.35,12.35,0,0,1,43,75.58a8.3,8.3,0,0,1-1.67-4.71,3.27,3.27,0,0,1,1.08-2.47,3.83,3.83,0,0,1,2.72-1,3.4,3.4,0,0,1,2.3.8,6,6,0,0,1,1.53,2.22,12.66,12.66,0,0,0,1.5,2.65,5.82,5.82,0,0,0,2.19,1.71,9.23,9.23,0,0,0,3.78.67,9.25,9.25,0,0,0,5.26-1.36,3.84,3.84,0,0,0,1.93-3.26,3.21,3.21,0,0,0-1-2.48,7.08,7.08,0,0,0-2.79-1.53c-1.18-.38-2.79-.77-4.78-1.19a39.53,39.53,0,0,1-6.84-2,11.28,11.28,0,0,1-4.47-3.27A8.19,8.19,0,0,1,42,55.09a8.48,8.48,0,0,1,1.77-5.28,11,11,0,0,1,5.06-3.5,22.18,22.18,0,0,1,7.65-1.22,20.71,20.71,0,0,1,6.09.8,13.37,13.37,0,0,1,4.3,2.17,9,9,0,0,1,2.53,2.85,6.25,6.25,0,0,1,.82,3,3.78,3.78,0,0,1-3.76,3.65,3.35,3.35,0,0,1-2.24-.71,8.54,8.54,0,0,1-1.56-2.06,8.66,8.66,0,0,0-2.34-2.91,7.34,7.34,0,0,0-4.36-1,8.18,8.18,0,0,0-4.52,1.1,3,3,0,0,0-1.62,2.5,2.26,2.26,0,0,0,.52,1.51,4.39,4.39,0,0,0,1.56,1.19A10.18,10.18,0,0,0,54,58c.72.21,1.95.5,3.61.89a56.35,56.35,0,0,1,5.76,1.51,18.93,18.93,0,0,1,4.45,2,8.8,8.8,0,0,1,2.94,3.11,9.3,9.3,0,0,1,1.06,4.6A9.81,9.81,0,0,1,70,75.9Z"/></g></g></svg>