<svg xmlns="http://www.w3.org/2000/svg" viewBox="0 0 117.25 115.97"><defs><style>.cls-1{fill:#231f20;opacity:0.15;}.cls-2{fill:#2ab200;}.cls-3{fill:#fff;}</style></defs><title>What`sUp</title><g id="Слой_2" data-name="Слой 2"><g id="Design"><path class="cls-1" d="M61.8,91.94v24c30.64-.14,55.28-5.46,55.28-12s-24.64-11.87-55.28-12Z"/><path class="cls-2" d="M113.46,44c-1.13-1.73-2.28-5.88-3.48-6.47-6.69-14.15-19-25.94-34-31,6.53.39,9.32,4.16,13,6.33,10.61,5.71,18.65,15.62,23.18,25.61a56.53,56.53,0,0,0-6.82-11.26,44.75,44.75,0,0,1,8.2,16.8Zm1.71,12.75a39.23,39.23,0,0,1,.27,4.62c-.09-1.58-.18-3.11-.27-4.62ZM66,9.32a54.7,54.7,0,0,0-20.71,1c7.42-2,15.91-3.06,23.43-.94L66,9.32Zm9.48,3.23A39.32,39.32,0,0,1,92.37,23,43.69,43.69,0,0,0,75.46,12.55ZM22.35,16c.8-.66,1.6-1.28,2.4-1.88-.81.61-1.61,1.24-2.4,1.88Zm83.93,67.9a7.8,7.8,0,0,0-1.56,2.61c1.41-1.6,3.64-5.14,4.65-6l-.2,2c4.06-4.42,6.65-15.09,8.07-21.07-2.53,14.49-9.67,30.28-22.91,41.31-13,11.09-32.17,15.93-48.64,11.5A62.44,62.44,0,0,1,3.61,81.5C2,78.48.21,70.37.27,64.54A65.44,65.44,0,0,1,5,34C14.13,13.41,35.88.25,59.6,0c4.86.15,10.79,2.62-.41,2.82a72.37,72.37,0,0,0-21.31,5.4A56.94,56.94,0,0,1,52.46,4.38c-2.14.43-4.3.82-6.17,1.25A63.07,63.07,0,0,1,75.91,7.2a62.41,62.41,0,0,0-41.56,5.31C21.52,19.09,11.44,31,7.67,44.31,11,37.42,15.12,27.8,21,24A55.82,55.82,0,0,0,5.57,57.48c0-1-.09-1.89,0-2.83-1.85,7.88-.36,16.65,2.1,24.23a55.77,55.77,0,0,1-2-21.41c0,3.25.06,6.66.41,10.75.19-2.25.17-5.43.51-8.57a48.07,48.07,0,0,1,2-12.17,41.3,41.3,0,0,0-.74,18C7.56,57.13,9,48.44,12.56,40.88A51.35,51.35,0,0,0,9.13,54.1a50.65,50.65,0,0,0,1.26,23l-.29-.85a14.39,14.39,0,0,0,.58,1.69,53.71,53.71,0,0,0,3.6,8.55A30.65,30.65,0,0,0,19.4,93L20.23,94c-.67-.56-1.14-.73-.17.64,4.2,6,11.06,10.09,18.14,14.3a25.44,25.44,0,0,0,7.8,2.74,2.73,2.73,0,0,0,1.69.33c.67.11,1.34.29,2,.36,1.66.22,3.32.49,5,.54-1.61-.19-3.28-.38-5-.54-.63-.08-1.22-.27-1.84-.39a4.44,4.44,0,0,1,1.84,0A54.06,54.06,0,0,1,20.23,94c.62.41,1.43,1,1.8,1.26A23.81,23.81,0,0,1,19.4,93a53.85,53.85,0,0,1-6.24-9.69,16.74,16.74,0,0,0,1.89,2.56A53.91,53.91,0,0,1,9.13,54.1,50.69,50.69,0,0,1,22.76,27.35a40,40,0,0,0-10.2,13.53c5.92-14.47,19.16-26.11,34.55-29.15a36,36,0,0,0-5.66,3.57,26.72,26.72,0,0,1,4.63-1.84l.84-.2a48.27,48.27,0,0,0-5.57,2.12,6.81,6.81,0,0,0-1.22,1.26c.26.29,4.78-1.06,2.3.13-8.57,4.86-14.49,9-15.16,13.73,0,.07.12.08.33,0A44.51,44.51,0,0,1,106.36,59a45.9,45.9,0,0,1-.39,5.82c.27-.7.55-1.37.82-2.21.26,8.34-3.8,16.94-7,24.21,6.39-7.3,8.67-20.65,10.7-22,2.92-1.29-1.32,14.09-5.58,20.76l1.34-1.67ZM32.79,10.61l0,.08c.75-.42,1.5-.8,2.26-1.17-.75.35-1.48.71-2.21,1.09.66-1.06,4.76-2.74,6.57-3.81a48.28,48.28,0,0,0-14.6,7.33A58.44,58.44,0,0,1,32.2,9.28,57.63,57.63,0,0,0,8.26,33.59c-1.89,4-5.86,6.94-5.85,13.76A62,62,0,0,1,32.79,10.61ZM27.45,87.69l.17-.22c-.52-.63-1-1.27-1.52-1.92a11.11,11.11,0,0,1,.6,1.79,16.33,16.33,0,0,1,1.89,1.38,5.75,5.75,0,0,0-1.14-1Zm23.36,14.44.28.2.43,0-.71-.17Zm6.85,1.18,2,.42a3,3,0,0,0,.53-.26c-.83,0-1.67-.08-2.49-.16ZM69.07,13a48.38,48.38,0,0,1,12.52,3.92A39.57,39.57,0,0,1,94.16,27.28,50,50,0,0,0,69.07,13Z"/><path class="cls-3" d="M59.71,87a27.86,27.86,0,0,1-13.12-3.27L31.17,87.92l4.51-14.6A27.95,27.95,0,1,1,59.71,87Zm0-51.33a23.39,23.39,0,0,0-19,36.95L38,81.35l8.93-2.42.33-.09A23.38,23.38,0,1,0,59.71,35.68ZM73.94,66.35c-.15,1.07-.53,5.19-6.26,5.63,0,0-5.54.19-11.75-4.61A33.46,33.46,0,0,1,47.78,58l-.29-.51a10.55,10.55,0,0,1-1.29-5c0-.19,0-.39,0-.61a6,6,0,0,1,3.69-5.36s2.28-.34,2.67,0l2.53,5.68a2.06,2.06,0,0,1,0,2.28c-.83,1-1.5,1.79-1.5,1.79s-.73.53,0,1.6,3.73,5.68,8.92,7.72a1.72,1.72,0,0,0,2.29-.87l1.65-2.13s.39-.54,1.65,0S73.35,65,73.35,65s.72.24.58,1.31Z"/></g></g></svg>