<?xml version="1.0" encoding="utf-8"?>

<!DOCTYPE svg PUBLIC "-//W3C//DTD SVG 1.1//EN" "http://www.w3.org/Graphics/SVG/1.1/DTD/svg11.dtd">
<svg version="1.1" id="Layer_1" xmlns="http://www.w3.org/2000/svg" xmlns:xlink="http://www.w3.org/1999/xlink" x="0px" y="0px"
	 viewBox="-65 -32.6354 2050 1029.2709" enable-background="new -65 -32.6354 2050 1029.2709" xml:space="preserve">
<g id="XMLID_1_">
	<path fill="#FFFFFF" d="M27.82,738.8148c-7.56,3.31-16.99,0.77-22.26-5.45c-1.99-2.35-3.04-5.29-4.75-7.81l-0.57-0.2
		c1.17-3.73-0.09-7.85,1.65-11.47c2.86-8.63,12.15-14.21,21.09-13.22c9.69,1.2,17.36,10.57,17.11,20.25
		C40.05,728.6248,34.92,735.8948,27.82,738.8148z"/>
	<path fill="#FFFFFF" d="M480.18,447.0948c8.77-2.38,18.58-0.76,25.94,4.63c8.79,5.9,14.1,16.66,13.35,27.23
		c-0.02,1.66-0.24,3.28-0.61,4.86c-1.1,4.75-3.53,9.17-6.06,13.32l-2.66,2.67c-5.67,4.01-12.02,7.49-19.1,7.88
		c-12,1.22-24.13-5.52-29.89-16.02c-4.68-8.31-4.99-18.88-0.96-27.51C463.97,455.9448,471.45,449.5048,480.18,447.0948z"/>
	<path fill="#FFFFFF" d="M1833.59,686.3348c7.3201,6.21,9.38,17.98,3.91,26.04c-3.97,6.53-11.97,10.17-19.5,8.96
		c-9.3199-1.19-16.9-10.03-16.7-19.4c-0.17-8.89,6.48-17.27,15.0699-19.38C1822.27,681.3047,1828.86,682.4247,1833.59,686.3348z"/>
	<path d="M1780.61,440.3047c7.1901,8.29,6.87,22.44-1.28,29.98c-4.01,3.87-10.62,4.67-15.33,1.65
		c-12.1899-7.84-11.45-29.91,2.3199-35.67C1771.33,434.3348,1777.21,436.2648,1780.61,440.3047z"/>
	<path fill="#FFFFFF" d="M1782.71,391.7848c-8.2799,2.41-17.4099,4.25-25.76,1.17c-4.25-1.47-7.22-5.17-9.08-9.12
		c14.73,4.3,30.1,1.89,45.12,1.36c14.16,8.72,24.38,23.11,30,38.63c-5.48,3.1-12.0699,5.1-18.3,3.3
		c-6.6399-2.26-10.48-9.39-10.4399-16.15c-0.29-3.72,1-7.3,1.15-10.96c-3.03-2.83-6.02-5.7-9.15-8.39
		C1785.24,390.6748,1783.8199,391.7048,1782.71,391.7848z"/>
	<path fill="#FFFFFF" d="M1749.84,375.2148c-1.89,0.35-3.72,0.87-5.5399,1.42c-0.4501-1.4-0.88-2.79-1.28-4.18
		c1.5499-0.29,3.16-0.86,4.7999-0.66C1748.62,372.8348,1749.2,374.0448,1749.84,375.2148z"/>
	<path fill="#FFFFFF" d="M1793.11,652.5547c-1.63,1.66-3.7999,2.59-5.77,3.74c-5.77,3.27-11.48,6.66-17.2899,9.86
		c0.9099,9,2.88,17.85,3.9299,26.84c-6.85-5.83-13.35-12.05-20.09-18c-8.03,3.91-15.88,8.2-23.96,11.99
		c3.0299-8.22,7.1799-15.98,10.46-24.1c-1.12-2.68-3.98-4.31-5.83-6.53c-4.15-4.47-9.01-8.3199-12.6801-13.2
		c8.96,0.84,17.89,2.17,26.89,2.65c3-6.54,6.5-12.84,9.7-19.29c0.74-1.36,1.23-3.11,2.85-3.7c1.5601,8.56,3.5701,17.03,5.25,25.57
		C1775.41,649.7648,1784.24,651.2648,1793.11,652.5547z"/>
	<path d="M1718.78,452.2648c-14.5901-6.2-14.35-31.24,0.58-36.87c4.96-1.81,10.59,0.35,13.91,4.25
		c6.9299,8.01,6.77,21.31-0.46,29.08C1729.35,452.5247,1723.62,454.2348,1718.78,452.2648z"/>
	<path d="M1711.6899,475.2148c-1.6899-2.62-3.7-5.31-3.8099-8.54c1.46-1.06,2.78,0.76,3.92,1.49c7.5699,7.09,13.7,15.61,21.48,22.49
		c6.59,5.91,15.89,9.51,24.73,7.43c6.4299-1.3,11.8-5.29,16.73-9.4c3.52-2.65,6.36-6.33,10.6-7.93c0.49,2.9-1.36,5.37-2.9099,7.61
		c-5.3,6.96-13.4901,11.98-22.3301,12.43c-7.6699,0.64-15.2-1.72-22.11-4.83
		C1727.8101,491.1748,1718.22,484.4948,1711.6899,475.2148z"/>
	<path fill="#FFFFFF" d="M1779.33,470.2848c8.15-7.54,8.4701-21.69,1.28-29.98c-3.4-4.04-9.28-5.97-14.29-4.04
		c-13.7699,5.76-14.5099,27.83-2.3199,35.67C1768.71,474.9548,1775.3199,474.1548,1779.33,470.2848z M1708.04,387.9548
		c1.4299-2.59,4.26-3.83,6.6499-5.36c3.28-1.84,6.51-4.08,10.3201-4.64c3.13-0.55,6.26-1.17,9.34-2.04
		c-0.9399,6.76-0.58,13.9,2.52,20.09c3.51,7.7,10.96,13.38,19.26,14.92c7.62,1.33,15.4301,0.46,22.91-1.27
		c0.2899,8.86,3.52,17.98,10.34,23.91c5.73,5.21,13.71,7.75,21.41,6.84c4.47-0.3,8.61-2.09,12.83-3.45
		c0.9401,1.74,2.42,3.23,3.05,5.13c1.4299,17.66-3.8501,35.78-14.5901,49.87c-10.1,13.52-24.8999,23.48-41.2899,27.55
		c-17.8401,4.46-37.4601,2.33-53.53-6.78c-15.83-8.36-28.3101-22.73-34.5-39.51c-9.5601-24.83-4.48-54.73,13.1899-74.71
		c1.5601,0.5,3.16,0.97,4.78,1.4C1703.15,395.9148,1705.61,391.9448,1708.04,387.9548z M1719.36,415.3948
		c-14.9299,5.63-15.17,30.67-0.58,36.87c4.84,1.97,10.5699,0.26,14.03-3.54c7.23-7.77,7.3899-21.07,0.46-29.08
		C1729.95,415.7448,1724.3199,413.5848,1719.36,415.3948z M1707.88,466.6748c0.11,3.23,2.12,5.92,3.8099,8.54
		c6.53,9.28,16.1201,15.96,26.3,20.75c6.91,3.11,14.4401,5.47,22.11,4.83c8.84-0.45,17.03-5.47,22.3301-12.43
		c1.5499-2.24,3.3999-4.71,2.9099-7.61c-4.24,1.6-7.08,5.28-10.6,7.93c-4.9299,4.11-10.3,8.1-16.73,9.4
		c-8.84,2.08-18.14-1.52-24.73-7.43c-7.78-6.88-13.91-15.4-21.48-22.49C1710.66,467.4348,1709.34,465.6148,1707.88,466.6748z"/>
	<path d="M1744.3,376.6348c1.8199-0.55,3.6499-1.07,5.5399-1.42c-0.64-1.17-1.22-2.38-2.02-3.42c-1.6399-0.2-3.25,0.37-4.7999,0.66
		C1743.42,373.8448,1743.85,375.2348,1744.3,376.6348z M1840.75,431.7048c1.86-2.61,0.52-5.83,0.5601-8.73
		c0.1599-4.93-2.39-9.39-4.8201-13.5c-3.89-0.98-7.96-1.51-11.48-3.57c-9.04-4.6-14.8101-13.22-21.9401-20.08
		c-1.0399-1.13-2.5699-1.43-3.9399-1.82c5.41,5.19,11.71,9.58,16.04,15.83c6.0599,7.58,10.25,16.44,13.1499,25.66
		c1.3601,0.65,2.75,1.31,4.16,1.95c0.3201,2.38,0.1801,5.19,2.05,7C1836.99,435.8948,1839.6,433.8748,1840.75,431.7048z
		 M1756.95,392.9548c8.3501,3.08,17.4801,1.24,25.76-1.17c1.11-0.08,2.53-1.11,3.54-0.16c3.13,2.69,6.12,5.56,9.15,8.39
		c-0.15,3.66-1.4401,7.24-1.15,10.96c-0.04,6.76,3.8,13.89,10.4399,16.15c6.2301,1.8,12.8201-0.2,18.3-3.3
		c-5.62-15.52-15.84-29.91-30-38.63c-15.02,0.53-30.39,2.94-45.12-1.36C1749.73,387.7848,1752.7,391.4848,1756.95,392.9548z
		 M1720.6899,354.1248c-10.74-3.52-19.86-10.67-30.5699-14.26c-2.51-0.54-5.4399-2.09-7.84-0.71c-3.1,6.47,0.13,13.53,0.4399,20.21
		c-3.65,0.33-7.25,1.07-10.89,1.35c-1.5499-1.51-1.2799-3.99-1.9299-5.93c-5.24,0.18-9.73,3.29-13.88,6.17
		c-6.1801,4.8-11.98,10.47-15.4501,17.58c-1.2899,2.66-2.23,6.33,0.0901,8.72c2.7,2.81,6.8099,3.17,10.35,4.31
		c-0.14,0.16-0.29,0.31-0.45,0.45c-2.2301,1.91-5.6201,1.12-8.28,0.7c-4.72-0.8-8.6-4.89-8.64-9.76c-0.23-8.77,5.2-16.4,10.52-22.9
		c6.49-6.96,14.0599-14.14,23.83-15.7c0.72-5.29,1.0601-11.3,5.34-15.11c4.6901-4.89,12.0701-4.73,18.25-3.66
		c11.4501,2.47,21.49,8.84,32.38,12.83c6.04-0.49,11.8201-3.31,18.02-2.89c7.35-0.25,14.5,4.28,17.49,10.99
		c2.78,6.38,2.5801,13.5,3.9401,20.22c0.51,3.66,4.99,4.23,7.98,3.87c10.41-1.89,20.95-4.21,31.61-3.29
		c6.7,0.71,11.76,5.78,15.89,10.68c4.41,5.2,8.27,11.31,14.5,14.53c6.11,3,13.3099,1,19.59,3.5c4.5,1.51,7.89,6.08,7.51,10.9
		c-0.37,6.15-5.5599,10.83-5.71,17.01c0.21,4.21,4.0399,6.73,6.7,9.51c4.26,4.39,9.22,8.46,15.3201,9.87
		c3.7,0.59,6.3199,4.66,4.6699,8.21c-2.9,5.83-5.86,11.65-7.88,17.86c-2.11,6.51-5.39,13.16-4.1,20.19
		c0.92,5.51,5.9,9.22,10.9401,10.83c7,2.66,14.5599,1.71,21.84,2.41c-1.98,2.38-5.3201,2.48-8.1,3.21
		c-8.89,1.5-18.9601,0.77-26.24-5.05c-6.1801-4.99-7.9501-13.6-6.76-21.13c1.49-9.23,4.37-18.19,7.51-26.98
		c-8.01-3.15-14.6001-8.91-20.8301-14.68c-1.52,0.45-2.24,2.2-3.46,3.12c-3.49,3.32-8.65,4.06-13.1901,2.89
		c0.77,18.82-5.51,37.87-17.51,52.4c-9.7699,11.79-22.9099,21.06-37.7,25.27c-20.88,6.5-44.5699,3.79-63.1799-7.79
		c-12.5601-7.84-23.15-19.04-29.6201-32.41c-10-20.49-10.36-45.47-0.6699-66.15c2.76-6.36,6.9199-11.92,10.95-17.5
		c-5.5-2.06-11.63-2.59-17.46-2.1c-8.83,0.78-16.24,7.25-19.95,15.03c-3.9601,8.77-5.26,18.47-5.64,28
		c-0.36,13.52,1.48,27.1,5.5499,40c1.5801,4.45,2.98,9.21,6.15,12.83c1.26,1.59,3.37,1.41,5.21,1.56
		c-1.14,3.29-5.5199,2.77-7.76,0.99c-6.21-4.56-9.13-11.99-12.09-18.82c-6.1799-16.37-9.03-34.12-7.5599-51.6
		c1.1899-11.49,4.76-23.37,12.83-31.91c0.53-0.57,1.09-1.12,1.67-1.66c8.7999-8.22,21.47-10.78,33.1799-9.77
		c0.37-8.61,8.22-14.63,16.24-15.8c10.8-1.62,22.4301-1.02,32.3401,3.97c1.6799,0.76,3.6399,0.8,5.1899,1.96
		c1.79,1.45,4.11,0.39,6.1901,0.41c-1.4601-5.09-2.2101-10.33-3.3501-15.49c-0.5599-1.1-0.6699-3.1-2.23-3.14
		C1734.8199,351.8248,1727.87,356.0448,1720.6899,354.1248z M1707.4,384.8148c2.89-1.17,5.53-2.92,7.9199-4.93
		c-3.24,0.16-6.35,1.05-9.38,2.09C1706.41,382.9148,1706.89,383.8648,1707.4,384.8148z M1714.6899,382.5948
		c-2.3899,1.53-5.22,2.77-6.6499,5.36c-2.4301,3.99-4.89,7.96-7.3101,11.95c-1.62-0.43-3.22-0.9-4.78-1.4
		c-17.6699,19.98-22.75,49.88-13.1899,74.71c6.1899,16.78,18.67,31.15,34.5,39.51c16.0699,9.11,35.6899,11.24,53.53,6.78
		c16.39-4.07,31.1899-14.03,41.2899-27.55c10.74-14.09,16.02-32.21,14.5901-49.87c-0.63-1.9-2.11-3.39-3.05-5.13
		c-4.22,1.36-8.36,3.15-12.83,3.45c-7.7001,0.91-15.6801-1.63-21.41-6.84c-6.8199-5.93-10.05-15.05-10.34-23.91
		c-7.48,1.73-15.29,2.6-22.91,1.27c-8.3-1.54-15.75-7.22-19.26-14.92c-3.1-6.19-3.46-13.33-2.52-20.09
		c-3.08,0.87-6.21,1.49-9.34,2.04C1721.2,378.5148,1717.97,380.7548,1714.6899,382.5948z"/>
	<path fill="#FFFFFF" d="M1569.58,609.4548c-8.9299-3.53-16.0399-11.42-18.5599-20.69c-2.14-7.64-1.29-16.1,2.51-23.08
		c0.27-0.56,0.5599-1.11,0.87-1.65c2.75-4.7401,7.0699-8.35,12.02-10.75c3.4199-1.67,7.1499-2.76,10.85-3.23
		c13.74-1.93,28.03,6.81,32.76,19.83c4.12,11.12,1.39,24.57-7.3101,32.78C1594.26,611.1948,1580.72,613.9348,1569.58,609.4548z"/>
	<path d="M1844.11,670.9348c9.55-7.72,18.88-15.72,28.36-23.53c5.92-5.18,12.36-9.79,17.9601-15.33
		c-30.92-12.44-61.8401-24.94-92.79-37.27c3.1799,6.72,7.54,12.83,11.26,19.28C1820.5,633.1147,1832.25,652.0547,1844.11,670.9348z
		 M1837.5,712.3748c5.47-8.06,3.41-19.83-3.91-26.04c-4.73-3.91-11.3199-5.03-17.22-3.78c-8.59,2.11-15.24,10.49-15.0699,19.38
		c-0.2001,9.37,7.38,18.21,16.7,19.4C1825.53,722.5447,1833.53,718.9048,1837.5,712.3748z M1721.88,643.1548
		c3.67,4.88,8.53,8.73,12.6801,13.2c1.85,2.22,4.71,3.85,5.83,6.53c-3.28,8.12-7.4301,15.88-10.46,24.1
		c8.08-3.79,15.9299-8.08,23.96-11.99c6.74,5.95,13.24,12.17,20.09,18c-1.0499-8.99-3.02-17.84-3.9299-26.84
		c5.8099-3.2,11.5199-6.59,17.2899-9.86c1.9701-1.15,4.14-2.08,5.77-3.74c-8.87-1.29-17.7-2.79-26.54-4.17
		c-1.6799-8.54-3.6899-17.01-5.25-25.57c-1.62,0.59-2.11,2.34-2.85,3.7c-3.2,6.45-6.7,12.75-9.7,19.29
		C1739.77,645.3248,1730.84,643.9948,1721.88,643.1548z M1725.23,718.9247c-7.6,23.4-15.2,46.81-22.86,70.2
		c-4.67,14.93-9.98,29.69-14.33,44.71c13.37,17.83,27.6899,35.01,41.36,52.65c2.3199,4.28,8.14,1.55,11.47,4.52
		c3.62,2.37,3.46,7.33,2.28,11.01c-1.9,5.54-5.5801,10.27-9.5701,14.47c-6.6499,6.95-14.6599,12.54-23.3199,16.67
		c-6.33,2.83-13.2,5.2599-20.23,4.52c-3.39-0.32-7.11-2.29-7.8301-5.88c-1.13-5.93,2.2101-11.48,5.55-16.09
		c8.23-10.65,19.59-18.66,31.97-23.8c-13.1799-17.01-26.65-33.81-40.0499-50.65c-2.5-2.65-3.7101-6.64-2.39-10.13
		c11.74-35.87,23.33-71.8,35.11-107.66c0.6799-2.15,1.29-4.33,1.84-6.52c-16.53-2.31-32.99-5.1-49.51-7.43
		c20.86-33.54,40.02-68.1,59.41-102.51c3.02-5.69,6.53-11.13,9.16-17.02c-24.6001,13.37-49.37,26.48-73.5,40.68
		c-1.02-0.1299-1.99-0.33-2.9401-0.61c-1.64,0.72-3.25,1.49-4.83,2.27c-15.4-10.02-30.42-20.67-46.01-30.36
		c-4.24,3.58-8.4301,7.49-13.88,9.13c-10.8101,3.7599-23.64,1.62-32.1801-6.14c-8.47-7.16-12.35-18.96-10.47-29.8
		c0.61-4.12,2.52-7.77,4.59-11.31l0.3301,0.19c-0.3101,0.54-0.6,1.09-0.87,1.65c-3.8,6.98-4.65,15.44-2.51,23.08
		c2.52,9.27,9.63,17.16,18.5599,20.69c11.14,4.48,24.6801,1.74,33.14-6.79c8.7001-8.21,11.4301-21.66,7.3101-32.78
		c-4.73-13.02-19.02-21.76-32.76-19.83c-3.7001,0.47-7.4301,1.56-10.85,3.23l-0.5801-1.19c0.2101-0.08,0.4301-0.22,0.64-0.4
		c8.9301-4.77,20.09-4.88,29.16-0.4c7.79,3.97,13.98,11.1,16.6,19.47c2.1801,6.6,1.62,13.74-0.2,20.35
		c-0.6801,1.43,1.0399,2.15,1.9299,2.87c8.24,5.4,16.4301,10.89,24.62,16.36c5.51,3.38,10.55,7.6,16.3301,10.5
		c28.5699-16.69,58.08-31.76,86.7799-48.23c2.4801-1.2,3.55-3.86,4.8401-6.12c3.33-6.36,6.8099-12.65,10.14-19
		c2.83-5.8,6.48-11.31,7.8099-17.71c-0.13,2.5699-0.24,5.23,1.01,7.59c3.85,8.86,8.6,17.31,13.3,25.75
		c2.99,5.03,5.5299,10.35,8.8899,15.15c10.42,5.25,21.52,9.15,32.27,13.73c24.17,9.9,48.5,19.42,72.6901,29.27
		c3.91,1.86,8.41,2.82,11.78,5.65c0.22,2.66,0,5.34-0.05,8.02c-18.1,15.11-36.2,30.22-54.36,45.26
		c13.08,21.35,26.8099,42.31,40,63.6c-26.48-3.78-52.87-8.15-79.34-11.98c5.6,34.24,12.0499,68.35,18.0299,102.53
		c22.7201,12.61,45.55,25,68.3301,37.51c4.96,2.34,9.38,6.13,14.8999,7.12c3.63,0.27,7.28,2.36,8.0601,6.18v4.36
		c-1.47,6.13-5.27,11.37-9.48,15.92c-7.77,8.32-17.42,14.86-27.98,19.09c-5.42,2.08-11.3,3.67-17.12,2.75
		c-3.4501-0.51-6.87-3.02-7.1801-6.69c-0.6-5.53,2.4401-10.57,5.53-14.88c7.6799-10.13,18.26-17.81,29.76-23.08
		c-23.38-13.55-47.39-26.04-70.98-39.22c-2.3301-1.42-3.99-3.89-4.39-6.58c-6.15-34.52-12.4401-69.03-18.3401-103.6
		c-0.37-1.47-0.3899-3.68-2.45-3.48C1773.33,726.1548,1749.33,722.1147,1725.23,718.9247z"/>
	<path d="M1507.1801,885.5848c7.59,2.99,15.3999,7.16,19.6899,14.4c2.95,4.86,2.36,11.32-1.0699,15.78
		c-5.65,7.6-14.74,11.55-23.49,14.38c-17.0601,5.11-35.3101,5.71-52.8401,2.91c-10.13-1.84-20.3199-4.86-28.88-10.75
		c-5.02-3.58-9.8199-8.85-9.7799-15.38c0.0099-6.3,4.5499-11.33,9.3199-14.86c8.9-6.39,19.7-9.37,30.35-11.26
		C1469.38,878.0348,1489.16,878.9147,1507.1801,885.5848z"/>
	<path d="M1462.67,873.2748c-21.13,3.88-42.4701,6.73-63.6901,10.2c-10.4,1.6-20.78,3.33-31.2,4.8
		c-22.5801-97.93-44.87-195.93-67.29-293.9c-1.45-5.57-2.22-11.33-4.11-16.76c-7.79-1.02-15.58-2.16-23.41-2.78
		c-13.6699,107.53-27.58,215.03-41.4199,322.54c-36.4501,0.65-72.89,1.91-109.3201,2.82c0.51-8.49,2.3201-16.85,3.4401-25.28
		c19.4199-129.72,39.0499-259.4,58.34-389.14c52.33,1.52,104.66,3.45,157,5c8.96,0.6,17.97,0.33,26.9399,1.01
		c21.64,88.01,43.66,175.93,65.4301,263.91C1443.16,794.8848,1452.75,834.1248,1462.67,873.2748z"/>
	<path d="M1299.2999,158.2048c-3.0801,4.6899-9.0898,7.7-14.6599,6.03c-6.6902-1.9301-10.78-8.7001-11.5901-15.3101
		c-1.27-8.28,2.1299-18.21,10.29-21.65c5.02-2.11,11.05-0.2799,14.53,3.78
		C1304.2899,138.4048,1304.7899,150.1948,1299.2999,158.2048z"/>
	<path d="M1228.9999,148.9348c-3.8799,4.02-10.48,5.1799-15.3298,2.3c-0.75-0.4501-1.46-0.9601-2.1201-1.51
		c-8.9199-7.4501-9.1899-23.3501-0.8799-31.2201c1.3398-1.2699,2.9099-2.34,4.6899-3.12c4.76-1.9199,10.3799-0.33,13.8699,3.3101
		C1236.9799,126.7048,1236.87,141.0448,1228.9999,148.9348z"/>
	<path d="M1291.14,192.6548c-1.04,6.76-6.29,11.9-11.3101,16.1c-7.3101,5.9301-16.5801,8.38-25.8699,8.38
		c-3.75,0-7.5-0.3999-11.1301-1.13c-17.9199-3.65-35.73-12.09-47-26.92c-2.8801-4.2799-6.3101-8.95-6.03-14.3499
		c3.3101,1.7,5.1899,5.0499,7.6201,7.73c6.8999,8.73,14.7,16.7999,23.6899,23.3899c8.3398,5.9301,18.6001,9.53,28.9099,8.8901
		c8.74-0.0901,17.1301-3.5901,24.1799-8.6201c4.9001-3.3199,8.9702-7.6599,13.3501-11.61
		C1288.5099,193.5148,1289.8199,193.0448,1291.14,192.6548z"/>
	<path d="M1144.03,963.2748c-10.61,0.31-21.1901-1.77-31.1801-5.25c-7.64-2.9-15.45-6.82-20.2-13.74c-3.13-4.42-3.5-10.7-0.63-15.33
		c3.3099-5.69,9.0599-9.39,14.83-12.22c8.9401-4.2,18.6901-6.41,28.4601-7.54c18.34-1.87,37.47-0.42,54.5499,6.93
		c6.87,3.19,13.96,7.57,17.12,14.79c2.41,5.8101,0.13,12.52-4.28,16.71c-8.0199,7.9-19.1599,11.49-29.9099,13.85
		C1163.36,963.7748,1153.64,963.2148,1144.03,963.2748z"/>
	<path d="M1329.92,91.5548c6.5798,2.09,12.74,5.3199,19.3098,7.48c-0.5798-0.9-1.1899-1.75-1.8398-2.5699
		c-12.0701-13.6001-24.23-27.1301-36.23-40.78c0.46-2.55,2.6399-4.48,3.8899-6.72c6.01-9.3,12.6001-18.25,18.21-27.79
		c-15.0601,4.09-29.98,8.76-45.0801,12.6499c-4.2197-2.5599-7.46-6.6199-11.2798-9.7899c-8.77-7.6901-17-16.0399-26.0801-23.34
		c4.1099,11.76,9.51,23.05,13.78,34.76c-25.3201-4.8-50.4001-10.97-75.74-15.65c9.05,9.0399,19.4199,16.72,28.3198,25.91
		c-25.1899,5.6699-50.2798,11.78-75.45,17.53c2.3101,1.8099,5.3301,2.1399,8.04,3.0898c5.6301,1.8101,11.3301,3.4301,16.9099,5.42
		c-16.3599,15.27-33.3198,29.92-49.6899,45.17c11.3601-4.23,22.1001-10.38,34.0701-12.88c-1.3999,4.35-3.77,8.2999-5.2,12.63
		c-6.3901,17.6-7.76,36.96-4.1802,55.3201c6.3201,33.6699,30.6602,63.1799,62.4202,75.97c23.1299,9.6799,49.76,10.3199,73.48,2.3599
		c29.8101-9.98,54.3-34.26,64.79-63.8599c8.55-24.0901,8.1099-51.3701-1.73-75.01
		C1337.86,104.4148,1333.7699,98.0248,1329.92,91.5548z M1341.15,169.1047c-5.29,30.75-26.0701,58.24-54.1301,71.8401
		c-8.0701,4.01-16.6799,6.8099-25.51,8.4199c-14.6299,2.66-29.8799,2.0701-44.28-1.6399c-33.5-8.77-61.3999-36.2001-70.3398-69.7101
		c-4.1101-13.2999-4.3501-27.4301-2.8401-41.17c1.8501-11.6599,5.1499-23.3799,11.3401-33.49
		c14.2898-8.04,28.02-17.1199,42.5398-24.76c-0.2998,8.48-1.1199,16.9401-1.5198,25.41c5.76-4.74,10.6299-10.48,16.0598-15.61
		c8.8301-8.76,17.5-17.6699,26.4302-26.3201c9.8398,11.78,19.3298,23.8601,29.2998,35.53c3.6201-9.04,6.6001-18.33,9.8801-27.5
		c13.3401,5.65,26.8899,10.8301,40.1899,16.5601c3.24,2.78,5.4099,6.63,7.8901,10.0801
		C1340.0399,117.8247,1345.6998,144.2348,1341.15,169.1047z"/>
	<path fill="#FFFFFF" d="M1326.16,96.7449c-2.4802-3.4501-4.6501-7.3-7.8901-10.0801c-13.3-5.73-26.8499-10.91-40.1899-16.5601
		c-3.28,9.17-6.26,18.46-9.8801,27.5c-9.97-11.6699-19.46-23.75-29.2998-35.53c-8.9302,8.6501-17.6001,17.5601-26.4302,26.3201
		c-5.4299,5.13-10.2998,10.87-16.0598,15.61c0.3999-8.47,1.22-16.9301,1.5198-25.41c-14.5198,7.6401-28.25,16.72-42.5398,24.76
		c-6.1902,10.1101-9.49,21.8301-11.3401,33.49c-1.51,13.74-1.27,27.8701,2.8401,41.17c8.9399,33.51,36.8398,60.9401,70.3398,69.7101
		c14.4001,3.71,29.6501,4.2999,44.28,1.6399c8.8301-1.61,17.4399-4.4099,25.51-8.4199
		c28.0601-13.6001,48.8401-41.0901,54.1301-71.8401C1345.6998,144.2348,1340.0399,117.8247,1326.16,96.7449z M1215.36,115.3847
		c4.76-1.9199,10.3799-0.33,13.8699,3.3101c7.75,8.01,7.6401,22.35-0.23,30.24c-3.8799,4.02-10.48,5.1799-15.3298,2.3
		c-0.75-0.4501-1.46-0.9601-2.1201-1.51c-8.9199-7.4501-9.1899-23.3501-0.8799-31.2201
		C1212.0099,117.2348,1213.58,116.1648,1215.36,115.3847z M1279.83,208.7547c-7.3101,5.9301-16.5801,8.38-25.8699,8.38
		c-3.75,0-7.5-0.3999-11.1301-1.13c-17.9199-3.65-35.73-12.09-47-26.92c-2.8801-4.2799-6.3101-8.95-6.03-14.3499
		c3.3101,1.7,5.1899,5.0499,7.6201,7.73c6.8999,8.73,14.7,16.7999,23.6899,23.3899c8.3398,5.9301,18.6001,9.53,28.9099,8.8901
		c8.74-0.0901,17.1301-3.5901,24.1799-8.6201c4.9001-3.3199,8.9702-7.6599,13.3501-11.61c0.96-1,2.27-1.47,3.5901-1.86
		C1290.1,199.4148,1284.85,204.5548,1279.83,208.7547z M1299.2999,158.2048c-3.0801,4.6899-9.0898,7.7-14.6599,6.03
		c-6.6902-1.9301-10.78-8.7001-11.5901-15.3101c-1.27-8.28,2.1299-18.21,10.29-21.65c5.02-2.11,11.05-0.2799,14.53,3.78
		C1304.2899,138.4048,1304.7899,150.1948,1299.2999,158.2048z"/>
	<path fill="#FFFFFF" d="M1040.38,604.1948c-10.3,3.51-22.55,1.45-30.62-6.03c-6.97-6-10.79-15.17-10.89-24.27
		c0.29-2.89,0.86-5.78,1.75-8.56c1.47-4.64,3.83-8.97,7.28-12.46c0.09-0.08,0.18-0.15,0.27-0.22c5.14-4.39,11.46-7.52,18.21-8.3
		c7.1-0.9,14.5,0.72,20.51,4.64c9.08,5.61,14.77,16.26,14.39,26.93C1060.96,588.4548,1052.3199,600.2648,1040.38,604.1948z"/>
	<path d="M1487.3199,472.6048c-25.7899-32.36-51.2699-64.99-77.25-97.19c-6.1399,8.06-11.83,16.48-18.11,24.42
		c-15.5399-14.32-30.63-29.16-45.8999-43.78c5.5599,42.75,11.98,85.4,17.5299,128.15c-53.2-1.51-106.4-3.09-159.6-4.59
		c-6.62-0.08-13.23-0.58-19.84-0.34c-0.76-10.09-0.17-20.24-0.34-30.35c0.11-27.49,0.3199-54.97,0.34-82.46
		c-17.39,4.23-34.5801,9.28-51.98,13.47c-3.3401-7.45-6.5901-14.95-10.0601-22.34c-19.28,11.2-38.52,22.47-57.7999,33.66
		c-2.1901,1.52-5.8,2.27-5.7401,5.53c-6.1599,48.95-12.59,97.87-18.5499,146.85c9.14,2.82,16.89,9.83,20.49,18.71
		c5.33,12.5699,1.75,28.47-8.9301,37.14c-8.85,7.7-21.9299,9.91-32.8199,5.6c-13.39-5-22.29-19.73-20.26-33.91
		c0.24-2.08,0.9-4.06,1.54-6.03l0.58,0.19c-0.89,2.78-1.46,5.67-1.75,8.56c0.1,9.1,3.92,18.27,10.89,24.27
		c8.07,7.48,20.3199,9.54,30.62,6.03c11.9399-3.93,20.58-15.74,20.9-28.27c0.38-10.67-5.3101-21.32-14.39-26.93
		c-6.01-3.92-13.41-5.54-20.51-4.64c-6.75,0.78-13.07,3.91-18.21,8.3l-0.38-0.45c5.47-5.86,13.12-9.54,21.16-9.89
		c0.76-3.73,1.1901-7.51,1.63-11.29c5.8501-46.04,11.7201-92.08,17.5601-138.12c0.1799-3,1.9-5.8,4.45-7.37
		c21.53-12.62,43.1901-25.06,64.67-37.77c-0.79-4.55-3.61-8.55-5.24-12.86c-0.36-1.24-1.91-3.21-0.05-3.97
		c14.2001-7.6,28.73-14.58,43.1-21.85c32.04-15.73,63.9401-31.74,96.03-47.34c2.72,0.37,4.9501,2.54,7.51,3.58
		c20.25,9.85,41.0601,18.46,61.8101,27.16c38.72,16.12,77.85,31.28,117.46,45.07c-6.96,9.45-14.0699,18.82-20.78,28.43
		c1.15,2.6,3.3101,4.58,4.98,6.85c47.04,59.32,94.0801,118.64,141.1001,177.98c0.63,0.99,1.6,1.7,2.6599,1.28l0.5801,1.19
		c-4.9501,2.4-9.27,6.0099-12.02,10.75l-0.3301-0.19c0.75-1.31,1.52-2.6,2.27-3.89
		C1533.63,530.6248,1510.27,501.7648,1487.3199,472.6048z"/>
	<path d="M991,862.2748c16.25-6,33.96-7.3,51.09-5.25c11.15,1.6,22.53,4.36,31.92,10.88c4.66,3.2599,8.97,8.06,9.3,14.0099
		c0.25,5.59-3.4,10.45-7.5701,13.77c-6.9,5.38-15.33,8.39-23.76,10.38c-16.6,3.64-34.06,3.62-50.61-0.29
		c-8.57-2.16-17.23-5.34-23.91-11.31c-3.76-3.37-6.8-8.21-6.12-13.44c0.59-5.74,5.05-9.97,9.34-13.34
		c-39.65-39.16-79.72-77.91-119.52-116.91c-2.42-2.19-2.5099-5.61-2.81-8.61c-1.0699-11.2599-2.14-22.52-3.21-33.78l10.71-1.02
		c1.13,12.05,2.34,24.09,3.7401,36.1c11,11.58,22.8,22.45,34.15,33.72C932.85,805.5148,961.8,834.0248,991,862.2748z"/>
	<path fill="#FFFFFF" d="M824.94,150.5148c-6.39,1.29-13.03,3.27-19.55,1.82c-3.91-1.11-4.77-5.63-5.6-9.04
		c-2.17-9.98-4.86-19.84-7.32-29.74C806.19,122.7548,817.73,135.6148,824.94,150.5148z"/>
	<path fill="#FFFFFF" d="M762.53,477.8248c-11.5-7.16-23.75-13.19-35.44-20.09l-0.06-0.73c13.3-2.64,26.72-4.8,40.11-7.03
		c3.05-13.64,5.44-27.43,8.22-41.14c7.08,12.05,13.07,24.72,19.87,36.93c13.74-1.54,27.43-3.57,41.2-4.84
		c-9.04,10.44-19.45,19.68-28.52,30.08c5.2401,12.82,11.95,25.05,17.1,37.92c-11.67-5.65-23.3-11.37-34.94-17.08
		c-1.07-0.39-2.5-1.54-3.46-0.34c-9.9,9.11-19.72,18.32-29.6,27.45C758.2,505.1748,760.88,491.5547,762.53,477.8248z"/>
	<path d="M757.2499,185.1948c-3.97,3.61-10.3,4.1599-14.8499,1.34c-12.5901-7.9-11.4399-30.77,2.98-35.99
		c7.2998-2.2999,14.52,3.23,17,9.88C765.57,168.6548,764.1799,179.2449,757.2499,185.1948z"/>
	<path d="M707.9899,207.9148c-3.73,3.9299-9.98,5.4199-14.8699,2.86c-13.74-7.0699-12.9202-31.6,2.1499-36.5699
		c4.76-1.4501,10.03,0.54,13.21,4.23C715.6401,186.4848,715.4601,200.1147,707.9899,207.9148z"/>
	<path d="M778.5099,230.4949c-5.1699,9.6399-14.5999,16.3599-24.6899,20.0898c-16.5601,6.17-35.25,7.0201-52.1201,1.55
		c-5.0898-1.8201-10.2798-3.95-14.3899-7.5601c-0.21-0.46-0.6499-1.3899-0.8699-1.8499c6.3298,0.51,12.2,3.1799,18.3398,4.6099
		c12.6899,3.6001,26,6.25,39.22,4.4301c11.52-1.5299,22.8201-7.89,28.55-18.26c4.96-8.2699,5.8101-18.14,5.6899-27.58
		c-0.02-5.42-1.0298-10.8501-0.29-16.27c2.4502,1.23,3.04,4.11,3.8401,6.49C784.9899,207.4348,784.34,220.1448,778.5099,230.4949z"
		/>
	<path d="M738.78,744.7648c0.24-0.28,0.45-0.58,0.6299-0.88l9.98,0.26c-0.06,0.07-0.12,0.13-0.18,0.18c0.45,1.8,1.15,3.88-0.47,5.35
		c-26.87,33.78-53.75,67.57-80.62,101.36c-8.19,10.41-16.66,20.62-24.64,31.18c0.56,3.9,1.69,8.11-0.44,11.79
		c-4.15,7.93-12.69,12.2-20.75,15.15c-18.66,6.35-39.1,6.85-58.3,2.75c-10.12-2.48-20.76-6.08-27.85-14.13
		c-4.03-4.43-5.1-11.44-1.8-16.58c4.17-6.61,11.36-10.53,18.43-13.33c15.33-5.66,32.02-6.95,48.19-5.29
		c12.25,1.34,24.6,4.54,34.94,11.49C670.21,830.9748,704.46,787.8348,738.78,744.7648z"/>
	<path d="M978.1301,233.8647c-11.9001-2.1699-23.9399-6.74-32.47-15.6c-5.29-5.5299-8.6001-13.86-5.6101-21.34
		c3.5801-9.3401,12.6499-14.8601,21.2-19.1101c-0.6499-3.1399-1.3201-6.2899-2.45-9.2999c-20.9099,0.16-41.05-8.2799-57.3701-20.98
		c-29.7998-22.84-49.3298-55.9601-77.5498-80.4601c-13.05-11.25-28.6101-20.1699-45.78-23.0499
		c-19.21-3.0399-38.8301,2.2101-55.72,11.3199c-12.54,6.97-24.8201,15.26-33.6001,26.79c-11.97-4.6899-26.53-6.63-37.8398,0.74
		c-11.3101-1.05-22.7202-1.6599-34,0.0601c-11.28,1.6399-22.8,4.8799-31.8401,12.1c-7.8899,6.3099-11.99,16.97-10.0801,26.9301
		c2.47,12.99,10.6501,23.9299,19.45,33.4299c1.2002,1.04-0.9099,1.88-1.52,2.49c-11.0598,7.6899-22.0398,15.89-30.4897,26.48
		c-5.8501,7.41-9.5103,17.49-6.5701,26.8301c2.96,9.55,10.6199,16.6599,18.5701,22.24c2.9299,2.1599,6.4697,3.51,8.9399,6.25
		c-11.05,3.3799-21.1201,10.95-26.1899,21.49c-4.1201,8.18-5.1902,18.31-1.1301,26.72c6.3401,13.55,23.05,18.68,36.99,16.63
		c-0.1201-0.19-0.3401-0.55-0.5-0.82c-0.0601-0.09-0.1099-0.17-0.1499-0.24c-8.1602-1.54-16.79-3.13-23.4502-8.48
		c-5.5098-4.21-8.8799-11.08-8.54-18.05c0.1802-10.15,7.1802-18.9301,15.5901-23.98c7.24-4.66,15.9402-5.6901,24.3401-6.1901
		c0.5-3.1901,1.45-6.2999,1.6299-9.5299c-10.0798-5.1901-20.0298-11.1301-28.04-19.26c-4.2898-4.4601-8.2598-10.79-6.0298-17.17
		c3.2598-8.62,10.71-14.66,17.6899-20.25c5.71-4.2201,11.3398-8.63,17.55-12.09c-0.8301,4.1799-2.25,8.21-3.1301,12.3799
		c-3.3999,15.29-3.8699,31.5,0.4399,46.66c0.8501,3.05,1.9502,6.04,3.27,8.9301c4.54,9.9299,11.74,18.6399,20.9399,24.6
		c-3.21,2.62-6.5098,5.33-8.4897,9.05c-3.55,6.24-3.4702,13.74-2.5801,20.66c0.72,4.34,1.8198,8.61,3.02,12.87
		c3.21,11.28,7.1799,22.42,6.8799,34.27c-0.1799,9.46-5.03,18.33-12.24,24.31c-2.4399,2.4901-5.8799,3.98-7.7,7.05
		c13.3201-3.14,24.22-14.88,26.3701-28.45c2.6899-15.57-2.78-30.8-5.5901-45.93c-1.05-6.3-2.1702-13.45,1.4099-19.17
		c3.1699-5.06,9.22-6.84,14.6401-8.33c1.1899-3.6,0.8101-7.62,0.98-11.39c-12.4399-4.86-22.1802-15.6501-26.1401-28.34
		c-5.3398-16.87-3.1199-35.29,2.73-51.72c5.7402-17.41,16.2402-32.97,29.1201-45.91c11.3201-11.5099,25.52-20.12,40.9199-24.95
		c-6.97,4.1801-13.9299,8.46-19.95,13.96c-15.3899,13.7301-26.75,32.0499-31.7,52.11c-5.27,20.8601-3.8701,43.3601,4.1199,63.3501
		c11.9102,30.7499,39.4302,54.8899,71.4802,62.6499c18.5098,4.63,38.2898,4.17,56.5-1.56c18.4897-5.65,35.1499-16.8,47.8799-31.3
		c9.8999-11.15,16.97-24.59,21.48-38.76c15.25,7.26,32.5901,7.03,48.49,12.13c1.29,0.63,3.1799,0.79,3.8501,2.25
		c-6.6401,8.27-13.29,17.25-15.05,27.98c-1.74,8.53,0.6399,17.9,6.8699,24.1c6.4602,6.54,15.25,11.02,24.3901,12.1
		c-1.45-1.8799-3.74-2.66-5.73-3.77c-6.3201-3.31-12.4602-7.52-16.4402-13.56c-3.71-5.59-4.4299-12.86-2.3198-19.19
		c3.45-10.1,10.4299-18.52,18.1099-25.74c-0.0498-2.2001-0.1199-4.39-0.3101-6.58c-2.9399-2.24-6-4.3801-9.48-5.7001
		c-11.1499-4.36-23.0698-6.0699-34.6199-8.98c-5.26-1.4801-10.6899-3.13-15.03-6.59c0.3101-4.3101,0.8901-8.6101,1.3601-12.91
		c10.1299-8.9601,24.2-12.65,33.3-22.9701c4.0898-4.5199,5.7397-11.22,3.5798-17.01c-2.8-7.2599-9.24-13.1499-16.9399-14.74
		c-10.23-2.4399-20.6101,0.27-30.6001,2.4601c-1.3499-1.4701-2.0999-3.35-3.0999-5.0399
		c-9.1001-15.9501-22.75-29.1101-38.6201-38.28c-4.55-13.99-12.5-28.51-26.6199-34.6501c-11-5.1299-23.49-3.5199-34.9402-1.0499
		c10.79-4.66,22.29-7.88,34.03-8.9401c12.2102-1.1399,24.6902,1.6702,35.4102,7.6001c14.71,7.5601,26.49,19.49,37.6899,31.4199
		c14.53,15.4401,28.1899,31.78,44.0701,45.9002c13.6699,12.1399,29.2798,22.5299,46.8198,28.0898
		c5.4302,1.77,11.1301,2.42,16.6899,3.6101c0.7803,1.36-1.2798,2.26-1.8899,3.26c-7.3,6.9299-11.52,17.5599-8.8999,27.5499
		c2.9399,10.6801,12.05,18.4901,21.8298,22.9401c9.8,4.22,20.8201,6.48,31.4302,4.6199
		C983.1501,234.2449,980.4799,234.4248,978.1301,233.8647z M610.77,150.8647c-8.79-8.9399-17.78-19.1399-20.01-31.8999
		c-1.1399-7.91,6.4302-13.27,13.0601-15.4301c15.5701-5.0499,32.27-4.7101,48.4299-3.8099c3.27,0.5,6.8301,0,9.8501,1.5499
		C638.7199,109.2948,621.36,129.1348,610.77,150.8647z M702.9401,81.0548c-2.54,1.83-4.9702,3.98-8.0103,4.91
		C695.9401,82.7048,700.3801,82.7848,702.9401,81.0548z M858.85,160.2048c3.48,0.6,6.47,3.33,7.4299,6.72
		c-0.6399,3.02-3.3599,4.87-5.6099,6.6799c-6.1001,4.53-12.8101,8.15-19.1802,12.28c-0.54-7.84-2.5999-15.4399-4.5-23.02
		C844.11,161.1748,851.4699,158.6047,858.85,160.2048z M824.9401,150.5148c-6.3901,1.29-13.03,3.27-19.55,1.8199
		c-3.9102-1.1099-4.77-5.6299-5.6001-9.0399c-2.1699-9.9801-4.8601-19.84-7.3201-29.74
		C806.1901,122.7547,817.7299,135.6147,824.9401,150.5148z M770.9101,105.0548c4.99,10.85,7.9099,22.46,10.99,33.95
		c1.7998,6.33,2.96,12.9901,6.3101,18.7401c3.1299,5.4099,8.7798,9.1199,14.9099,10.1399c9.46,1.65,18.8-1.21,27.9399-3.28
		c2.6501,8.1101,4.52,16.55,4.8,25.0901c-3.9102,4.2-8.6301,8.28-9.74,14.24c-1.76,6.86,1.8699,13.54,6.53,18.3199
		c-8.8901,34.09-37.6001,62.07-71.8501,70.28c-20.1699,5.1-41.9099,3.54-61.23-4.15c-29.76-11.77-53.0701-38.6-60.23-69.85
		c-4.74-19.7101-3.27-40.9,4.23-59.74c0.3-0.77,0.6201-1.54,0.95-2.3099c8.74-21.4301,25.4202-39.4301,45.8601-50.1801
		c4.9199,0.2,9.5698,3.2699,14.6699,2.2999c7.47,6.3601,14.8501,14.91,14.75,25.28c0.54,8.3101-3.6399,16.5901-10.28,21.51
		c-9.0901,6.62-21.55,8.3301-32.04,4.1799c0.9202,3.55,4.5601,5.1301,7.7102,6.2201c8.4199,2.62,17.6699,1.41,25.6899-1.9701
		c12.6099-5.48,20.76-19.2799,19.98-32.9299c-0.1602-13.27-8.54-24.5801-17.8201-33.3201c7.4001-2.2999,15.22-3.0699,22.9299-3.3999
		c10.8201,1.21,21.7402,2.8,31.98,6.6499C769.7101,101.4748,770.07,103.5847,770.9101,105.0548z M747.9699,83.8247
		c7.53,0.8801,13.9402,5.78,17.9502,12.04c-9.8301-1.96-19.9001-3.6899-29.9402-2.2c-8.0698-0.25-16.0598,0.97-23.96,2.48
		c-2.73-1.1799-5.27-3.23-7.0999-5.61C718.9699,86.9748,733.27,81.9148,747.9699,83.8247z"/>
	<path fill="#FFFFFF" d="M826.1201,203.9348c1.1099-5.96,5.8298-10.04,9.74-14.24c-0.28-8.54-2.1499-16.98-4.8-25.0901
		c-9.1399,2.0701-18.48,4.9301-27.9399,3.28c-6.1301-1.02-11.78-4.73-14.9099-10.1399c-3.3501-5.75-4.5103-12.4102-6.3101-18.7401
		c-3.0801-11.49-6-23.1-10.99-33.95c-0.8401-1.4701-1.2-3.58-2.9602-4.2301c-10.2397-3.8499-21.1599-5.4399-31.98-6.6499
		c-7.71,0.33-15.5298,1.1-22.9299,3.3999c9.28,8.74,17.6599,20.05,17.8201,33.3201c0.78,13.65-7.3701,27.45-19.98,32.9299
		c-8.02,3.3801-17.27,4.5901-25.6899,1.9701c-3.1501-1.09-6.79-2.67-7.7102-6.2201c10.49,4.1501,22.95,2.4401,32.04-4.1799
		c6.6401-4.9199,10.8201-13.2,10.28-21.51c0.1001-10.37-7.28-18.9199-14.75-25.28c-5.1001,0.97-9.75-2.1-14.6699-2.2999
		c-20.4399,10.75-37.1201,28.75-45.8601,50.1801c-0.3298,0.7699-0.6499,1.5399-0.95,2.3099c-7.5,18.84-8.97,40.0299-4.23,59.74
		c7.1599,31.25,30.47,58.08,60.23,69.85c19.3201,7.69,41.0601,9.25,61.23,4.15c34.25-8.21,62.96-36.19,71.8501-70.28
		C827.9899,217.4748,824.36,210.7948,826.1201,203.9348z M745.3801,150.5448c7.2998-2.2999,14.52,3.23,17,9.88
		c3.1899,8.23,1.7998,18.8201-5.1301,24.77c-3.97,3.61-10.3,4.1599-14.8499,1.34
		C729.81,178.6348,730.9601,155.7648,745.3801,150.5448z M695.27,174.2048c4.76-1.4501,10.03,0.54,13.21,4.23
		c7.1602,8.05,6.9802,21.6799-0.49,29.48c-3.73,3.9299-9.98,5.4199-14.8699,2.86
		C679.3801,203.7048,680.1999,179.1748,695.27,174.2048z M778.5099,230.4949c-5.1699,9.6399-14.5999,16.3599-24.6899,20.0898
		c-16.5601,6.17-35.25,7.0201-52.1201,1.55c-5.0898-1.8201-10.2798-3.95-14.3899-7.5601c-0.21-0.46-0.6499-1.3899-0.8699-1.8499
		c6.3298,0.51,12.2,3.1799,18.3398,4.6099c12.6899,3.6001,26,6.25,39.22,4.4301c11.52-1.5299,22.8201-7.89,28.55-18.26
		c4.96-8.2699,5.8101-18.14,5.6899-27.58c-0.02-5.42-1.0298-10.8501-0.29-16.27c2.4502,1.23,3.04,4.11,3.8401,6.49
		C784.9899,207.4348,784.34,220.1448,778.5099,230.4949z"/>
	<path d="M739.41,743.8848c1.7401-2.93,0.91-6.75,1.54-10.02c6.31-54.89,14.96-109.48,22.62-164.18
		c-34.43,1.6-68.86,3.41-103.31,4.82c16.87-42.58,31.69-85.92,47.15-129.02c6.52-18.96,13.59-37.74,19.72-56.83
		c-8.91,8.2-16.98,17.28-25.6,25.79c-25.84,26.51-51.75,52.93-77.5601,79.45c-2.03,2.16-4.96,3.43-7.93,3.3
		c-34.41-0.06-68.82,0.05-103.24-0.06c2.53-4.15,4.96-8.57,6.06-13.32l0.79,0.21c-0.17,0.75-0.38,1.5-0.61,2.24
		c31.67,0.16,63.34,0.02,95,0.07c1.52,0.24,2.72-0.62,3.71-1.67c39.04-39.96,78.08-79.93,117.13-119.88
		c0.99-1.06,1.65-2.38,2.12-3.74c6.8-20.06,13.98-40,20.29-60.22c6.03,12.36,14.48,23.28,22.25,34.56c1.08,2.44,3.62,0.47,5.22-0.23
		c3.67,4.32,7.73,8.27,11.68,12.33c53.08,53.27,107.15,105.52,161.33,157.67c16.59,15.76,32.91,31.84,50.02,47.05l0.38,0.45
		c-0.09,0.07-0.18,0.14-0.27,0.22c-3.45,3.49-5.81,7.82-7.28,12.46l-0.58-0.19c0.44-1.34,0.87-2.69,1.16-4.06
		c-33.66-31.1-66.53-63.04-99.5-94.87c-23.83-23.16-47.68-46.3-71.31-69.67c-6.14-5.9-12-12.1-18.31-17.81
		c6.3,9.56,13.77,18.31,20.57,27.52c39.69,51.83,80.27,102.97,120.5099,154.37c-33.44,1.56-66.87,3.3-100.31,4.69
		c2.44,31.88,5.79,63.71,8.66,95.57c1.53,15.48,2.88,30.99,4.34,46.48l-10.71,1.02c-4.53-47.44-9.07-94.88-13.23-142.35
		c-22.45,0.93-44.9,1.95-67.33,3.29c-8.02,57.72-17.39,115.32-23.63,173.27c-0.38,0.38-1.09,1.09-1.56,1.55L739.41,743.8848z
		 M727.09,457.7348c11.69,6.9,23.94,12.93,35.44,20.09c-1.65,13.73-4.33,27.35-5.52,41.13c9.88-9.13,19.7-18.34,29.6-27.45
		c0.96-1.2,2.39-0.05,3.46,0.34c11.64,5.71,23.27,11.43,34.94,17.08c-5.15-12.87-11.86-25.1-17.1-37.92
		c9.07-10.4,19.48-19.64,28.52-30.08c-13.77,1.27-27.46,3.3-41.2,4.84c-6.8-12.21-12.79-24.88-19.87-36.93
		c-2.78,13.71-5.17,27.5-8.22,41.14c-13.39,2.23-26.81,4.39-40.11,7.03L727.09,457.7348z"/>
	<path d="M269.93,631.9648c2.09,9.53,4.56,18.99,6.15,28.62c-32.39,4.8-64.74,9.88-97.13,14.67c0.95-9.64,2.21-19.24,3.35-28.86
		C211.54,641.8148,240.69,636.5348,269.93,631.9648z"/>
	<path d="M238.6301,401.5348c-2.4102,2.41-5.8101,3.75-9.1899,3.75c-2.1301,0-4.2603-0.54-6.1301-1.68
		c-3.72-2.26-6.27-5.8-7.6599-9.83c-3.3301-9.64,0.01-22.03,9.8198-26.12c1.29-0.43,2.6401-0.63,3.9902-0.63
		c3.2798,0,6.5398,1.22,8.9299,3.52C246.83,378.4547,246.85,393.4748,238.6301,401.5348z"/>
	<path d="M189.4799,418.3947c-3.1499,3.23-8.0598,4.64-12.3899,3.51c-1-0.26-1.96-0.66-2.8701-1.2
		c-12.9099-7.55-12.04-30.56,2.2202-36.11c1.21-0.37,2.47-0.56,3.72-0.56c3.3398,0,6.6499,1.29,9.0598,3.65
		c2.0901,1.98,3.6501,4.41,4.6802,7.06C196.9899,402.5948,195.4899,412.3847,189.4799,418.3947z"/>
	<path d="M263.58,411.7448c-0.27,1.2-0.76,2.3-1.49,3.29c-8.1499,11.67-16.49,23.3-26.55,33.43c-8.5901,8.76-16.97,18.18-28,23.93
		c-5.3,2.76-11.74,3.26-17.3699,1.28c-7.3-2.76-12.4302-9.15-16.0701-15.8c-1.71-3.7599-3.6301-7.77-3.1501-12.0099
		c3.25,2.21,4.9602,5.86,7.1602,8.98c4.3198,6.17,9.03,12.95,16.4199,15.59c8.3201,2.67,16.8999-1.52,23.3101-6.65
		c14.25-11.32,21.7-28.35,33.02-42.19c1.1699-1.44,2.3799-2.84,3.6499-4.19C256.9601,414.7747,259.81,412.0948,263.58,411.7448z"/>
	<path d="M286.6,361.3247c-11.4299-18.52-29.3501-33.02-50.05-39.85c-4.4299-1.01-7.77-4.46-10.55-7.84
		c13.6702-4.48,27.1602-9.48,40.8101-14.03c1.21-0.41,2.4001-0.9,3.53-1.51c-7.7-0.15-15.3901,0.46-23.0701,0.91
		c-18.02,0.85-36.04,1.89-54.0701,2.63c0.8-7.69,4.02-14.84,6.6001-22.06c3.04-7.65,5.8501-15.47,10.1499-22.53
		c-1.98,1.62-3.6699,3.54-5.2998,5.5c-11.1001,13.26-22.01,26.68-32.9399,40.08c-0.7803,0.92-1.6802,1.73-2.5901,2.53
		c-2.47-13.12-5.3701-26.16-7.73-39.31c-1.5601,2.78-2.47,5.85-3.5601,8.82c-4.6399,13.06-9.4299,26.06-14.05,39.12
		c-0.1799,1.73-2.02,0.99-2.6299,0.02c-6.6802-6.63-13.27-13.36-20-19.94c-0.4702,15.23-0.25,30.48-0.1401,45.71
		c-12.74-0.56-25.3699-2.8-38.1099-3.55c12.04,10.32,24.2798,20.41,36.3499,30.69c1.3501,0.79,0.1702,2.26-0.2,3.25
		c-12.45,25.04-12.8501,55.63-1.1599,81.02c9.3201,20.34,25.9099,37.47,46.3699,46.71c21.6501,10.27,47.26,11.87,70.02,4.38
		c13.95-4.51,26.8101-12.31,37.29-22.56c15.74-15.11,25.71-35.9,28.3-57.51C302.2299,401.0647,297.6799,379.3048,286.6,361.3247z
		 M294.31,423.9048c-2.5999,19.9-12.21,38.77-26.7,52.64c-14.5601,14.42-34.27,23.36-54.6001,25.43
		c-20.1599,1.9-41.0698-2.84-58.0698-13.95c-14.6101-9.22-26.4202-22.73-33.78-38.36c-12.6001-26.29-11.51-59.03,3.45-84.11
		c12.03-9.29,24.3501-18.26,36.47-27.46c6.1699,6.38,11.8101,13.26,17.95,19.65c1.1802-0.3701,1.3901-1.8701,2.0901-2.7401
		c4.6799-8.35,9.5-16.61,14.2-24.95c13.6099,3.15,27.1799,6.47,40.76,9.77c8.3301,2.04,16.6699,4.07,25.02,6.05
		c-5.73-6.58-13.26-11.36-19.01-17.92c19.3999,9.51,35.76,25.46,44.6001,45.28C294.1201,388.9248,296.6701,406.7448,294.31,423.9048
		z"/>
	<path fill="#FFFFFF" d="M286.6901,373.2348c-8.8401-19.82-25.2002-35.77-44.6001-45.28c5.75,6.56,13.28,11.34,19.01,17.92
		c-8.3501-1.98-16.6899-4.0099-25.02-6.05c-13.5801-3.3-27.1501-6.62-40.76-9.77c-4.7,8.34-9.52,16.6-14.2,24.95
		c-0.7,0.87-0.9099,2.37-2.0901,2.7401c-6.1399-6.39-11.78-13.27-17.95-19.65c-12.1199,9.2-24.4399,18.17-36.47,27.46
		c-14.96,25.08-16.05,57.8199-3.45,84.11c7.3599,15.63,19.1699,29.14,33.78,38.36c17,11.11,37.9099,15.85,58.0698,13.95
		c20.3301-2.07,40.04-11.01,54.6001-25.43c14.49-13.87,24.1001-32.74,26.7-52.64
		C296.6701,406.7448,294.1201,388.9248,286.6901,373.2348z M225.4699,367.6548c1.29-0.43,2.6401-0.63,3.9902-0.63
		c3.2798,0,6.5398,1.22,8.9299,3.52c8.4399,7.91,8.46,22.93,0.24,30.99c-2.4102,2.41-5.8101,3.75-9.1899,3.75
		c-2.1301,0-4.2603-0.54-6.1301-1.68c-3.72-2.26-6.27-5.8-7.6599-9.83C212.32,384.1347,215.6601,371.7448,225.4699,367.6548z
		 M176.4401,384.5948c1.21-0.37,2.47-0.56,3.72-0.56c3.3398,0,6.6499,1.29,9.0598,3.65c2.0901,1.98,3.6501,4.41,4.6802,7.06
		c3.0898,7.85,1.5898,17.64-4.4202,23.65c-3.1499,3.23-8.0598,4.64-12.3899,3.51c-1-0.26-1.96-0.66-2.8701-1.2
		C161.31,413.1548,162.1799,390.1447,176.4401,384.5948z M262.09,415.0348c-8.1499,11.67-16.49,23.3-26.55,33.43
		c-8.5901,8.76-16.97,18.18-28,23.93c-5.3,2.76-11.74,3.26-17.3699,1.28c-7.3-2.76-12.4302-9.15-16.0701-15.8
		c-1.71-3.7599-3.6301-7.77-3.1501-12.0099c3.25,2.21,4.9602,5.86,7.1602,8.98c4.3198,6.17,9.03,12.95,16.4199,15.59
		c8.3201,2.67,16.8999-1.52,23.3101-6.65c14.25-11.32,21.7-28.35,33.02-42.19c1.1699-1.44,2.3799-2.84,3.6499-4.19
		c2.4502-2.63,5.3-5.31,9.0701-5.66C263.31,412.9447,262.82,414.0448,262.09,415.0348z"/>
	<path d="M219.61,757.9147c-6.52,13.08-11.94,26.71-18.33,39.86c-6.71-1.72-13.36-3.74-20.14-5.2
		c-21.48,35.64-43.27,71.09-64.87,106.65c-1.02,1.91-2.63,3.6-3.12,5.74c1.12,3.47,1.89,7.45-0.51,10.6
		c-4.59,6.62-12.64,9.58-20.07,11.76c-16.5,4.21-34.16,4.21-50.61-0.29c-6.8-2.06-13.91-4.88-18.5-10.57
		c-2.86-3.43-3.05-8.8-0.2-12.29c4.2-5.54,10.95-8.38,17.38-10.46c14.77-4.36,30.61-4.8,45.73-2.08c6.13,1.11,12.08,3.04,17.68,5.77
		l0.8-0.33c20.37-33.39,40.69-66.82,61.06-100.21c1.45-2.49,3.28-4.81,4.1-7.61c-9.71-2.2-19.27-5.04-28.9-7.56
		c8.5-33.51,17.29-66.95,26.07-100.38c8.15-0.03,16.23-1.32,24.32-2.13c30.88-3.54,61.66-7.89,92.49-11.86
		c9.06,28.19,18.84,56.17,27.91,84.36c-17.01,9.75-33.72,20.04-50.78,29.71c0.94,2.99,2.61,5.67,4.04,8.45
		c23.64,45.43,47.12,90.95,70.82,136.35c16.55-5.02,34.5-5.38,51.3-1.42c8.02,2.14,16.72,5.1,21.73,12.16
		c2.85,3.81,1.89,9.38-1.4,12.6c-6.8,7.19-16.91,9.7-26.28,11.55c-16.63,2.57-34.23,1.92-49.95-4.49
		c-5.67-2.53-12.01-6.17-13.54-12.69c-1.01-5.76,3.73-10.32,8.13-13.17c-24.59-47.73-49.43-95.33-74.14-142.99l-0.83-0.19
		c-5.84,3.28-11.55,6.79-17.32,10.19C228.63,784.6047,224.18,771.2248,219.61,757.9147z"/>
	<path d="M288.99,478.7348c3.72,12.36,7.16,24.79,10.92,37.13c32.41-8.21,64.73-16.73,97.09-25.12
		c19.56-5.26,39.26-10.03,58.69-15.76c0.78-10.12,6.22-19.99,15.01-25.27c9.25-6.01,21.63-6.7,31.53-1.87
		c13.22,6.25,20.73,22,17.42,36.18l-0.79-0.21c0.37-1.58,0.59-3.2,0.61-4.86c0.75-10.57-4.56-21.33-13.35-27.23
		c-7.36-5.39-17.17-7.01-25.94-4.63c-8.73,2.41-16.21,8.85-19.99,17.06c-4.03,8.63-3.72,19.2,0.96,27.51
		c5.76,10.5,17.89,17.24,29.89,16.02c7.08-0.39,13.43-3.87,19.1-7.88c-3.21,4.54-8.46,7.17-13.69,8.66
		c-10.78,3.02-23.07-0.08-30.96-8.06c-4.2-3.88-6.89-9.04-8.8-14.35c-51,13.83-102.17,27-153.36,40.09
		c-0.02,1.2-0.04,2.42-0.07,3.64c-17.5,5.17-34.76,11.17-52.22,16.49c3.05,15.57,7.07,30.95,10.08,46.52l-0.41,0.7
		c-24.49,4.31-49.04,8.26-73.57,12.34c1.15-12.73,3.12-25.37,4.26-38.1c-16.92,8.2401-33.68,16.82-50.54,25.18
		c-0.65-4.6299-1.27-9.27-1.88-13.9c-20.47,8.8-40.92,17.64-61.33,26.57c-3.8,1.9-8.06,3.04-11.49,5.58
		c-5.92,15.26-11.07,30.84-16.7,46.23c-5.53,15.5-11.16,30.97-16.58,46.51c4.92,3.85,8.51,9.68,8.51,16.06
		c0.4,9.7-6.84,19.19-16.5,20.88c-10.31,2.45-22.4-4.56-24.08-15.29c1.71,2.52,2.76,5.46,4.75,7.81c5.27,6.22,14.7,8.76,22.26,5.45
		c7.1-2.92,12.23-10.19,12.27-17.9c0.25-9.68-7.42-19.05-17.11-20.25c-8.94-0.99-18.23,4.59-21.09,13.22
		c-1.74,3.62-0.48,7.74-1.65,11.47c-0.07,0.23-0.15,0.45-0.24,0.6801v-10.31c1.89-3.57,3.42-7.5,6.56-10.21
		c4.32-4.16,10.43-5.43,16.23-5.64c11.06-31.24,22.24-62.44,33.45-93.63c1.03-3.94,5.17-5.2,8.43-6.74
		c24.15-10.79,48.48-21.18,72.78-31.62c-0.84-7.98-2.19-15.9-2.9-23.9c37.11-13.2,74.04-26.91,111.11-40.23
		c2.21-0.79,4.44-1.59,6.5-2.74C264.49,493.6748,276.54,485.8748,288.99,478.7348z"/>
</g>
</svg>
