<?xml version="1.0" encoding="UTF-8"?><!DOCTYPE svg PUBLIC "-//W3C//DTD SVG 1.1//EN" "http://www.w3.org/Graphics/SVG/1.1/DTD/svg11.dtd"><svg xmlns="http://www.w3.org/2000/svg" xmlns:xlink="http://www.w3.org/1999/xlink"><symbol id="ico-color-callMe" viewBox="0 0 117.39 115.97">
    <g data-name="&#x421;&#x43B;&#x43E;&#x439; 2">
        <path d="M62.11 91.94v24c30.64-.14 55.28-5.46 55.28-12s-24.64-11.87-55.28-12z" fill="#231f20" opacity=".15"/>
        <path d="M113.46 44c-1.13-1.73-2.28-5.88-3.48-6.47-6.69-14.15-19-25.94-34-31 6.53.39 9.32 4.16 13 6.33 10.61 5.71 18.65 15.62 23.18 25.61a56.44 56.44 0 00-6.82-11.26 44.76 44.76 0 018.2 16.8zm1.71 12.75a39.67 39.67 0 01.27 4.62c-.09-1.58-.19-3.11-.27-4.62zM66 9.32a54.69 54.69 0 00-20.71 1c7.41-2 15.91-3.06 23.43-.94L66 9.32zm9.48 3.23A39.32 39.32 0 0192.37 23a43.7 43.7 0 00-16.91-10.45zM22.35 16c.8-.66 1.6-1.28 2.4-1.88-.81.61-1.61 1.24-2.4 1.88zm83.93 67.9a7.8 7.8 0 00-1.57 2.61c1.41-1.6 3.64-5.14 4.65-6l-.19 2c4.06-4.42 6.65-15.09 8.07-21.07-2.53 14.49-9.67 30.28-22.91 41.31-13 11.09-32.17 15.93-48.64 11.5A62.44 62.44 0 013.61 81.5C2 78.48.21 70.37.27 64.54A65.46 65.46 0 015 34C14.13 13.41 35.88.25 59.6 0c4.86.15 10.79 2.62-.41 2.82a72.35 72.35 0 00-21.31 5.4 56.92 56.92 0 0114.58-3.84c-2.14.43-4.3.82-6.17 1.25A63.07 63.07 0 0175.91 7.2a62.42 62.42 0 00-41.56 5.31C21.52 19.09 11.44 31 7.67 44.31 11 37.42 15.12 27.8 21 24A55.81 55.81 0 005.57 57.48c0-1-.09-1.89 0-2.83-1.85 7.88-.36 16.65 2.1 24.23a55.8 55.8 0 01-2-21.41c0 3.25.06 6.66.41 10.75.19-2.25.17-5.43.51-8.57a48.08 48.08 0 012-12.17 41.3 41.3 0 00-.73 18c-.3-8.35 1.14-17.04 4.7-24.6A51.36 51.36 0 009.13 54.1a50.65 50.65 0 001.26 23l-.29-.85a14.49 14.49 0 00.59 1.69 53.55 53.55 0 003.6 8.55A30.58 30.58 0 0019.4 93l.83 1c-.67-.56-1.14-.73-.17.64 4.2 6 11.06 10.09 18.14 14.3a25.44 25.44 0 007.8 2.74 2.73 2.73 0 001.69.33c.67.11 1.34.29 2 .36 1.66.22 3.32.49 5 .54-1.61-.19-3.28-.38-5-.54-.63-.08-1.22-.27-1.84-.39a4.44 4.44 0 011.84 0A54.06 54.06 0 0120.23 94c.62.41 1.43 1 1.8 1.26A24 24 0 0119.4 93a53.76 53.76 0 01-6.24-9.69 16.82 16.82 0 001.89 2.56A53.94 53.94 0 019.13 54.1a50.7 50.7 0 0113.63-26.75 40 40 0 00-10.2 13.53c5.91-14.47 19.16-26.11 34.55-29.15a36 36 0 00-5.66 3.57 26.78 26.78 0 014.63-1.84l.84-.2a48.39 48.39 0 00-5.57 2.12 6.84 6.84 0 00-1.22 1.26c.26.29 4.78-1.06 2.3.13-8.57 4.86-14.49 9-15.16 13.73 0 .07.12.08.33 0A44.51 44.51 0 01106.36 59a45.82 45.82 0 01-.39 5.82c.27-.7.55-1.37.82-2.21.26 8.34-3.8 16.94-7 24.21 6.39-7.3 8.67-20.65 10.7-22 2.92-1.29-1.32 14.09-5.58 20.76l1.34-1.67zM32.79 10.61v.08c.75-.42 1.5-.8 2.26-1.17-.75.35-1.48.71-2.21 1.09.66-1.06 4.76-2.74 6.57-3.81a48.29 48.29 0 00-14.6 7.33 58.52 58.52 0 017.39-4.85A57.63 57.63 0 008.26 33.59c-1.89 4-5.86 6.94-5.85 13.76a62 62 0 0130.38-36.74zm-5.34 77.08l.17-.22c-.52-.63-1-1.27-1.52-1.92a11.11 11.11 0 01.6 1.79 16.25 16.25 0 011.89 1.38 5.8 5.8 0 00-1.14-1zm23.35 14.44l.28.2h.43l-.71-.17zm6.85 1.18l2 .42a2.91 2.91 0 00.53-.26c-.83 0-1.67-.08-2.49-.16zM69.07 13a48.39 48.39 0 0112.52 3.92 39.58 39.58 0 0112.57 10.36A50 50 0 0069.07 13z" fill="#7c529d"/>
        <path d="M77.83 64.18l-2.38-.26a18.29 18.29 0 00-20.14-20.13l-.25-2.39a20.68 20.68 0 0122.77 22.78zm-5.17-.55l-2.38-.25A13.09 13.09 0 0055.86 49l-.25-2.39a15.49 15.49 0 0117.05 17.02zm-5.26-.56l-2.4-.25a7.8 7.8 0 00-8.6-8.6l-.25-2.39a10.2 10.2 0 0111.26 11.24zm10 21.51c-3 3.25-5.17 4.46-14 1.56s-18.33-12-18.33-12S36 64.7 33.1 55.85s-1.7-11 1.56-14 6.09-.85 7.5.71 5.95 7.93 5.95 7.93 1.49 2.76-.43 4.53-3.39 2.12-3.85 3.57-1 2 .88 5.07l.37.57a34.24 34.24 0 0010 10l.57.37c3 1.91 3.61 1.35 5.06.88s1.8-1.94 3.57-3.85 4.52-.42 4.52-.42 6.37 4.53 7.93 5.94 3.68 4.25.71 7.5z" fill="#fff"/>
    </g>
</symbol><symbol id="ico-color-example" viewBox="0 0 51.9 51.9">
    <circle cx="26" cy="26" r="26" fill="#fc2c38"/>
    <path d="M40 21.9h-.8l-3.1-8.7H16l-3.1 8.7H8.8v2.8h3.1v14h5.4v-4.4h17.3v4.4H40V24.6h3.1v-2.8H40zm-22.1-6.5h16.5l2.4 6.5H15.5l2.4-6.5zm3.9 13.7h-6.5v-2.8h6.5v2.8zm15.3 0h-6.5v-2.8h6.5v2.8z" fill-rule="evenodd" clip-rule="evenodd" fill="#fff"/>
</symbol><symbol id="ico-color-facebook" viewBox="0 0 117.25 116.57">
    <g data-name="&#x421;&#x43B;&#x43E;&#x439; 2">
        <path d="M58.17 92.54v24c30.64-.14 55.28-5.46 55.28-12s-24.64-11.87-55.28-12z" fill="#231f20" opacity=".15"/>
        <path d="M113.46 44c-1.13-1.73-2.28-5.88-3.48-6.47-6.69-14.15-19-25.94-34-31 6.53.39 9.32 4.16 13 6.33 10.61 5.71 18.65 15.62 23.18 25.61a56.48 56.48 0 00-6.82-11.26 44.75 44.75 0 018.2 16.8zm1.71 12.75a39.74 39.74 0 01.27 4.62c-.09-1.57-.19-3.11-.27-4.62zM66 9.32a54.68 54.68 0 00-20.71 1c7.41-2 15.91-3.06 23.43-.94L66 9.32zm9.48 3.23A39.31 39.31 0 0192.37 23a43.68 43.68 0 00-16.9-10.42zM22.35 16c.8-.66 1.6-1.28 2.4-1.87-.81.61-1.61 1.24-2.4 1.87zm83.93 67.9a7.8 7.8 0 00-1.57 2.61c1.41-1.6 3.64-5.14 4.65-6l-.19 2c4.06-4.42 6.65-15.09 8.07-21.07-2.53 14.5-9.68 30.28-22.91 41.32-13 11.09-32.16 15.92-48.64 11.5A62.44 62.44 0 013.61 81.5C2 78.48.21 70.37.27 64.54A65.47 65.47 0 015 34C14.13 13.41 35.88.25 59.6 0c4.86.15 10.79 2.62-.41 2.82a72.31 72.31 0 00-21.31 5.4 57 57 0 0114.58-3.84c-2.14.43-4.3.82-6.17 1.26A63.08 63.08 0 0175.91 7.2a62.42 62.42 0 00-41.56 5.31C21.52 19.09 11.44 31 7.67 44.31 11 37.42 15.12 27.79 21 24A55.82 55.82 0 005.57 57.48c0-1-.09-1.89 0-2.82-1.85 7.88-.36 16.65 2.1 24.23a55.81 55.81 0 01-2-21.41c0 3.25.06 6.66.41 10.75.19-2.25.17-5.43.51-8.57a48.11 48.11 0 012-12.17 41.29 41.29 0 00-.73 18c-.3-8.36 1.14-17.05 4.7-24.61A51.32 51.32 0 009.13 54.1a50.67 50.67 0 001.26 23l-.29-.85a14.42 14.42 0 00.59 1.69 53.4 53.4 0 003.6 8.55A30.51 30.51 0 0019.4 93l.83 1c-.67-.56-1.14-.73-.17.64 4.2 6 11.06 10.09 18.14 14.3a25.47 25.47 0 007.8 2.74 2.72 2.72 0 001.69.33c.67.11 1.34.29 2 .36 1.66.22 3.32.49 5 .54-1.61-.19-3.28-.38-5-.54-.63-.08-1.22-.27-1.84-.39a4.42 4.42 0 011.84 0A54.06 54.06 0 0120.23 94c.62.41 1.43 1 1.8 1.26A24 24 0 0119.4 93a53.69 53.69 0 01-6.24-9.69 16.81 16.81 0 001.89 2.56A53.92 53.92 0 019.13 54.1a50.7 50.7 0 0113.63-26.75 40 40 0 00-10.2 13.53c5.92-14.47 19.16-26.11 34.55-29.15a36.09 36.09 0 00-5.66 3.57 26.8 26.8 0 014.63-1.84l.84-.2a48 48 0 00-5.57 2.12 6.83 6.83 0 00-1.22 1.26c.26.29 4.78-1.06 2.3.13-8.56 4.86-14.49 9-15.16 13.74 0 .07.12.08.33 0A44.51 44.51 0 01106.36 59a45.89 45.89 0 01-.39 5.82c.27-.7.54-1.37.82-2.21.26 8.34-3.8 16.94-7 24.21 6.38-7.3 8.67-20.65 10.7-22 2.92-1.29-1.32 14.09-5.58 20.76l1.34-1.67zM32.79 10.61v.08c.75-.42 1.5-.81 2.26-1.17-.74.35-1.48.71-2.21 1.09.66-1.06 4.76-2.74 6.57-3.81a48.24 48.24 0 00-14.6 7.33 58.56 58.56 0 017.39-4.85A57.64 57.64 0 008.26 33.59c-1.89 4-5.86 6.94-5.85 13.76a62 62 0 0130.38-36.74zm-5.34 77.08l.17-.22c-.52-.63-1-1.27-1.52-1.92a11 11 0 01.6 1.79 16.43 16.43 0 011.89 1.39 5.79 5.79 0 00-1.14-1zm23.35 14.44l.28.2h.44l-.71-.17zm6.85 1.18l2 .42a2.85 2.85 0 00.53-.26c-.83 0-1.67-.08-2.49-.16zM69.07 13a48.4 48.4 0 0112.52 3.92 39.59 39.59 0 0112.57 10.36A50 50 0 0069.07 13z" fill="#00aeef"/>
        <path d="M69.7 61.5h-8v28.84H49.8V61.5h-6v-9.95h6v-6c0-8.11 3.37-12.93 12.94-12.93h8v9.98h-5c-3.72 0-4 1.39-4 4v5h9l-1.04 9.9z" fill="#fff"/>
    </g>
</symbol><symbol id="ico-color-instagram" viewBox="0 0 117.25 115.97">
    <g data-name="&#x421;&#x43B;&#x43E;&#x439; 2">
        <path d="M61.5 91.94v24c30.64-.14 55.28-5.46 55.28-12s-24.64-11.87-55.28-12z" fill="#231f20" opacity=".15"/>
        <path d="M113.46 44c-1.13-1.73-2.28-5.88-3.48-6.47-6.69-14.15-19-25.94-34-31 6.53.39 9.32 4.16 13 6.33 10.61 5.71 18.65 15.62 23.17 25.61a56.43 56.43 0 00-6.82-11.26A44.79 44.79 0 01113.46 44zm1.71 12.75a39.9 39.9 0 01.27 4.62c-.09-1.58-.18-3.11-.27-4.62zM66 9.32a54.63 54.63 0 00-20.71 1c7.41-2 15.91-3.06 23.43-.94L66 9.32zm9.48 3.23A39.32 39.32 0 0192.37 23a43.68 43.68 0 00-16.91-10.45zM22.35 16c.8-.66 1.6-1.28 2.4-1.87-.81.61-1.61 1.23-2.4 1.87zm83.93 67.9a7.8 7.8 0 00-1.57 2.61c1.41-1.6 3.64-5.14 4.65-6l-.19 2c4.05-4.42 6.65-15.09 8.07-21.07-2.53 14.49-9.67 30.28-22.91 41.31-13 11.09-32.17 15.93-48.64 11.5A62.43 62.43 0 013.61 81.5C2 78.48.21 70.37.27 64.54A65.45 65.45 0 015 34C14.13 13.41 35.88.25 59.6 0c4.86.15 10.79 2.62-.41 2.82a72.34 72.34 0 00-21.31 5.4 57 57 0 0114.58-3.84c-2.14.43-4.3.82-6.17 1.26A63.09 63.09 0 0175.91 7.2a62.41 62.41 0 00-41.56 5.31C21.52 19.09 11.44 31 7.67 44.31 11 37.42 15.12 27.79 21 24A55.82 55.82 0 005.57 57.48c0-1-.09-1.89 0-2.83-1.85 7.88-.36 16.65 2.09 24.23a55.83 55.83 0 01-2-21.41c0 3.25.06 6.66.41 10.75.19-2.25.17-5.43.51-8.57a48 48 0 012-12.17 41.31 41.31 0 00-.73 18c-.29-8.35 1.15-17.04 4.71-24.6A51.39 51.39 0 009.13 54.1a50.65 50.65 0 001.26 23l-.29-.85a14.79 14.79 0 00.59 1.7 53.48 53.48 0 003.6 8.55A30.58 30.58 0 0019.4 93l.83 1c-.67-.56-1.14-.73-.17.64 4.2 6 11.06 10.08 18.14 14.3a25.46 25.46 0 007.8 2.74 2.73 2.73 0 001.69.33c.67.11 1.34.29 2 .36 1.66.22 3.32.49 5 .54-1.61-.19-3.29-.38-5-.54-.63-.08-1.22-.27-1.84-.39a4.4 4.4 0 011.84 0A54.05 54.05 0 0120.23 94c.62.41 1.43 1 1.8 1.26A24.2 24.2 0 0119.4 93a53.92 53.92 0 01-6.24-9.68 17 17 0 001.89 2.56A53.93 53.93 0 019.13 54.1a50.7 50.7 0 0113.63-26.75 40 40 0 00-10.2 13.53c5.92-14.47 19.16-26.11 34.55-29.15a36 36 0 00-5.66 3.57 26.9 26.9 0 014.63-1.84l.84-.2a48.12 48.12 0 00-5.57 2.12 6.77 6.77 0 00-1.22 1.27c.26.29 4.78-1.06 2.3.13-8.57 4.86-14.49 9-15.16 13.74 0 .07.12.07.33 0A44.51 44.51 0 01106.36 59a45.73 45.73 0 01-.39 5.82c.27-.7.55-1.37.82-2.21.26 8.34-3.8 16.94-7 24.21 6.38-7.3 8.67-20.65 10.7-22 2.92-1.29-1.32 14.09-5.58 20.76l1.34-1.67zM32.79 10.61v.09c.75-.42 1.5-.81 2.26-1.18-.74.35-1.48.71-2.21 1.09.66-1.06 4.76-2.74 6.57-3.81a48.23 48.23 0 00-14.61 7.33 58.49 58.49 0 017.4-4.85A57.63 57.63 0 008.26 33.59c-1.89 4-5.86 6.94-5.85 13.76a62 62 0 0130.38-36.74zm-5.34 77.08l.17-.22c-.52-.63-1-1.27-1.52-1.92a11.05 11.05 0 01.6 1.79 16.16 16.16 0 011.89 1.38 5.77 5.77 0 00-1.14-1zm23.35 14.44l.28.2h.43l-.71-.17zm6.86 1.18l2 .42a2.77 2.77 0 00.53-.26c-.83 0-1.67-.08-2.49-.16zM69.07 13a48.37 48.37 0 0112.52 3.92 39.61 39.61 0 0112.57 10.36A50 50 0 0069.07 13z" fill="#7c529d"/>
        <path d="M73.15 86.79H43.26A11.12 11.12 0 0132 75.82V45a11.12 11.12 0 0111.23-11h29.92a11.11 11.11 0 0111.23 11v30.82a11.12 11.12 0 01-11.23 11zM79.86 45a6.6 6.6 0 00-6.71-6.46H43.26A6.59 6.59 0 0036.54 45v30.82a6.59 6.59 0 006.71 6.45h29.9a6.6 6.6 0 006.71-6.45V45zM58.2 74.11a13.69 13.69 0 1113.69-13.68A13.7 13.7 0 0158.2 74.11zm0-22.85a9.17 9.17 0 109.17 9.17 9.17 9.17 0 00-9.17-9.17zm14.69-2a3.2 3.2 0 113.2-3.2 3.2 3.2 0 01-3.2 3.2z" fill="#fff"/>
    </g>
</symbol><symbol id="ico-color-logo" viewBox="0 0 512 512">
    <path d="M64 290.059c2.629 0 5.21-1.07 7.07-2.93a10.087 10.087 0 002.93-7.07c0-2.641-1.07-5.207-2.93-7.079-1.86-1.859-4.441-2.921-7.07-2.921s-5.21 1.062-7.07 2.921A10.098 10.098 0 0054 280.06c0 2.632 1.07 5.203 2.93 7.07a10.08 10.08 0 007.07 2.93zm0 0"/>
    <path d="M64 388.379c5.523 0 10-4.48 10-10V314.71c0-5.524-4.477-10-10-10s-10 4.476-10 10v63.668c0 5.52 4.477 10 10 10zm0 0"/>
    <path d="M462 153.07h-24.176c-.492 0-.972.047-1.445.118l-36.95-59.403a10.007 10.007 0 00-8.492-4.715H223.734a9.997 9.997 0 00-8.492 4.715l-36.875 59.285H126v-2c0-20.953-17.047-38-38-38s-38 17.047-38 38v2c-27.57 0-50 22.43-50 50V462c0 27.57 22.43 50 50 50h412c27.57 0 50-22.43 50-50V361.066c0-5.523-4.477-10-10-10s-10 4.477-10 10v85.946H379.48c38.364-23.707 63.985-66.149 63.985-114.465s-25.621-90.758-63.985-114.465H492v61.973c0 5.523 4.477 10 10 10s10-4.477 10-10V203.07c0-27.57-22.43-50-50-50zm-232.71-44h156.089l27.371 44H201.922zM70 151.07c0-9.925 8.074-18 18-18s18 8.075 18 18v2H70zm168.52 67.012c-35.692 22.059-60.348 60.324-63.614 104.453h-14.57c-5.524 0-10 4.477-10 10 0 5.524 4.476 10 10 10h14.57c3.254 44.14 27.914 82.418 63.614 104.477H126v-228.93zM106 447.012H20v-228.93h86zm385.574 20C489.18 481.176 476.832 492 462 492H50c-14.832 0-27.18-10.824-29.574-24.988zm-68.11-134.465c0 63.117-51.347 114.465-114.464 114.465s-114.465-51.348-114.465-114.465c0-63.113 51.348-114.465 114.465-114.465s114.465 51.348 114.465 114.465zM20.423 198.082C22.805 183.906 35.156 173.07 50 173.07h412c14.844 0 27.195 10.836 29.578 25.012zm0 0"/>
    <path d="M502 308.941c-2.629 0-5.21 1.059-7.07 2.918a10.1 10.1 0 00-2.93 7.07c0 2.641 1.07 5.22 2.93 7.083 1.86 1.855 4.441 2.93 7.07 2.93s5.21-1.07 7.07-2.93a10.093 10.093 0 002.93-7.082 10.1 10.1 0 00-2.93-7.07 10.068 10.068 0 00-7.07-2.919zm0 0"/>
    <path d="M302.527 395.613a10.01 10.01 0 009.617 0c6.118-3.351 59.774-33.8 59.774-69.379 0-23.683-18.672-42.953-41.617-42.953-8.203 0-16.203 2.535-22.965 7.145-6.762-4.61-14.766-7.145-22.969-7.145-22.945 0-41.613 19.27-41.613 42.953 0 35.579 53.656 66.028 59.773 69.38zm-18.16-92.332c5.922 0 11.45 2.496 15.563 7.028a10.004 10.004 0 007.406 3.28c2.816 0 5.508-1.19 7.402-3.276 4.117-4.536 9.645-7.032 15.563-7.032 11.922 0 21.617 10.297 21.617 22.953 0 16.532-25.617 37.614-44.582 49.067-18.973-11.453-44.582-32.535-44.582-49.067 0-12.656 9.695-22.953 21.613-22.953zm0 0"/>
    <path d="M309 256.563c41.898 0 75.984 34.085 75.984 75.984 0 5.523 4.477 10 10 10s10-4.477 10-10c0-52.926-43.058-95.985-95.984-95.985-5.523 0-10 4.477-10 10s4.477 10 10 10zm0 0"/>
    <path d="M307.45 55.488c5.523 0 10-4.476 10-10V10c0-5.523-4.477-10-10-10-5.52 0-10 4.477-10 10v35.488c0 5.524 4.48 10 10 10zm0 0"/>
    <path d="M262.031 71.07a9.968 9.968 0 007.07 2.93 9.968 9.968 0 007.07-2.93c3.907-3.902 3.907-10.234 0-14.14l-24.644-24.645c-3.906-3.906-10.238-3.906-14.144 0s-3.906 10.238 0 14.14zm0 0"/>
    <path d="M346.258 73.348a9.955 9.955 0 007.07-2.934l23.961-23.973c3.902-3.906 3.902-10.238-.004-14.14-3.906-3.903-10.238-3.903-14.144.004l-23.957 23.972c-3.907 3.907-3.903 10.239.003 14.145a9.973 9.973 0 007.07 2.926zm0 0"/>
</symbol><symbol id="ico-color-skype" viewBox="0 0 117.25 115.97">
    <g data-name="&#x421;&#x43B;&#x43E;&#x439; 2">
        <path d="M61.5 91.94v24c30.64-.14 55.28-5.46 55.28-12s-24.64-11.88-55.28-12z" fill="#231f20" opacity=".15"/>
        <path d="M113.46 44c-1.13-1.73-2.28-5.88-3.48-6.47-6.69-14.15-19-25.94-34-31 6.53.39 9.32 4.16 13 6.33 10.61 5.71 18.65 15.62 23.18 25.61a56.56 56.56 0 00-6.82-11.26A44.75 44.75 0 01113.46 44zm1.71 12.75a40 40 0 01.27 4.62c-.09-1.58-.18-3.11-.27-4.62zM66 9.32a54.65 54.65 0 00-20.71 1c7.41-2 15.91-3.06 23.43-.94L66 9.32zm9.48 3.23A39.31 39.31 0 0192.37 23a43.68 43.68 0 00-16.91-10.45zM22.35 16c.8-.66 1.6-1.28 2.4-1.87-.81.61-1.61 1.24-2.4 1.87zm83.93 67.9a7.78 7.78 0 00-1.57 2.61c1.41-1.6 3.64-5.14 4.65-6.05l-.19 2c4.06-4.42 6.65-15.09 8.07-21.08-2.53 14.5-9.68 30.28-22.91 41.32-13 11.09-32.17 15.93-48.64 11.5A62.44 62.44 0 013.61 81.5C2 78.48.21 70.37.27 64.54A65.46 65.46 0 015 34C14.13 13.41 35.88.25 59.6 0c4.86.15 10.79 2.62-.41 2.82a72.44 72.44 0 00-21.31 5.4 57.06 57.06 0 0114.58-3.84c-2.14.44-4.3.82-6.17 1.26A63.07 63.07 0 0175.91 7.2a62.43 62.43 0 00-41.56 5.31C21.52 19.09 11.44 31 7.67 44.31 11 37.42 15.12 27.8 21 24A55.82 55.82 0 005.57 57.49c0-1-.09-1.89 0-2.83-1.85 7.88-.36 16.65 2.1 24.23a55.82 55.82 0 01-2-21.41c0 3.25.06 6.66.41 10.75.19-2.25.17-5.43.51-8.57a48.13 48.13 0 012-12.17 41.29 41.29 0 00-.73 18c-.3-8.36 1.14-17.05 4.7-24.61A51.33 51.33 0 009.13 54.1a50.66 50.66 0 001.26 23l-.29-.85a14.5 14.5 0 00.58 1.75 53.55 53.55 0 003.6 8.55A30.57 30.57 0 0019.4 93l.83 1c-.67-.56-1.14-.73-.17.64 4.2 6 11.06 10.09 18.14 14.3a25.55 25.55 0 007.8 2.74 2.73 2.73 0 001.69.33c.67.11 1.34.29 2 .36 1.66.22 3.32.48 5 .54-1.61-.19-3.28-.38-5-.54-.63-.08-1.22-.27-1.84-.39a4.46 4.46 0 011.84 0A54 54 0 0120.23 94c.62.41 1.43 1 1.8 1.26A23.73 23.73 0 0119.4 93a53.76 53.76 0 01-6.24-9.68 16.74 16.74 0 001.89 2.56A53.92 53.92 0 019.13 54.1a50.7 50.7 0 0113.63-26.75 40 40 0 00-10.2 13.53c5.92-14.47 19.16-26.11 34.55-29.15a36.23 36.23 0 00-5.66 3.57 26.71 26.71 0 014.63-1.84l.84-.2a48.46 48.46 0 00-5.57 2.12 6.82 6.82 0 00-1.22 1.26c.26.29 4.78-1.06 2.3.13-8.56 4.86-14.49 9-15.16 13.74 0 .07.12.07.33 0A44.51 44.51 0 01106.36 59a45.81 45.81 0 01-.39 5.82c.27-.7.54-1.37.82-2.21.26 8.34-3.8 16.94-7 24.21 6.39-7.3 8.67-20.65 10.7-22 2.92-1.29-1.32 14.1-5.58 20.76l1.34-1.67zM32.79 10.61v.08c.75-.42 1.5-.8 2.26-1.17-.74.36-1.48.71-2.21 1.09.66-1.06 4.76-2.74 6.57-3.81a48.25 48.25 0 00-14.6 7.33 58.63 58.63 0 017.39-4.85A57.62 57.62 0 008.26 33.59c-1.89 4-5.86 6.94-5.85 13.76a62 62 0 0130.38-36.74zm-5.34 77.08l.17-.22c-.52-.63-1-1.27-1.52-1.92a11.12 11.12 0 01.6 1.79 16.74 16.74 0 011.89 1.39 5.78 5.78 0 00-1.14-1zm23.35 14.45l.28.19h.43l-.71-.16zm6.85 1.18l2 .42a3 3 0 00.53-.26c-.83 0-1.67-.08-2.49-.16zM69.07 13a48.36 48.36 0 0112.52 3.92 39.59 39.59 0 0112.57 10.36A50 50 0 0069.07 13z" fill="#00aff0"/>
        <path d="M82.14 69a26.65 26.65 0 00.6-5.59 26.11 26.11 0 00-30.53-25.66A15.11 15.11 0 0031.13 58.2a26.11 26.11 0 0025.55 31.31 27.1 27.1 0 004.77-.44 15 15 0 007.15 1.81A15.13 15.13 0 0082.14 69zM70 75.9a11.89 11.89 0 01-5.3 4 21.09 21.09 0 01-8.14 1.43 20.06 20.06 0 01-9.33-1.94A12.35 12.35 0 0143 75.58a8.3 8.3 0 01-1.67-4.71 3.27 3.27 0 011.08-2.47 3.83 3.83 0 012.72-1 3.4 3.4 0 012.3.8 6 6 0 011.53 2.22 12.66 12.66 0 001.5 2.65 5.82 5.82 0 002.19 1.71 9.23 9.23 0 003.78.67 9.25 9.25 0 005.26-1.36 3.84 3.84 0 001.93-3.26 3.21 3.21 0 00-1-2.48 7.08 7.08 0 00-2.79-1.53c-1.18-.38-2.79-.77-4.78-1.19a39.53 39.53 0 01-6.84-2 11.28 11.28 0 01-4.47-3.27A8.19 8.19 0 0142 55.09a8.48 8.48 0 011.77-5.28 11 11 0 015.06-3.5 22.18 22.18 0 017.65-1.22 20.71 20.71 0 016.09.8 13.37 13.37 0 014.3 2.17 9 9 0 012.53 2.85 6.25 6.25 0 01.82 3 3.78 3.78 0 01-3.76 3.65 3.35 3.35 0 01-2.24-.71 8.54 8.54 0 01-1.56-2.06 8.66 8.66 0 00-2.34-2.91 7.34 7.34 0 00-4.36-1 8.18 8.18 0 00-4.52 1.1 3 3 0 00-1.62 2.5 2.26 2.26 0 00.52 1.51 4.39 4.39 0 001.56 1.19A10.18 10.18 0 0054 58c.72.21 1.95.5 3.61.89a56.35 56.35 0 015.76 1.51 18.93 18.93 0 014.45 2 8.8 8.8 0 012.94 3.11 9.3 9.3 0 011.06 4.6A9.81 9.81 0 0170 75.9z" fill="#fff"/>
    </g>
</symbol><symbol id="ico-color-telegram" viewBox="0 0 117.25 116.97">
    <g data-name="&#x421;&#x43B;&#x43E;&#x439; 2">
        <path d="M61.5 92.94v24c30.64-.14 55.28-5.46 55.28-12s-24.64-11.87-55.28-12z" fill="#231f20" opacity=".15"/>
        <path d="M113.46 44c-1.13-1.73-2.28-5.88-3.48-6.47-6.69-14.15-19-25.94-34-31 6.53.39 9.32 4.16 13 6.33 10.61 5.71 18.65 15.62 23.18 25.61a56.49 56.49 0 00-6.82-11.26 44.75 44.75 0 018.2 16.8zm1.71 12.75a39.67 39.67 0 01.27 4.62c-.09-1.58-.19-3.11-.27-4.62zM66 9.32a54.69 54.69 0 00-20.71 1c7.41-2 15.91-3.06 23.43-.94L66 9.32zm9.48 3.23A39.31 39.31 0 0192.37 23a43.7 43.7 0 00-16.9-10.42zM22.35 16c.8-.66 1.6-1.28 2.4-1.87-.81.61-1.61 1.24-2.4 1.88zm83.93 67.9a7.82 7.82 0 00-1.56 2.61c1.41-1.6 3.64-5.14 4.65-6l-.2 2c4.05-4.42 6.65-15.09 8.07-21.07-2.54 14.49-9.68 30.28-22.91 41.31-13 11.09-32.16 15.93-48.64 11.5A62.44 62.44 0 013.61 81.5C2 78.48.21 70.37.27 64.54A65.46 65.46 0 015 34C14.13 13.41 35.88.25 59.6 0c4.86.15 10.79 2.62-.41 2.82a72.35 72.35 0 00-21.31 5.4 56.92 56.92 0 0114.58-3.84c-2.14.43-4.3.82-6.17 1.25A63.06 63.06 0 0175.91 7.2a62.41 62.41 0 00-41.56 5.31C21.52 19.09 11.44 31 7.67 44.31 11 37.42 15.12 27.8 21 24A55.82 55.82 0 005.57 57.48c0-1-.09-1.89 0-2.83-1.85 7.88-.36 16.65 2.1 24.23a55.81 55.81 0 01-2-21.41c0 3.25.06 6.66.41 10.75.19-2.25.17-5.43.51-8.57a48.1 48.1 0 012-12.17 41.3 41.3 0 00-.73 18c-.3-8.35 1.14-17.04 4.7-24.6A51.4 51.4 0 009.13 54.1a50.65 50.65 0 001.26 23l-.29-.85a14.3 14.3 0 00.59 1.69 53.36 53.36 0 003.6 8.55A30.57 30.57 0 0019.4 93l.83 1c-.67-.56-1.14-.73-.17.64 4.2 6 11.06 10.09 18.14 14.3a25.44 25.44 0 007.8 2.74 2.72 2.72 0 001.69.33c.67.11 1.34.29 2 .36 1.66.22 3.32.49 5 .54-1.61-.19-3.28-.38-5-.54-.63-.08-1.23-.27-1.84-.39a4.44 4.44 0 011.84 0A54.06 54.06 0 0120.23 94c.62.41 1.43 1 1.8 1.26A24 24 0 0119.4 93a53.82 53.82 0 01-6.24-9.69 16.86 16.86 0 001.89 2.56A53.93 53.93 0 019.13 54.1a50.7 50.7 0 0113.63-26.75 40 40 0 00-10.2 13.53c5.92-14.47 19.16-26.11 34.55-29.15a36 36 0 00-5.66 3.57 26.76 26.76 0 014.63-1.84l.84-.2a48.27 48.27 0 00-5.57 2.12 6.81 6.81 0 00-1.22 1.26c.26.29 4.78-1.06 2.3.13-8.56 4.86-14.49 9-15.16 13.73 0 .07.12.08.33 0A44.51 44.51 0 01106.36 59a46.08 46.08 0 01-.39 5.82c.27-.7.54-1.37.82-2.21.26 8.34-3.8 16.94-7 24.21 6.39-7.3 8.67-20.65 10.7-22 2.92-1.29-1.32 14.09-5.58 20.76l1.34-1.67zM32.79 10.61v.08c.75-.42 1.5-.8 2.26-1.17-.74.35-1.48.71-2.21 1.09.66-1.06 4.76-2.74 6.57-3.81a48.28 48.28 0 00-14.6 7.33 58.52 58.52 0 017.39-4.85A57.63 57.63 0 008.26 33.59c-1.89 4-5.86 6.94-5.85 13.76a62 62 0 0130.38-36.74zm-5.34 77.08l.17-.22c-.52-.63-1-1.27-1.52-1.92a11.15 11.15 0 01.6 1.79 16.34 16.34 0 011.89 1.38 5.8 5.8 0 00-1.14-1zm23.35 14.44l.28.2h.44l-.71-.17zm6.85 1.18l2 .42a2.9 2.9 0 00.53-.26c-.83 0-1.67-.08-2.49-.16zM69.07 13a48.34 48.34 0 0112.52 3.92 39.58 39.58 0 0112.57 10.36A50 50 0 0069.07 13z" fill="#00aff0"/>
        <path d="M78.3 38.32L26 58.72a1.91 1.91 0 00.15 3.61l13.3 3.93 5 15.75a2.28 2.28 0 003.81.91l6.88-7 13.5 9.91A2.81 2.81 0 0073 84.11l8.94-42.73a2.69 2.69 0 00-3.61-3.06zm-6.56 9.48L47.43 69.31a1.3 1.3 0 00-.43.83l-.94 8.32a.25.25 0 01-.49 0L41.71 66.1a1.31 1.31 0 01.56-1.5L71 46.79a.63.63 0 01.75 1z" fill="#fff"/>
    </g>
</symbol><symbol id="ico-color-whatsUp" viewBox="0 0 117.25 115.97">
    <g data-name="&#x421;&#x43B;&#x43E;&#x439; 2">
        <path d="M61.8 91.94v24c30.64-.14 55.28-5.46 55.28-12s-24.64-11.87-55.28-12z" fill="#231f20" opacity=".15"/>
        <path d="M113.46 44c-1.13-1.73-2.28-5.88-3.48-6.47-6.69-14.15-19-25.94-34-31 6.53.39 9.32 4.16 13 6.33 10.61 5.71 18.65 15.62 23.18 25.61a56.53 56.53 0 00-6.82-11.26 44.75 44.75 0 018.2 16.8zm1.71 12.75a39.23 39.23 0 01.27 4.62c-.09-1.58-.18-3.11-.27-4.62zM66 9.32a54.7 54.7 0 00-20.71 1c7.42-2 15.91-3.06 23.43-.94L66 9.32zm9.48 3.23A39.32 39.32 0 0192.37 23a43.69 43.69 0 00-16.91-10.45zM22.35 16c.8-.66 1.6-1.28 2.4-1.88-.81.61-1.61 1.24-2.4 1.88zm83.93 67.9a7.8 7.8 0 00-1.56 2.61c1.41-1.6 3.64-5.14 4.65-6l-.2 2c4.06-4.42 6.65-15.09 8.07-21.07-2.53 14.49-9.67 30.28-22.91 41.31-13 11.09-32.17 15.93-48.64 11.5A62.44 62.44 0 013.61 81.5C2 78.48.21 70.37.27 64.54A65.44 65.44 0 015 34C14.13 13.41 35.88.25 59.6 0c4.86.15 10.79 2.62-.41 2.82a72.37 72.37 0 00-21.31 5.4 56.94 56.94 0 0114.58-3.84c-2.14.43-4.3.82-6.17 1.25A63.07 63.07 0 0175.91 7.2a62.41 62.41 0 00-41.56 5.31C21.52 19.09 11.44 31 7.67 44.31 11 37.42 15.12 27.8 21 24A55.82 55.82 0 005.57 57.48c0-1-.09-1.89 0-2.83-1.85 7.88-.36 16.65 2.1 24.23a55.77 55.77 0 01-2-21.41c0 3.25.06 6.66.41 10.75.19-2.25.17-5.43.51-8.57a48.07 48.07 0 012-12.17 41.3 41.3 0 00-.74 18c-.29-8.35 1.15-17.04 4.71-24.6A51.35 51.35 0 009.13 54.1a50.65 50.65 0 001.26 23l-.29-.85a14.39 14.39 0 00.58 1.69 53.71 53.71 0 003.6 8.55A30.65 30.65 0 0019.4 93l.83 1c-.67-.56-1.14-.73-.17.64 4.2 6 11.06 10.09 18.14 14.3a25.44 25.44 0 007.8 2.74 2.73 2.73 0 001.69.33c.67.11 1.34.29 2 .36 1.66.22 3.32.49 5 .54-1.61-.19-3.28-.38-5-.54-.63-.08-1.22-.27-1.84-.39a4.44 4.44 0 011.84 0A54.06 54.06 0 0120.23 94c.62.41 1.43 1 1.8 1.26A23.81 23.81 0 0119.4 93a53.85 53.85 0 01-6.24-9.69 16.74 16.74 0 001.89 2.56A53.91 53.91 0 019.13 54.1a50.69 50.69 0 0113.63-26.75 40 40 0 00-10.2 13.53c5.92-14.47 19.16-26.11 34.55-29.15a36 36 0 00-5.66 3.57 26.72 26.72 0 014.63-1.84l.84-.2a48.27 48.27 0 00-5.57 2.12 6.81 6.81 0 00-1.22 1.26c.26.29 4.78-1.06 2.3.13-8.57 4.86-14.49 9-15.16 13.73 0 .07.12.08.33 0A44.51 44.51 0 01106.36 59a45.9 45.9 0 01-.39 5.82c.27-.7.55-1.37.82-2.21.26 8.34-3.8 16.94-7 24.21 6.39-7.3 8.67-20.65 10.7-22 2.92-1.29-1.32 14.09-5.58 20.76l1.34-1.67zM32.79 10.61v.08c.75-.42 1.5-.8 2.26-1.17-.75.35-1.48.71-2.21 1.09.66-1.06 4.76-2.74 6.57-3.81a48.28 48.28 0 00-14.6 7.33 58.44 58.44 0 017.39-4.85A57.63 57.63 0 008.26 33.59c-1.89 4-5.86 6.94-5.85 13.76a62 62 0 0130.38-36.74zm-5.34 77.08l.17-.22c-.52-.63-1-1.27-1.52-1.92a11.11 11.11 0 01.6 1.79 16.33 16.33 0 011.89 1.38 5.75 5.75 0 00-1.14-1zm23.36 14.44l.28.2h.43l-.71-.17zm6.85 1.18l2 .42a3 3 0 00.53-.26c-.83 0-1.67-.08-2.49-.16zM69.07 13a48.38 48.38 0 0112.52 3.92 39.57 39.57 0 0112.57 10.36A50 50 0 0069.07 13z" fill="#2ab200"/>
        <path d="M59.71 87a27.86 27.86 0 01-13.12-3.27l-15.42 4.19 4.51-14.6A27.95 27.95 0 1159.71 87zm0-51.33a23.39 23.39 0 00-19 36.95L38 81.35l8.93-2.42.33-.09a23.38 23.38 0 1012.45-43.16zm14.23 30.68c-.15 1.07-.53 5.19-6.26 5.63 0 0-5.54.19-11.75-4.61A33.46 33.46 0 0147.78 58l-.29-.51a10.55 10.55 0 01-1.29-5v-.61a6 6 0 013.69-5.36s2.28-.34 2.67 0l2.53 5.68a2.06 2.06 0 010 2.28c-.83 1-1.5 1.79-1.5 1.79s-.73.53 0 1.6 3.73 5.68 8.92 7.72a1.72 1.72 0 002.29-.87l1.65-2.13s.39-.54 1.65 0S73.35 65 73.35 65s.72.24.58 1.31z" fill="#fff"/>
    </g>
</symbol></svg>