<?xml version="1.0" encoding="UTF-8"?><!DOCTYPE svg PUBLIC "-//W3C//DTD SVG 1.1//EN" "http://www.w3.org/Graphics/SVG/1.1/DTD/svg11.dtd"><svg xmlns="http://www.w3.org/2000/svg" xmlns:xlink="http://www.w3.org/1999/xlink"><symbol id="ico-color-callMe" viewBox="0 0 117.39 115.97">
    <g id="&#x421;&#x43B;&#x43E;&#x439;_2">
        <g id="Design">
            <path d="M62.11 91.94v24c30.64-.14 55.28-5.46 55.28-12s-24.64-11.87-55.28-12z" fill="#231f20" opacity=".15"/>
            <path d="M113.46 44c-1.13-1.73-2.28-5.88-3.48-6.47-6.69-14.15-19-25.94-34-31 6.53.39 9.32 4.16 13 6.33 10.61 5.71 18.65 15.62 23.18 25.61a56.44 56.44 0 00-6.82-11.26 44.76 44.76 0 018.2 16.8zm1.71 12.75a39.67 39.67 0 01.27 4.62c-.09-1.58-.19-3.11-.27-4.62zM66 9.32a54.69 54.69 0 00-20.71 1c7.41-2 15.91-3.06 23.43-.94L66 9.32zm9.48 3.23A39.32 39.32 0 0192.37 23a43.7 43.7 0 00-16.91-10.45zM22.35 16c.8-.66 1.6-1.28 2.4-1.88-.81.61-1.61 1.24-2.4 1.88zm83.93 67.9a7.8 7.8 0 00-1.57 2.61c1.41-1.6 3.64-5.14 4.65-6l-.19 2c4.06-4.42 6.65-15.09 8.07-21.07-2.53 14.49-9.67 30.28-22.91 41.31-13 11.09-32.17 15.93-48.64 11.5A62.44 62.44 0 013.61 81.5C2 78.48.21 70.37.27 64.54A65.46 65.46 0 015 34C14.13 13.41 35.88.25 59.6 0c4.86.15 10.79 2.62-.41 2.82a72.35 72.35 0 00-21.31 5.4 56.92 56.92 0 0114.58-3.84c-2.14.43-4.3.82-6.17 1.25A63.07 63.07 0 0175.91 7.2a62.42 62.42 0 00-41.56 5.31C21.52 19.09 11.44 31 7.67 44.31 11 37.42 15.12 27.8 21 24A55.81 55.81 0 005.57 57.48c0-1-.09-1.89 0-2.83-1.85 7.88-.36 16.65 2.1 24.23a55.8 55.8 0 01-2-21.41c0 3.25.06 6.66.41 10.75.19-2.25.17-5.43.51-8.57a48.08 48.08 0 012-12.17 41.3 41.3 0 00-.73 18c-.3-8.35 1.14-17.04 4.7-24.6A51.36 51.36 0 009.13 54.1a50.65 50.65 0 001.26 23l-.29-.85a14.49 14.49 0 00.59 1.69 53.55 53.55 0 003.6 8.55A30.58 30.58 0 0019.4 93l.83 1c-.67-.56-1.14-.73-.17.64 4.2 6 11.06 10.09 18.14 14.3a25.44 25.44 0 007.8 2.74 2.73 2.73 0 001.69.33c.67.11 1.34.29 2 .36 1.66.22 3.32.49 5 .54-1.61-.19-3.28-.38-5-.54-.63-.08-1.22-.27-1.84-.39a4.44 4.44 0 011.84 0A54.06 54.06 0 0120.23 94c.62.41 1.43 1 1.8 1.26A24 24 0 0119.4 93a53.76 53.76 0 01-6.24-9.69 16.82 16.82 0 001.89 2.56A53.94 53.94 0 019.13 54.1a50.7 50.7 0 0113.63-26.75 40 40 0 00-10.2 13.53c5.91-14.47 19.16-26.11 34.55-29.15a36 36 0 00-5.66 3.57 26.78 26.78 0 014.63-1.84l.84-.2a48.39 48.39 0 00-5.57 2.12 6.84 6.84 0 00-1.22 1.26c.26.29 4.78-1.06 2.3.13-8.57 4.86-14.49 9-15.16 13.73 0 .07.12.08.33 0A44.51 44.51 0 01106.36 59a45.82 45.82 0 01-.39 5.82c.27-.7.55-1.37.82-2.21.26 8.34-3.8 16.94-7 24.21 6.39-7.3 8.67-20.65 10.7-22 2.92-1.29-1.32 14.09-5.58 20.76l1.34-1.67zM32.79 10.61v.08c.75-.42 1.5-.8 2.26-1.17-.75.35-1.48.71-2.21 1.09.66-1.06 4.76-2.74 6.57-3.81a48.29 48.29 0 00-14.6 7.33 58.52 58.52 0 017.39-4.85A57.63 57.63 0 008.26 33.59c-1.89 4-5.86 6.94-5.85 13.76a62 62 0 0130.38-36.74zm-5.34 77.08l.17-.22c-.52-.63-1-1.27-1.52-1.92a11.11 11.11 0 01.6 1.79 16.25 16.25 0 011.89 1.38 5.8 5.8 0 00-1.14-1zm23.35 14.44l.28.2h.43l-.71-.17zm6.85 1.18l2 .42a2.91 2.91 0 00.53-.26c-.83 0-1.67-.08-2.49-.16zM69.07 13a48.39 48.39 0 0112.52 3.92 39.58 39.58 0 0112.57 10.36A50 50 0 0069.07 13z" fill="#7c529d"/>
            <path d="M77.83 64.18l-2.38-.26a18.29 18.29 0 00-20.14-20.13l-.25-2.39a20.68 20.68 0 0122.77 22.78zm-5.17-.55l-2.38-.25A13.09 13.09 0 0055.86 49l-.25-2.39a15.49 15.49 0 0117.05 17.02zm-5.26-.56l-2.4-.25a7.8 7.8 0 00-8.6-8.6l-.25-2.39a10.2 10.2 0 0111.26 11.24zm10 21.51c-3 3.25-5.17 4.46-14 1.56s-18.33-12-18.33-12S36 64.7 33.1 55.85s-1.7-11 1.56-14 6.09-.85 7.5.71 5.95 7.93 5.95 7.93 1.49 2.76-.43 4.53-3.39 2.12-3.85 3.57-1 2 .88 5.07l.37.57a34.24 34.24 0 0010 10l.57.37c3 1.91 3.61 1.35 5.06.88s1.8-1.94 3.57-3.85 4.52-.42 4.52-.42 6.37 4.53 7.93 5.94 3.68 4.25.71 7.5z" fill="#fff"/>
        </g>
    </g>
</symbol><symbol id="ico-color-example" viewBox="0 0 51.9 51.9">
    <circle cx="26" cy="26" r="26" fill="#fc2c38"/>
    <path d="M40 21.9h-.8l-3.1-8.7H16l-3.1 8.7H8.8v2.8h3.1v14h5.4v-4.4h17.3v4.4H40V24.6h3.1v-2.8H40zm-22.1-6.5h16.5l2.4 6.5H15.5l2.4-6.5zm3.9 13.7h-6.5v-2.8h6.5v2.8zm15.3 0h-6.5v-2.8h6.5v2.8z" fill-rule="evenodd" clip-rule="evenodd" fill="#fff"/>
</symbol><symbol id="ico-color-facebook" viewBox="0 0 117.25 116.57">
    <g id="&#x421;&#x43B;&#x43E;&#x439;_2">
        <g id="Design">
            <path d="M58.17 92.54v24c30.64-.14 55.28-5.46 55.28-12s-24.64-11.87-55.28-12z" fill="#231f20" opacity=".15"/>
            <path d="M113.46 44c-1.13-1.73-2.28-5.88-3.48-6.47-6.69-14.15-19-25.94-34-31 6.53.39 9.32 4.16 13 6.33 10.61 5.71 18.65 15.62 23.18 25.61a56.48 56.48 0 00-6.82-11.26 44.75 44.75 0 018.2 16.8zm1.71 12.75a39.74 39.74 0 01.27 4.62c-.09-1.57-.19-3.11-.27-4.62zM66 9.32a54.68 54.68 0 00-20.71 1c7.41-2 15.91-3.06 23.43-.94L66 9.32zm9.48 3.23A39.31 39.31 0 0192.37 23a43.68 43.68 0 00-16.9-10.42zM22.35 16c.8-.66 1.6-1.28 2.4-1.87-.81.61-1.61 1.24-2.4 1.87zm83.93 67.9a7.8 7.8 0 00-1.57 2.61c1.41-1.6 3.64-5.14 4.65-6l-.19 2c4.06-4.42 6.65-15.09 8.07-21.07-2.53 14.5-9.68 30.28-22.91 41.32-13 11.09-32.16 15.92-48.64 11.5A62.44 62.44 0 013.61 81.5C2 78.48.21 70.37.27 64.54A65.47 65.47 0 015 34C14.13 13.41 35.88.25 59.6 0c4.86.15 10.79 2.62-.41 2.82a72.31 72.31 0 00-21.31 5.4 57 57 0 0114.58-3.84c-2.14.43-4.3.82-6.17 1.26A63.08 63.08 0 0175.91 7.2a62.42 62.42 0 00-41.56 5.31C21.52 19.09 11.44 31 7.67 44.31 11 37.42 15.12 27.79 21 24A55.82 55.82 0 005.57 57.48c0-1-.09-1.89 0-2.82-1.85 7.88-.36 16.65 2.1 24.23a55.81 55.81 0 01-2-21.41c0 3.25.06 6.66.41 10.75.19-2.25.17-5.43.51-8.57a48.11 48.11 0 012-12.17 41.29 41.29 0 00-.73 18c-.3-8.36 1.14-17.05 4.7-24.61A51.32 51.32 0 009.13 54.1a50.67 50.67 0 001.26 23l-.29-.85a14.42 14.42 0 00.59 1.69 53.4 53.4 0 003.6 8.55A30.51 30.51 0 0019.4 93l.83 1c-.67-.56-1.14-.73-.17.64 4.2 6 11.06 10.09 18.14 14.3a25.47 25.47 0 007.8 2.74 2.72 2.72 0 001.69.33c.67.11 1.34.29 2 .36 1.66.22 3.32.49 5 .54-1.61-.19-3.28-.38-5-.54-.63-.08-1.22-.27-1.84-.39a4.42 4.42 0 011.84 0A54.06 54.06 0 0120.23 94c.62.41 1.43 1 1.8 1.26A24 24 0 0119.4 93a53.69 53.69 0 01-6.24-9.69 16.81 16.81 0 001.89 2.56A53.92 53.92 0 019.13 54.1a50.7 50.7 0 0113.63-26.75 40 40 0 00-10.2 13.53c5.92-14.47 19.16-26.11 34.55-29.15a36.09 36.09 0 00-5.66 3.57 26.8 26.8 0 014.63-1.84l.84-.2a48 48 0 00-5.57 2.12 6.83 6.83 0 00-1.22 1.26c.26.29 4.78-1.06 2.3.13-8.56 4.86-14.49 9-15.16 13.74 0 .07.12.08.33 0A44.51 44.51 0 01106.36 59a45.89 45.89 0 01-.39 5.82c.27-.7.54-1.37.82-2.21.26 8.34-3.8 16.94-7 24.21 6.38-7.3 8.67-20.65 10.7-22 2.92-1.29-1.32 14.09-5.58 20.76l1.34-1.67zM32.79 10.61v.08c.75-.42 1.5-.81 2.26-1.17-.74.35-1.48.71-2.21 1.09.66-1.06 4.76-2.74 6.57-3.81a48.24 48.24 0 00-14.6 7.33 58.56 58.56 0 017.39-4.85A57.64 57.64 0 008.26 33.59c-1.89 4-5.86 6.94-5.85 13.76a62 62 0 0130.38-36.74zm-5.34 77.08l.17-.22c-.52-.63-1-1.27-1.52-1.92a11 11 0 01.6 1.79 16.43 16.43 0 011.89 1.39 5.79 5.79 0 00-1.14-1zm23.35 14.44l.28.2h.44l-.71-.17zm6.85 1.18l2 .42a2.85 2.85 0 00.53-.26c-.83 0-1.67-.08-2.49-.16zM69.07 13a48.4 48.4 0 0112.52 3.92 39.59 39.59 0 0112.57 10.36A50 50 0 0069.07 13z" fill="#3b5998"/>
            <path d="M69.7 61.5h-8v28.84H49.8V61.5h-6v-9.95h6v-6c0-8.11 3.37-12.93 12.94-12.93h8v9.98h-5c-3.72 0-4 1.39-4 4v5h9l-1.04 9.9z" fill="#fff"/>
        </g>
    </g>
</symbol><symbol id="ico-color-instagram" viewBox="0 0 117.25 115.97">
    <g id="&#x421;&#x43B;&#x43E;&#x439;_2">
        <g id="Design">
            <path d="M61.5 91.94v24c30.64-.14 55.28-5.46 55.28-12s-24.64-11.87-55.28-12z" fill="#231f20" opacity=".15"/>
            <path d="M113.46 44c-1.13-1.73-2.28-5.88-3.48-6.47-6.69-14.15-19-25.94-34-31 6.53.39 9.32 4.16 13 6.33 10.61 5.71 18.65 15.62 23.17 25.61a56.43 56.43 0 00-6.82-11.26A44.79 44.79 0 01113.46 44zm1.71 12.75a39.9 39.9 0 01.27 4.62c-.09-1.58-.18-3.11-.27-4.62zM66 9.32a54.63 54.63 0 00-20.71 1c7.41-2 15.91-3.06 23.43-.94L66 9.32zm9.48 3.23A39.32 39.32 0 0192.37 23a43.68 43.68 0 00-16.91-10.45zM22.35 16c.8-.66 1.6-1.28 2.4-1.87-.81.61-1.61 1.23-2.4 1.87zm83.93 67.9a7.8 7.8 0 00-1.57 2.61c1.41-1.6 3.64-5.14 4.65-6l-.19 2c4.05-4.42 6.65-15.09 8.07-21.07-2.53 14.49-9.67 30.28-22.91 41.31-13 11.09-32.17 15.93-48.64 11.5A62.43 62.43 0 013.61 81.5C2 78.48.21 70.37.27 64.54A65.45 65.45 0 015 34C14.13 13.41 35.88.25 59.6 0c4.86.15 10.79 2.62-.41 2.82a72.34 72.34 0 00-21.31 5.4 57 57 0 0114.58-3.84c-2.14.43-4.3.82-6.17 1.26A63.09 63.09 0 0175.91 7.2a62.41 62.41 0 00-41.56 5.31C21.52 19.09 11.44 31 7.67 44.31 11 37.42 15.12 27.79 21 24A55.82 55.82 0 005.57 57.48c0-1-.09-1.89 0-2.83-1.85 7.88-.36 16.65 2.09 24.23a55.83 55.83 0 01-2-21.41c0 3.25.06 6.66.41 10.75.19-2.25.17-5.43.51-8.57a48 48 0 012-12.17 41.31 41.31 0 00-.73 18c-.29-8.35 1.15-17.04 4.71-24.6A51.39 51.39 0 009.13 54.1a50.65 50.65 0 001.26 23l-.29-.85a14.79 14.79 0 00.59 1.7 53.48 53.48 0 003.6 8.55A30.58 30.58 0 0019.4 93l.83 1c-.67-.56-1.14-.73-.17.64 4.2 6 11.06 10.08 18.14 14.3a25.46 25.46 0 007.8 2.74 2.73 2.73 0 001.69.33c.67.11 1.34.29 2 .36 1.66.22 3.32.49 5 .54-1.61-.19-3.29-.38-5-.54-.63-.08-1.22-.27-1.84-.39a4.4 4.4 0 011.84 0A54.05 54.05 0 0120.23 94c.62.41 1.43 1 1.8 1.26A24.2 24.2 0 0119.4 93a53.92 53.92 0 01-6.24-9.68 17 17 0 001.89 2.56A53.93 53.93 0 019.13 54.1a50.7 50.7 0 0113.63-26.75 40 40 0 00-10.2 13.53c5.92-14.47 19.16-26.11 34.55-29.15a36 36 0 00-5.66 3.57 26.9 26.9 0 014.63-1.84l.84-.2a48.12 48.12 0 00-5.57 2.12 6.77 6.77 0 00-1.22 1.27c.26.29 4.78-1.06 2.3.13-8.57 4.86-14.49 9-15.16 13.74 0 .07.12.07.33 0A44.51 44.51 0 01106.36 59a45.73 45.73 0 01-.39 5.82c.27-.7.55-1.37.82-2.21.26 8.34-3.8 16.94-7 24.21 6.38-7.3 8.67-20.65 10.7-22 2.92-1.29-1.32 14.09-5.58 20.76l1.34-1.67zM32.79 10.61v.09c.75-.42 1.5-.81 2.26-1.18-.74.35-1.48.71-2.21 1.09.66-1.06 4.76-2.74 6.57-3.81a48.23 48.23 0 00-14.61 7.33 58.49 58.49 0 017.4-4.85A57.63 57.63 0 008.26 33.59c-1.89 4-5.86 6.94-5.85 13.76a62 62 0 0130.38-36.74zm-5.34 77.08l.17-.22c-.52-.63-1-1.27-1.52-1.92a11.05 11.05 0 01.6 1.79 16.16 16.16 0 011.89 1.38 5.77 5.77 0 00-1.14-1zm23.35 14.44l.28.2h.43l-.71-.17zm6.86 1.18l2 .42a2.77 2.77 0 00.53-.26c-.83 0-1.67-.08-2.49-.16zM69.07 13a48.37 48.37 0 0112.52 3.92 39.61 39.61 0 0112.57 10.36A50 50 0 0069.07 13z" fill="#c13584"/>
            <path d="M73.15 86.79H43.26A11.12 11.12 0 0132 75.82V45a11.12 11.12 0 0111.23-11h29.92a11.11 11.11 0 0111.23 11v30.82a11.12 11.12 0 01-11.23 11zM79.86 45a6.6 6.6 0 00-6.71-6.46H43.26A6.59 6.59 0 0036.54 45v30.82a6.59 6.59 0 006.71 6.45h29.9a6.6 6.6 0 006.71-6.45V45zM58.2 74.11a13.69 13.69 0 1113.69-13.68A13.7 13.7 0 0158.2 74.11zm0-22.85a9.17 9.17 0 109.17 9.17 9.17 9.17 0 00-9.17-9.17zm14.69-2a3.2 3.2 0 113.2-3.2 3.2 3.2 0 01-3.2 3.2z" fill="#fff"/>
        </g>
    </g>
</symbol><symbol id="ico-color-logo" viewBox="0 0 512 512">
    <path d="M64 290.059c2.629 0 5.21-1.07 7.07-2.93a10.087 10.087 0 002.93-7.07c0-2.641-1.07-5.207-2.93-7.079-1.86-1.859-4.441-2.921-7.07-2.921s-5.21 1.062-7.07 2.921A10.098 10.098 0 0054 280.06c0 2.632 1.07 5.203 2.93 7.07a10.08 10.08 0 007.07 2.93zm0 0"/>
    <path d="M64 388.379c5.523 0 10-4.48 10-10V314.71c0-5.524-4.477-10-10-10s-10 4.476-10 10v63.668c0 5.52 4.477 10 10 10zm0 0"/>
    <path d="M462 153.07h-24.176c-.492 0-.972.047-1.445.118l-36.95-59.403a10.007 10.007 0 00-8.492-4.715H223.734a9.997 9.997 0 00-8.492 4.715l-36.875 59.285H126v-2c0-20.953-17.047-38-38-38s-38 17.047-38 38v2c-27.57 0-50 22.43-50 50V462c0 27.57 22.43 50 50 50h412c27.57 0 50-22.43 50-50V361.066c0-5.523-4.477-10-10-10s-10 4.477-10 10v85.946H379.48c38.364-23.707 63.985-66.149 63.985-114.465s-25.621-90.758-63.985-114.465H492v61.973c0 5.523 4.477 10 10 10s10-4.477 10-10V203.07c0-27.57-22.43-50-50-50zm-232.71-44h156.089l27.371 44H201.922zM70 151.07c0-9.925 8.074-18 18-18s18 8.075 18 18v2H70zm168.52 67.012c-35.692 22.059-60.348 60.324-63.614 104.453h-14.57c-5.524 0-10 4.477-10 10 0 5.524 4.476 10 10 10h14.57c3.254 44.14 27.914 82.418 63.614 104.477H126v-228.93zM106 447.012H20v-228.93h86zm385.574 20C489.18 481.176 476.832 492 462 492H50c-14.832 0-27.18-10.824-29.574-24.988zm-68.11-134.465c0 63.117-51.347 114.465-114.464 114.465s-114.465-51.348-114.465-114.465c0-63.113 51.348-114.465 114.465-114.465s114.465 51.348 114.465 114.465zM20.423 198.082C22.805 183.906 35.156 173.07 50 173.07h412c14.844 0 27.195 10.836 29.578 25.012zm0 0"/>
    <path d="M502 308.941c-2.629 0-5.21 1.059-7.07 2.918a10.1 10.1 0 00-2.93 7.07c0 2.641 1.07 5.22 2.93 7.083 1.86 1.855 4.441 2.93 7.07 2.93s5.21-1.07 7.07-2.93a10.093 10.093 0 002.93-7.082 10.1 10.1 0 00-2.93-7.07 10.068 10.068 0 00-7.07-2.919zm0 0"/>
    <path d="M302.527 395.613a10.01 10.01 0 009.617 0c6.118-3.351 59.774-33.8 59.774-69.379 0-23.683-18.672-42.953-41.617-42.953-8.203 0-16.203 2.535-22.965 7.145-6.762-4.61-14.766-7.145-22.969-7.145-22.945 0-41.613 19.27-41.613 42.953 0 35.579 53.656 66.028 59.773 69.38zm-18.16-92.332c5.922 0 11.45 2.496 15.563 7.028a10.004 10.004 0 007.406 3.28c2.816 0 5.508-1.19 7.402-3.276 4.117-4.536 9.645-7.032 15.563-7.032 11.922 0 21.617 10.297 21.617 22.953 0 16.532-25.617 37.614-44.582 49.067-18.973-11.453-44.582-32.535-44.582-49.067 0-12.656 9.695-22.953 21.613-22.953zm0 0"/>
    <path d="M309 256.563c41.898 0 75.984 34.085 75.984 75.984 0 5.523 4.477 10 10 10s10-4.477 10-10c0-52.926-43.058-95.985-95.984-95.985-5.523 0-10 4.477-10 10s4.477 10 10 10zm0 0"/>
    <path d="M307.45 55.488c5.523 0 10-4.476 10-10V10c0-5.523-4.477-10-10-10-5.52 0-10 4.477-10 10v35.488c0 5.524 4.48 10 10 10zm0 0"/>
    <path d="M262.031 71.07a9.968 9.968 0 007.07 2.93 9.968 9.968 0 007.07-2.93c3.907-3.902 3.907-10.234 0-14.14l-24.644-24.645c-3.906-3.906-10.238-3.906-14.144 0s-3.906 10.238 0 14.14zm0 0"/>
    <path d="M346.258 73.348a9.955 9.955 0 007.07-2.934l23.961-23.973c3.902-3.906 3.902-10.238-.004-14.14-3.906-3.903-10.238-3.903-14.144.004l-23.957 23.972c-3.907 3.907-3.903 10.239.003 14.145a9.973 9.973 0 007.07 2.926zm0 0"/>
</symbol><symbol id="ico-color-photographer" viewBox="0 0 168.73 232.96">
    <g id="Layer_2">
        <g id="Objects">
            <path d="M1 216.68h149a1.05 1.05 0 000-2.1H1a1.05 1.05 0 000 2.1z"/>
            <path d="M10.52 219.36c8.14 0 16.27.57 24.41.62a1.05 1.05 0 000-2.1c-8.14 0-16.27-.58-24.41-.62a1.05 1.05 0 000 2.1z"/>
            <path d="M54.08 220.91h3.4a1.06 1.06 0 000-2.11h-3.4a1.06 1.06 0 000 2.11z"/>
            <path d="M64.59 221.52a9.2 9.2 0 012.81.28 1.05 1.05 0 00.55-2 11.18 11.18 0 00-3.36-.35 1.05 1.05 0 000 2.1z"/>
            <path d="M37.09 219.36c12.56 0 25.13.29 37.69.31a1.05 1.05 0 000-2.1c-12.56 0-25.13-.29-37.69-.31a1.05 1.05 0 000 2.1z"/>
            <path d="M97 220h1.54a1.05 1.05 0 000-2.1H97a1.05 1.05 0 000 2.1z"/>
            <path d="M103.49 219.63a24.28 24.28 0 014.35-.27 1.05 1.05 0 000-2.1 26.06 26.06 0 00-4.91.35c-1.34.24-.77 2.27.56 2z"/>
            <path d="M81.58 218.13a24.44 24.44 0 014.66.58c1.33.26 1.89-1.77.56-2a29.58 29.58 0 00-5.22-.66 1.06 1.06 0 000 2.11z"/>
            <path d="M119 220a77.07 77.07 0 008 .31 1.05 1.05 0 000-2.1 79.92 79.92 0 01-8-.31c-1.34-.14-1.33 2 0 2.1z"/>
            <path d="M28.75 224c9.9 0 19.8.5 29.63-1 1.33-.2.76-2.22-.56-2-9.64 1.44-19.37.93-29.07.89a1.06 1.06 0 000 2.11z"/>
            <path d="M67.37 223.07a93.13 93.13 0 0013.25-.66c1.34-.19.77-2.21-.56-2a91.17 91.17 0 01-12.69.58 1.05 1.05 0 000 2.1z"/>
            <path d="M88.07 222.45c7.1-.26 14.21 0 21.32 0a1.05 1.05 0 000-2.1c-7.11 0-14.22-.26-21.32 0-1.35.05-1.36 2.15 0 2.1z"/>
            <path d="M76.94 226.47a63.64 63.64 0 017.42-.62 1.05 1.05 0 000-2.1 65.88 65.88 0 00-7.42.61c-1.32.17-1.34 2.27 0 2.11z"/>
            <path d="M49.14 228h4a1.05 1.05 0 000-2.1h-4a1.05 1.05 0 000 2.1z"/>
            <path d="M67 227.05a16.12 16.12 0 015 0c1.33.2 1.9-1.82.56-2a19.63 19.63 0 00-6.12 0c-1.34.21-.77 2.23.56 2z"/>
            <path d="M98.57 229.56h.62a1.06 1.06 0 000-2.11h-.62a1.06 1.06 0 000 2.11z"/>
            <path d="M68.6 233h1.55a1.06 1.06 0 000-2.11H68.6a1.06 1.06 0 000 2.11z"/>
            <path d="M114.93 40.07c2.42 0 4.83-.19 7.25-.22 4.2 0 4 2.5 4.66 5.82 1.16 6.2 2 12.66.26 18.82a1.05 1.05 0 002 .56c2.45-8.57.19-17.59-1.44-26.1a1 1 0 00-.74-.73c-4-.71-8-.33-12-.25a1.05 1.05 0 000 2.1z"/>
            <path d="M127.5 65c-4.2 0-8.38-.23-12.57-.53-1.35-.09-1.34 2 0 2.1 4.19.3 8.37.52 12.57.53a1.05 1.05 0 000-2.1z"/>
            <path d="M113.06 39.43v23.69a1.05 1.05 0 002.1 0V39.43a1.05 1.05 0 00-2.1 0z"/>
            <path d="M117.22 65.52c-1.48 6.08-3.84 11.83-6.07 17.67-2.35 6.16-3.73 12.72-6.7 18.63-.61 1.2 1.2 2.27 1.81 1.06 2.43-4.83 3.77-10 5.47-15.15 2.4-7.28 5.69-14.18 7.51-21.65.32-1.32-1.7-1.88-2-.56z"/>
            <path d="M121.34 65.93c-4.41 14.92-8.3 30-13.7 44.58-.47 1.28 1.56 1.82 2 .56 5.4-14.61 9.29-29.66 13.69-44.58a1 1 0 00-2-.56z"/>
            <path d="M118.82 65.26c-2.08-1.94-4.42-3.61-4.64-6.67-.25.34-.51.68-.77 1a2.65 2.65 0 00.93-.58h-1.49c1.28 1.49 2.11 3.29 3.24 4.89.77 1.1 2.59.05 1.81-1.06a63.82 63.82 0 00-3.56-5.31 1.06 1.06 0 00-1.49 0 1.07 1.07 0 00-.77 1c.27 3.74 2.67 5.75 5.25 8.16 1 .92 2.48-.56 1.49-1.49z"/>
            <path d="M117.37 63a2.47 2.47 0 002.4 2c1.36.06 1.35-2 0-2.11-.29 0-.31-.18-.37-.46-.31-1.32-2.34-.76-2 .56z"/>
            <path d="M119.76 63.62c-2.8-6.48 2.56-14.94 8.42-17.72 1.23-.58.16-2.39-1.06-1.81-7 3.34-12.42 13.06-9.18 20.59.53 1.24 2.35.17 1.82-1.06z"/>
            <path d="M127.12 46.21c1.94 1.33.12 4.29-.17 6.07-.22 1.33 1.81 1.9 2 .56.49-3.05 2.44-6.22-.8-8.44-1.12-.77-2.17 1.05-1.06 1.81z"/>
            <path d="M128.15 49a14.65 14.65 0 00-2.75 5c-.5 1.26 1.54 1.81 2 .57a12 12 0 012.2-4c.94-1-.55-2.47-1.48-1.49z"/>
            <path d="M126.91 51.64c.18 1.51.64 3 .75 4.49.15 2.17-1.65 4.09-2.77 5.79-.75 1.14 1.08 2.19 1.82 1.06a20.63 20.63 0 002.88-5.19c.62-2-.35-4.18-.58-6.15-.15-1.33-2.26-1.35-2.1 0z"/>
            <path d="M127.68 58.9c.16 3.61-3.31 5.61-6.49 6.09-1.33.2-.76 2.23.56 2 4.11-.62 8.22-3.61 8-8.12-.06-1.35-2.16-1.36-2.11 0z"/>
            <path d="M117.12 39c-.11-3.7 4.71-5.35 7.75-5.28a1.05 1.05 0 000-2.1c-4.22-.09-10 2.46-9.85 7.38 0 1.35 2.14 1.36 2.1 0z"/>
            <path d="M124.74 33.17c1 1.32.54 3.59.82 5.15.23 1.34 2.26.77 2-.56-.31-1.82.15-4.08-1-5.65-.8-1.07-2.63 0-1.81 1.06z"/>
            <path d="M128 44.5h14.21a1.05 1.05 0 000-2.1H128a1.05 1.05 0 000 2.1z"/>
            <path d="M129.35 65.36h2.32a1.06 1.06 0 000-2.11h-2.32a1.06 1.06 0 000 2.11z"/>
            <path d="M130 65.36h13.75a1.06 1.06 0 000-2.11H130a1.06 1.06 0 000 2.11z"/>
            <path d="M142.71 44.5a29.47 29.47 0 011.7 15.5c-.25 1.32 1.77 1.89 2 .56a31.48 31.48 0 00-1.7-16.63c-.46-1.26-2.49-.71-2 .56z"/>
            <path d="M144.06 61.68V62a1.05 1.05 0 002.1 0v-.31a1.05 1.05 0 00-2.1 0z"/>
            <path d="M143.7 43.52a2.56 2.56 0 011-1.17c1.19-.66.13-2.48-1.06-1.82a4.56 4.56 0 00-1.76 1.93c-.63 1.2 1.18 2.26 1.81 1.06z"/>
            <path d="M146 41.72h.61a1.05 1.05 0 000-2.1H146a1.05 1.05 0 000 2.1z"/>
            <path d="M149 41.72c4.28 0 8.55-.14 12.82-.15a1.06 1.06 0 000-2.11c-4.27 0-8.54.15-12.82.16a1.05 1.05 0 000 2.1z"/>
            <path d="M162.5 41.89c6.23 4.64 4.88 19.41-.52 24-1 .88.46 2.36 1.48 1.49 6.61-5.6 7.41-21.85.1-27.3-1.09-.81-2.13 1-1.06 1.82z"/>
            <path d="M162.26 65.93c-2.47.2-4.93.17-7.4.23s-5 .5-7.46.12c-1.33-.2-1.9 1.82-.56 2a32.41 32.41 0 007.1 0c2.77-.18 5.55-.06 8.32-.27 1.34-.11 1.35-2.21 0-2.11z"/>
            <path d="M146.5 65.26a1.67 1.67 0 01-1.56-1 1.06 1.06 0 00-1.44-.38 1.08 1.08 0 00-.38 1.44 3.74 3.74 0 003.38 2.06c1.36 0 1.35-2.06 0-2.1z"/>
            <path d="M112.74 67.11c-4 11.39-7.7 22.9-12.15 34.12-.5 1.27 1.54 1.81 2 .56 4.45-11.22 8.15-22.73 12.14-34.12.45-1.28-1.58-1.83-2-.56z"/>
            <path d="M102.25 37.26c.38 10.43 3.83 19.39 9.41 28.13.72 1.14 2.54.08 1.81-1.06-5.37-8.42-8.75-17-9.12-27.07 0-1.35-2.15-1.36-2.1 0z"/>
            <path d="M112.57 64.43h-7.83a1.05 1.05 0 000 2.1h7.83a1.05 1.05 0 000-2.1z"/>
            <path d="M103.31 65.4c-2.43 12.26-9.12 24.69-20.83 30.17-1.23.57-.16 2.38 1.06 1.81C95.7 91.69 102.81 78.7 105.34 66c.26-1.32-1.76-1.89-2-.56z"/>
            <path d="M96.22 73.53c-2.86 1-6.69-2.24-6.5-5.17.09-1.35-2-1.34-2.1 0-.28 4.25 5.06 8.59 9.16 7.19 1.27-.43.73-2.46-.56-2z"/>
            <path d="M97 44.79c.16.27.26.56.42.83l.62-1.55a6.73 6.73 0 01-5.57-1.34c-1.13-.75-2.18 1.07-1.06 1.82a8.79 8.79 0 007.19 1.55 1.06 1.06 0 00.63-1.54c-.16-.27-.25-.56-.41-.83A1.05 1.05 0 0097 44.79z"/>
            <path d="M96.58 45.83a6.33 6.33 0 004.66 2 1.05 1.05 0 000-2.1 4.19 4.19 0 01-3.17-1.34c-.89-1-2.37.47-1.49 1.49z"/>
            <path d="M95.65 45.7A3.91 3.91 0 0098 49.49c1.2.63 2.26-1.18 1.06-1.81-.82-.43-1.46-1-1.33-2a1.06 1.06 0 00-1.05-1.05 1.09 1.09 0 00-1.06 1.05z"/>
            <path d="M93.8 45.29v1.44a1.05 1.05 0 002.1 0v-1.44a1.05 1.05 0 00-2.1 0z"/>
            <path d="M93.2 46.14a1.06 1.06 0 000-2.11 1.06 1.06 0 000 2.11z"/>
            <path d="M101.87 30.12c3 10.18-13.34 10.41-19.73 12.91-5.45 2.12-9.53 5.94-11 11.66a1.05 1.05 0 002 .56c2.5-10 13.46-11.72 22.09-13.57 6.26-1.35 10.49-5.6 8.6-12.12a1.05 1.05 0 00-2 .56z"/>
            <path d="M103.73 27.37c-.36-11.89-14.91-18.53-25.25-18.19-13.56.45-21.09 12.89-21.14 25.19a1.06 1.06 0 002.11 0c0-10.82 5.3-20 16.25-22.7 9.65-2.41 25.59 4.51 25.93 15.7 0 1.35 2.14 1.36 2.1 0z"/>
            <path d="M61.6 20.49a15.42 15.42 0 00-5.19-2c-1.33-.19-1.9 1.83-.56 2a13.46 13.46 0 014.69 1.75c1.18.66 2.24-1.16 1.06-1.82z"/>
            <path d="M54.77 18.8c-1.41 1.55-1.18 3.35-.93 5.28.17 1.32 2.28 1.34 2.1 0s-.61-2.78.31-3.79-.57-2.49-1.48-1.49z"/>
            <path d="M54.61 25.3a7.68 7.68 0 013.46 1.33 1.06 1.06 0 001.44-.37 1.08 1.08 0 00-.38-1.44 9 9 0 00-4-1.55c-1.32-.23-1.89 1.79-.56 2z"/>
            <path d="M57.76 18.85c-1.84-13.25-30-30.14-31.25-8.43-.46 8 3.45 14.76 4.33 22.5.5 4.35-.34 9-1.39 13.2-1.53 6.18-5.79 12.28-12 6.34-2.73-2.61-4.54-6.38-5.84-9.86a18.06 18.06 0 01-1-5.14 6.62 6.62 0 011.37-4.08 10.93 10.93 0 015-4.07 1 1 0 001.81 1.06c.16-.26.31-.52.46-.78a1.07 1.07 0 00-.37-1.43c-3.62-2.63-7.85 2.77-9.44 5.38-2.57 4.2.24 10.28 2.16 14.14 4.08 8.22 13.23 14 18.33 3.59C35.38 40 32 29.49 29.18 18.14c-1.24-5.06-1.4-13.65 4.46-16 3.07-1.25 6.89.53 9.55 2C48.7 7 54.84 13 55.73 19.41c.19 1.34 2.21.77 2-.56z"/>
            <path d="M18.56 28.07c-6.13-6.2-11.14 7.47-11.86 11.61C5.1 48.89 10.68 58.1 19 61.9c6 2.76 14.89 3.1 19-2.8 2.43-3.46 2.57-8.61 3-12.65A66.41 66.41 0 0041.31 36c-.13-2.94-2.2-9 2.33-10.08 1.32-.3.76-2.32-.56-2-3.88.88-4.63 4.16-4.27 7.81.79 8.08.86 16.65-1.69 24.45-3 9.09-16.51 5.35-21.89 1-4-3.21-6.11-8.32-6.62-13.27-.18-1.71 3.3-19.54 8.46-14.32a1.05 1.05 0 001.49-1.49z"/>
            <path d="M54.15 24c-4.39 4.49-9.26-3.56-14.41-.37-1.15.71-.1 2.53 1.06 1.81 2.68-1.66 5.47.74 8 1.77s5 .21 6.87-1.72c.94-1-.54-2.46-1.49-1.49z"/>
            <path d="M81.76 43.87c-3.24 1.58-4.77 5.18-4.85 8.63a1.05 1.05 0 002.1 0c.06-2.76 1.23-5.55 3.81-6.82 1.22-.59.15-2.4-1.06-1.81z"/>
            <path d="M77.34 52.07A3.11 3.11 0 0176 51.9l.52.91v-1.55a1.05 1.05 0 00-2.1 0v1.55a1 1 0 00.52.91 5.7 5.7 0 002.38.45 1.05 1.05 0 000-2.1z"/>
            <path d="M71.25 54.08c-.88-4.81-1-11.13 2.82-14.74 1-.93-.5-2.41-1.49-1.49-4.42 4.15-4.38 11.24-3.36 16.78.25 1.33 2.28.77 2-.55z"/>
            <path d="M57.76 34.27a48 48 0 00.6 12.09 58.47 58.47 0 01.71 8.76 17.05 17.05 0 01-.71 4.77q-9.48 6.63-7.81-1.89c.19-1.32-1.83-1.89-2-.56-.69 4.86 3.6 13.81 9.18 7.51 7.29-8.23 1.16-21.07 2.16-30.71.14-1.35-2-1.33-2.1 0z"/>
            <path d="M57.14 65.48c-.17 4.14-5.11 9.33-9 5.74-1-.91-2.49.57-1.49 1.49C52 77.6 59 71.53 59.24 65.48c0-1.36-2.05-1.35-2.1 0z"/>
            <path d="M53.55 76.17H51.7a1.05 1.05 0 000 2.1h1.85a1.05 1.05 0 000-2.1z"/>
            <path d="M66.1 68c0 7.5.31 16.27-6.59 21-1.11.76-.06 2.58 1.06 1.81C68.2 85.53 68.21 76.36 68.2 68a1.05 1.05 0 00-2.1 0z"/>
            <path d="M57.59 79.2c-1 2.33-3.94 2.11-5.92 1.54a1 1 0 00-.56 2c3.28.95 7.08.49 8.5-3 .52-1.25-1.52-1.79-2-.56z"/>
            <path d="M70.26 56.3c-2 3.18-2.34 6.94-3.92 10.29-.57 1.22 1.24 2.29 1.82 1.07 1.57-3.34 2-7.15 3.91-10.3.72-1.16-1.1-2.21-1.81-1.06z"/>
            <path d="M104.81 101.13C94.71 99 84.55 97 74.74 93.71c-1.29-.43-1.84 1.6-.56 2 9.82 3.29 20 5.24 30.07 7.41 1.33.29 1.89-1.74.56-2z"/>
            <path d="M108.65 109.74a150.51 150.51 0 01-43.8-4.08c-1.31-.33-1.87 1.7-.56 2a152.26 152.26 0 0044.36 4.16c1.35-.07 1.36-2.17 0-2.1z"/>
            <path d="M58.78 90.07c-8.31 10.48-14.8 21.2-18.39 34.15-3.17 11.42-5.27 24.61-2.45 36.29.32 1.31 2.34.75 2-.56-2.64-11-.57-22.86 2-33.62 3.22-13.22 9.88-24.2 18.26-34.78.83-1-.64-2.54-1.49-1.48z"/>
            <path d="M74.18 120.69c-5.52.76-9.48 7.91-11.9 12.24-3.8 6.81-5.64 17.08-4.15 24.69.26 1.33 2.29.77 2-.56-1.31-6.64.46-15.67 3.32-21.87 2-4.28 6.14-11.77 11.26-12.47 1.34-.18.77-2.21-.56-2z"/>
            <path d="M58.78 158.14c-4.39 4.27-16 3-20.76.35-1.19-.65-2.25 1.16-1.06 1.82 5.8 3.21 18.1 4.38 23.31-.68 1-.95-.51-2.43-1.49-1.49z"/>
            <path d="M57.14 165.71c14.11 11.12 23.36 29.48 29.08 46.18.43 1.28 2.46.73 2-.55-5.84-17.07-15.19-35.74-29.62-47.12-1-.83-2.55.65-1.48 1.49z"/>
            <path d="M87.23 211.18c-22.6.26-45.28-1.06-66.77-8.61-1.28-.45-1.82 1.58-.55 2 21.66 7.6 44.54 8.94 67.32 8.69a1.06 1.06 0 000-2.11z"/>
            <path d="M18.83 203.89a13.14 13.14 0 002.77 7.74c.79 1.08 2.62 0 1.81-1.06a11.41 11.41 0 01-2.48-6.68 1.05 1.05 0 00-2.1 0z"/>
            <path d="M22.22 212.11c2.9 1.15 6.13 1.69 8.87 3.19 1.19.66 2.25-1.16 1.06-1.81-2.91-1.59-6.3-2.19-9.37-3.4-1.26-.5-1.8 1.53-.56 2z"/>
            <path d="M31.31 214c-5.86.57-11.73.62-17.61.62a1.05 1.05 0 000 2.1c5.88 0 11.75-.05 17.61-.61 1.33-.13 1.35-2.24 0-2.11z"/>
            <path d="M13.52 215.29c1.66-6.52-3.51-13-6.64-18.25a1 1 0 00-1.81 1.06c2.79 4.68 7.9 10.84 6.43 16.64a1 1 0 002 .55z"/>
            <path d="M7 197.15c1.91-2.45 4.41-4.2 6.82-6.11 1.07-.84-.43-2.32-1.48-1.49-2.42 1.91-4.91 3.66-6.83 6.11-.82 1.06.66 2.56 1.49 1.49z"/>
            <path d="M37.09 161.22c3.51 18.88 17.68 32.95 33.91 42 1.18.66 2.24-1.16 1.06-1.82-15.79-8.84-29.53-22.39-32.94-40.77-.25-1.33-2.27-.77-2 .55z"/>
            <path d="M68.08 200.37c-17.95-.71-39.38 1.17-54.26-10.82-1-.84-2.54.64-1.48 1.49 15.41 12.42 37.13 10.7 55.74 11.43 1.35.05 1.35-2.05 0-2.1z"/>
            <path d="M13.3 191c-1.23 5.24 2.32 11.76 7.53 13.34a1.05 1.05 0 00.56-2c-4.08-1.23-7-6.64-6.06-10.76.31-1.31-1.72-1.87-2-.55z"/>
            <path d="M59.53 160.42c8.27-1.1 16.5-2.12 24.82-2.8 7.76-.63 16.23-1.2 23.49 2.11 1.23.55 2.3-1.26 1.07-1.82-6.65-3-13.92-3-21.08-2.63-9.49.48-18.89 1.78-28.3 3-1.33.17-1.34 2.28 0 2.1z"/>
            <path d="M107.32 158.82c0 6.77-.53 13.52-.51 20.29s-1.54 13.48-1.21 20.32c.07 1.34 2.17 1.35 2.1 0-.33-6.82 1.07-13.52 1.21-20.32s.54-13.53.52-20.29a1.06 1.06 0 00-2.11 0z"/>
            <path d="M67.15 174.18a126.94 126.94 0 0028-2.83c1.32-.28.76-2.31-.56-2a124.87 124.87 0 01-27.47 2.75 1.05 1.05 0 000 2.1z"/>
            <path d="M94.07 170.94c4.66 7.73 4.62 19.56 3 28.21-.25 1.32 1.77 1.88 2 .55 1.73-9.18 1.77-21.56-3.2-29.82a1.05 1.05 0 00-1.82 1.06z"/>
            <path d="M105.82 200.11c-1.25 1.65-5.47 2.25-6.84.46-.81-1.06-2.64 0-1.81 1.06 2.4 3.15 8.19 2.56 10.46-.46.82-1.08-1-2.13-1.81-1.06z"/>
            <path d="M105.51 202.41c4 5.71 11.07 9.2 17.9 10.1 1.34.17 1.32-1.93 0-2.11-6-.78-12.53-4-16.09-9.06-.77-1.09-2.6 0-1.81 1.07z"/>
            <path d="M122.72 211.94c.17.46 0 .17.23-.1.1-.12-.23 0-.27 0-1.32.3-.76 2.32.56 2a1.84 1.84 0 001.51-2.53c-.46-1.27-2.49-.72-2 .56z"/>
            <path d="M122.48 212.56H96a1.05 1.05 0 000 2.1h26.44a1.05 1.05 0 000-2.1z"/>
            <path d="M96.09 202c-.16 3.62-.44 7.24-.46 10.86a1.05 1.05 0 002.1 0c0-3.62.3-7.24.47-10.86.06-1.35-2-1.35-2.11 0z"/>
            <path d="M74.59 110.71c1.29 1.66 3 9.46-.34 9.79-1.33.14-1.34 2.24 0 2.1 5.79-.58 4.31-10.18 1.83-13.38-.83-1.06-2.31.43-1.49 1.49z"/>
            <path d="M116 76.79a2.13 2.13 0 011.64 1.37 1.06 1.06 0 001.44.38 1.09 1.09 0 00.38-1.44 4.08 4.08 0 00-2.9-2.34c-1.32-.3-1.88 1.73-.56 2z"/>
            <path d="M56.36 85.74c-2.34 2-6.37 1.87-7.92-1-.65-1.19-2.46-.13-1.82 1.06 2.23 4.14 7.9 4.34 11.23 1.45 1-.89-.47-2.37-1.49-1.49z"/>
            <path d="M65.62 86.88a12.29 12.29 0 01-6 4.62c-1.27.46-.72 2.49.56 2a14.68 14.68 0 007.27-5.58c.79-1.1-1-2.15-1.82-1.06z"/>
            <path d="M70.52 92c-2.67-.89-5.66-1.88-8.44-.93-1.27.44-.73 2.47.56 2 2.41-.82 5 .16 7.32.93 1.29.43 1.84-1.6.56-2z"/>
        </g>
    </g>
</symbol><symbol id="ico-color-skype" viewBox="0 0 117.25 115.97">
    <g id="&#x421;&#x43B;&#x43E;&#x439;_2">
        <g id="Design">
            <path d="M61.5 91.94v24c30.64-.14 55.28-5.46 55.28-12s-24.64-11.88-55.28-12z" fill="#231f20" opacity=".15"/>
            <path d="M113.46 44c-1.13-1.73-2.28-5.88-3.48-6.47-6.69-14.15-19-25.94-34-31 6.53.39 9.32 4.16 13 6.33 10.61 5.71 18.65 15.62 23.18 25.61a56.56 56.56 0 00-6.82-11.26A44.75 44.75 0 01113.46 44zm1.71 12.75a40 40 0 01.27 4.62c-.09-1.58-.18-3.11-.27-4.62zM66 9.32a54.65 54.65 0 00-20.71 1c7.41-2 15.91-3.06 23.43-.94L66 9.32zm9.48 3.23A39.31 39.31 0 0192.37 23a43.68 43.68 0 00-16.91-10.45zM22.35 16c.8-.66 1.6-1.28 2.4-1.87-.81.61-1.61 1.24-2.4 1.87zm83.93 67.9a7.78 7.78 0 00-1.57 2.61c1.41-1.6 3.64-5.14 4.65-6.05l-.19 2c4.06-4.42 6.65-15.09 8.07-21.08-2.53 14.5-9.68 30.28-22.91 41.32-13 11.09-32.17 15.93-48.64 11.5A62.44 62.44 0 013.61 81.5C2 78.48.21 70.37.27 64.54A65.46 65.46 0 015 34C14.13 13.41 35.88.25 59.6 0c4.86.15 10.79 2.62-.41 2.82a72.44 72.44 0 00-21.31 5.4 57.06 57.06 0 0114.58-3.84c-2.14.44-4.3.82-6.17 1.26A63.07 63.07 0 0175.91 7.2a62.43 62.43 0 00-41.56 5.31C21.52 19.09 11.44 31 7.67 44.31 11 37.42 15.12 27.8 21 24A55.82 55.82 0 005.57 57.49c0-1-.09-1.89 0-2.83-1.85 7.88-.36 16.65 2.1 24.23a55.82 55.82 0 01-2-21.41c0 3.25.06 6.66.41 10.75.19-2.25.17-5.43.51-8.57a48.13 48.13 0 012-12.17 41.29 41.29 0 00-.73 18c-.3-8.36 1.14-17.05 4.7-24.61A51.33 51.33 0 009.13 54.1a50.66 50.66 0 001.26 23l-.29-.85a14.5 14.5 0 00.58 1.75 53.55 53.55 0 003.6 8.55A30.57 30.57 0 0019.4 93l.83 1c-.67-.56-1.14-.73-.17.64 4.2 6 11.06 10.09 18.14 14.3a25.55 25.55 0 007.8 2.74 2.73 2.73 0 001.69.33c.67.11 1.34.29 2 .36 1.66.22 3.32.48 5 .54-1.61-.19-3.28-.38-5-.54-.63-.08-1.22-.27-1.84-.39a4.46 4.46 0 011.84 0A54 54 0 0120.23 94c.62.41 1.43 1 1.8 1.26A23.73 23.73 0 0119.4 93a53.76 53.76 0 01-6.24-9.68 16.74 16.74 0 001.89 2.56A53.92 53.92 0 019.13 54.1a50.7 50.7 0 0113.63-26.75 40 40 0 00-10.2 13.53c5.92-14.47 19.16-26.11 34.55-29.15a36.23 36.23 0 00-5.66 3.57 26.71 26.71 0 014.63-1.84l.84-.2a48.46 48.46 0 00-5.57 2.12 6.82 6.82 0 00-1.22 1.26c.26.29 4.78-1.06 2.3.13-8.56 4.86-14.49 9-15.16 13.74 0 .07.12.07.33 0A44.51 44.51 0 01106.36 59a45.81 45.81 0 01-.39 5.82c.27-.7.54-1.37.82-2.21.26 8.34-3.8 16.94-7 24.21 6.39-7.3 8.67-20.65 10.7-22 2.92-1.29-1.32 14.1-5.58 20.76l1.34-1.67zM32.79 10.61v.08c.75-.42 1.5-.8 2.26-1.17-.74.36-1.48.71-2.21 1.09.66-1.06 4.76-2.74 6.57-3.81a48.25 48.25 0 00-14.6 7.33 58.63 58.63 0 017.39-4.85A57.62 57.62 0 008.26 33.59c-1.89 4-5.86 6.94-5.85 13.76a62 62 0 0130.38-36.74zm-5.34 77.08l.17-.22c-.52-.63-1-1.27-1.52-1.92a11.12 11.12 0 01.6 1.79 16.74 16.74 0 011.89 1.39 5.78 5.78 0 00-1.14-1zm23.35 14.45l.28.19h.43l-.71-.16zm6.85 1.18l2 .42a3 3 0 00.53-.26c-.83 0-1.67-.08-2.49-.16zM69.07 13a48.36 48.36 0 0112.52 3.92 39.59 39.59 0 0112.57 10.36A50 50 0 0069.07 13z" fill="#00aff0"/>
            <path d="M82.14 69a26.65 26.65 0 00.6-5.59 26.11 26.11 0 00-30.53-25.66A15.11 15.11 0 0031.13 58.2a26.11 26.11 0 0025.55 31.31 27.1 27.1 0 004.77-.44 15 15 0 007.15 1.81A15.13 15.13 0 0082.14 69zM70 75.9a11.89 11.89 0 01-5.3 4 21.09 21.09 0 01-8.14 1.43 20.06 20.06 0 01-9.33-1.94A12.35 12.35 0 0143 75.58a8.3 8.3 0 01-1.67-4.71 3.27 3.27 0 011.08-2.47 3.83 3.83 0 012.72-1 3.4 3.4 0 012.3.8 6 6 0 011.53 2.22 12.66 12.66 0 001.5 2.65 5.82 5.82 0 002.19 1.71 9.23 9.23 0 003.78.67 9.25 9.25 0 005.26-1.36 3.84 3.84 0 001.93-3.26 3.21 3.21 0 00-1-2.48 7.08 7.08 0 00-2.79-1.53c-1.18-.38-2.79-.77-4.78-1.19a39.53 39.53 0 01-6.84-2 11.28 11.28 0 01-4.47-3.27A8.19 8.19 0 0142 55.09a8.48 8.48 0 011.77-5.28 11 11 0 015.06-3.5 22.18 22.18 0 017.65-1.22 20.71 20.71 0 016.09.8 13.37 13.37 0 014.3 2.17 9 9 0 012.53 2.85 6.25 6.25 0 01.82 3 3.78 3.78 0 01-3.76 3.65 3.35 3.35 0 01-2.24-.71 8.54 8.54 0 01-1.56-2.06 8.66 8.66 0 00-2.34-2.91 7.34 7.34 0 00-4.36-1 8.18 8.18 0 00-4.52 1.1 3 3 0 00-1.62 2.5 2.26 2.26 0 00.52 1.51 4.39 4.39 0 001.56 1.19A10.18 10.18 0 0054 58c.72.21 1.95.5 3.61.89a56.35 56.35 0 015.76 1.51 18.93 18.93 0 014.45 2 8.8 8.8 0 012.94 3.11 9.3 9.3 0 011.06 4.6A9.81 9.81 0 0170 75.9z" fill="#fff"/>
        </g>
    </g>
</symbol><symbol id="ico-color-telegram" viewBox="0 0 117.25 116.97">
    <g id="&#x421;&#x43B;&#x43E;&#x439;_2">
        <g id="Design">
            <path d="M61.5 92.94v24c30.64-.14 55.28-5.46 55.28-12s-24.64-11.87-55.28-12z" fill="#231f20" opacity=".15"/>
            <path d="M113.46 44c-1.13-1.73-2.28-5.88-3.48-6.47-6.69-14.15-19-25.94-34-31 6.53.39 9.32 4.16 13 6.33 10.61 5.71 18.65 15.62 23.18 25.61a56.49 56.49 0 00-6.82-11.26 44.75 44.75 0 018.2 16.8zm1.71 12.75a39.67 39.67 0 01.27 4.62c-.09-1.58-.19-3.11-.27-4.62zM66 9.32a54.69 54.69 0 00-20.71 1c7.41-2 15.91-3.06 23.43-.94L66 9.32zm9.48 3.23A39.31 39.31 0 0192.37 23a43.7 43.7 0 00-16.9-10.42zM22.35 16c.8-.66 1.6-1.28 2.4-1.87-.81.61-1.61 1.24-2.4 1.88zm83.93 67.9a7.82 7.82 0 00-1.56 2.61c1.41-1.6 3.64-5.14 4.65-6l-.2 2c4.05-4.42 6.65-15.09 8.07-21.07-2.54 14.49-9.68 30.28-22.91 41.31-13 11.09-32.16 15.93-48.64 11.5A62.44 62.44 0 013.61 81.5C2 78.48.21 70.37.27 64.54A65.46 65.46 0 015 34C14.13 13.41 35.88.25 59.6 0c4.86.15 10.79 2.62-.41 2.82a72.35 72.35 0 00-21.31 5.4 56.92 56.92 0 0114.58-3.84c-2.14.43-4.3.82-6.17 1.25A63.06 63.06 0 0175.91 7.2a62.41 62.41 0 00-41.56 5.31C21.52 19.09 11.44 31 7.67 44.31 11 37.42 15.12 27.8 21 24A55.82 55.82 0 005.57 57.48c0-1-.09-1.89 0-2.83-1.85 7.88-.36 16.65 2.1 24.23a55.81 55.81 0 01-2-21.41c0 3.25.06 6.66.41 10.75.19-2.25.17-5.43.51-8.57a48.1 48.1 0 012-12.17 41.3 41.3 0 00-.73 18c-.3-8.35 1.14-17.04 4.7-24.6A51.4 51.4 0 009.13 54.1a50.65 50.65 0 001.26 23l-.29-.85a14.3 14.3 0 00.59 1.69 53.36 53.36 0 003.6 8.55A30.57 30.57 0 0019.4 93l.83 1c-.67-.56-1.14-.73-.17.64 4.2 6 11.06 10.09 18.14 14.3a25.44 25.44 0 007.8 2.74 2.72 2.72 0 001.69.33c.67.11 1.34.29 2 .36 1.66.22 3.32.49 5 .54-1.61-.19-3.28-.38-5-.54-.63-.08-1.23-.27-1.84-.39a4.44 4.44 0 011.84 0A54.06 54.06 0 0120.23 94c.62.41 1.43 1 1.8 1.26A24 24 0 0119.4 93a53.82 53.82 0 01-6.24-9.69 16.86 16.86 0 001.89 2.56A53.93 53.93 0 019.13 54.1a50.7 50.7 0 0113.63-26.75 40 40 0 00-10.2 13.53c5.92-14.47 19.16-26.11 34.55-29.15a36 36 0 00-5.66 3.57 26.76 26.76 0 014.63-1.84l.84-.2a48.27 48.27 0 00-5.57 2.12 6.81 6.81 0 00-1.22 1.26c.26.29 4.78-1.06 2.3.13-8.56 4.86-14.49 9-15.16 13.73 0 .07.12.08.33 0A44.51 44.51 0 01106.36 59a46.08 46.08 0 01-.39 5.82c.27-.7.54-1.37.82-2.21.26 8.34-3.8 16.94-7 24.21 6.39-7.3 8.67-20.65 10.7-22 2.92-1.29-1.32 14.09-5.58 20.76l1.34-1.67zM32.79 10.61v.08c.75-.42 1.5-.8 2.26-1.17-.74.35-1.48.71-2.21 1.09.66-1.06 4.76-2.74 6.57-3.81a48.28 48.28 0 00-14.6 7.33 58.52 58.52 0 017.39-4.85A57.63 57.63 0 008.26 33.59c-1.89 4-5.86 6.94-5.85 13.76a62 62 0 0130.38-36.74zm-5.34 77.08l.17-.22c-.52-.63-1-1.27-1.52-1.92a11.15 11.15 0 01.6 1.79 16.34 16.34 0 011.89 1.38 5.8 5.8 0 00-1.14-1zm23.35 14.44l.28.2h.44l-.71-.17zm6.85 1.18l2 .42a2.9 2.9 0 00.53-.26c-.83 0-1.67-.08-2.49-.16zM69.07 13a48.34 48.34 0 0112.52 3.92 39.58 39.58 0 0112.57 10.36A50 50 0 0069.07 13z" fill="#08c"/>
            <path d="M78.3 38.32L26 58.72a1.91 1.91 0 00.15 3.61l13.3 3.93 5 15.75a2.28 2.28 0 003.81.91l6.88-7 13.5 9.91A2.81 2.81 0 0073 84.11l8.94-42.73a2.69 2.69 0 00-3.61-3.06zm-6.56 9.48L47.43 69.31a1.3 1.3 0 00-.43.83l-.94 8.32a.25.25 0 01-.49 0L41.71 66.1a1.31 1.31 0 01.56-1.5L71 46.79a.63.63 0 01.75 1z" fill="#fff"/>
        </g>
    </g>
</symbol><symbol id="ico-color-whatsUp" viewBox="0 0 117.25 115.97">
    <g id="&#x421;&#x43B;&#x43E;&#x439;_2">
        <g id="Design">
            <path d="M61.8 91.94v24c30.64-.14 55.28-5.46 55.28-12s-24.64-11.87-55.28-12z" fill="#231f20" opacity=".15"/>
            <path d="M113.46 44c-1.13-1.73-2.28-5.88-3.48-6.47-6.69-14.15-19-25.94-34-31 6.53.39 9.32 4.16 13 6.33 10.61 5.71 18.65 15.62 23.18 25.61a56.53 56.53 0 00-6.82-11.26 44.75 44.75 0 018.2 16.8zm1.71 12.75a39.23 39.23 0 01.27 4.62c-.09-1.58-.18-3.11-.27-4.62zM66 9.32a54.7 54.7 0 00-20.71 1c7.42-2 15.91-3.06 23.43-.94L66 9.32zm9.48 3.23A39.32 39.32 0 0192.37 23a43.69 43.69 0 00-16.91-10.45zM22.35 16c.8-.66 1.6-1.28 2.4-1.88-.81.61-1.61 1.24-2.4 1.88zm83.93 67.9a7.8 7.8 0 00-1.56 2.61c1.41-1.6 3.64-5.14 4.65-6l-.2 2c4.06-4.42 6.65-15.09 8.07-21.07-2.53 14.49-9.67 30.28-22.91 41.31-13 11.09-32.17 15.93-48.64 11.5A62.44 62.44 0 013.61 81.5C2 78.48.21 70.37.27 64.54A65.44 65.44 0 015 34C14.13 13.41 35.88.25 59.6 0c4.86.15 10.79 2.62-.41 2.82a72.37 72.37 0 00-21.31 5.4 56.94 56.94 0 0114.58-3.84c-2.14.43-4.3.82-6.17 1.25A63.07 63.07 0 0175.91 7.2a62.41 62.41 0 00-41.56 5.31C21.52 19.09 11.44 31 7.67 44.31 11 37.42 15.12 27.8 21 24A55.82 55.82 0 005.57 57.48c0-1-.09-1.89 0-2.83-1.85 7.88-.36 16.65 2.1 24.23a55.77 55.77 0 01-2-21.41c0 3.25.06 6.66.41 10.75.19-2.25.17-5.43.51-8.57a48.07 48.07 0 012-12.17 41.3 41.3 0 00-.74 18c-.29-8.35 1.15-17.04 4.71-24.6A51.35 51.35 0 009.13 54.1a50.65 50.65 0 001.26 23l-.29-.85a14.39 14.39 0 00.58 1.69 53.71 53.71 0 003.6 8.55A30.65 30.65 0 0019.4 93l.83 1c-.67-.56-1.14-.73-.17.64 4.2 6 11.06 10.09 18.14 14.3a25.44 25.44 0 007.8 2.74 2.73 2.73 0 001.69.33c.67.11 1.34.29 2 .36 1.66.22 3.32.49 5 .54-1.61-.19-3.28-.38-5-.54-.63-.08-1.22-.27-1.84-.39a4.44 4.44 0 011.84 0A54.06 54.06 0 0120.23 94c.62.41 1.43 1 1.8 1.26A23.81 23.81 0 0119.4 93a53.85 53.85 0 01-6.24-9.69 16.74 16.74 0 001.89 2.56A53.91 53.91 0 019.13 54.1a50.69 50.69 0 0113.63-26.75 40 40 0 00-10.2 13.53c5.92-14.47 19.16-26.11 34.55-29.15a36 36 0 00-5.66 3.57 26.72 26.72 0 014.63-1.84l.84-.2a48.27 48.27 0 00-5.57 2.12 6.81 6.81 0 00-1.22 1.26c.26.29 4.78-1.06 2.3.13-8.57 4.86-14.49 9-15.16 13.73 0 .07.12.08.33 0A44.51 44.51 0 01106.36 59a45.9 45.9 0 01-.39 5.82c.27-.7.55-1.37.82-2.21.26 8.34-3.8 16.94-7 24.21 6.39-7.3 8.67-20.65 10.7-22 2.92-1.29-1.32 14.09-5.58 20.76l1.34-1.67zM32.79 10.61v.08c.75-.42 1.5-.8 2.26-1.17-.75.35-1.48.71-2.21 1.09.66-1.06 4.76-2.74 6.57-3.81a48.28 48.28 0 00-14.6 7.33 58.44 58.44 0 017.39-4.85A57.63 57.63 0 008.26 33.59c-1.89 4-5.86 6.94-5.85 13.76a62 62 0 0130.38-36.74zm-5.34 77.08l.17-.22c-.52-.63-1-1.27-1.52-1.92a11.11 11.11 0 01.6 1.79 16.33 16.33 0 011.89 1.38 5.75 5.75 0 00-1.14-1zm23.36 14.44l.28.2h.43l-.71-.17zm6.85 1.18l2 .42a3 3 0 00.53-.26c-.83 0-1.67-.08-2.49-.16zM69.07 13a48.38 48.38 0 0112.52 3.92 39.57 39.57 0 0112.57 10.36A50 50 0 0069.07 13z" fill="#2ab200"/>
            <path d="M59.71 87a27.86 27.86 0 01-13.12-3.27l-15.42 4.19 4.51-14.6A27.95 27.95 0 1159.71 87zm0-51.33a23.39 23.39 0 00-19 36.95L38 81.35l8.93-2.42.33-.09a23.38 23.38 0 1012.45-43.16zm14.23 30.68c-.15 1.07-.53 5.19-6.26 5.63 0 0-5.54.19-11.75-4.61A33.46 33.46 0 0147.78 58l-.29-.51a10.55 10.55 0 01-1.29-5v-.61a6 6 0 013.69-5.36s2.28-.34 2.67 0l2.53 5.68a2.06 2.06 0 010 2.28c-.83 1-1.5 1.79-1.5 1.79s-.73.53 0 1.6 3.73 5.68 8.92 7.72a1.72 1.72 0 002.29-.87l1.65-2.13s.39-.54 1.65 0S73.35 65 73.35 65s.72.24.58 1.31z" fill="#fff"/>
        </g>
    </g>
</symbol></svg>